<svg width="419" height="417" viewBox="0 0 419 417" fill="none" xmlns="http://www.w3.org/2000/svg">
<path d="M36.7364 113.28C45.1064 98.01 74.4164 46.44 138.496 20.43C221.286 -13.18 295.236 23.02 305.116 28.06C392.046 72.43 410.546 162.54 413.236 176.88C415.096 186.83 434.596 301.01 353.456 368.94C284.166 426.95 195.066 406.37 165.206 399.47C136.026 392.73 74.9364 378.61 36.7364 323.15C-10.3736 254.75 7.30637 166.93 36.7364 113.28Z" fill="#FCDB00"/>
<path d="M36.0763 112.92C39.2863 107.03 42.7464 101.26 46.4264 95.64C48.3264 92.87 50.1364 90.04 52.1564 87.35L55.1263 83.28L58.2263 79.3C66.5363 68.72 75.7664 58.84 85.8964 49.89C96.0364 40.95 107.066 32.94 118.836 26.1L123.276 23.56C124.016 23.14 124.756 22.7 125.506 22.3L127.806 21.18L137.016 16.68C143.286 13.98 149.636 11.35 156.186 9.3C162.696 7.12 169.376 5.46 176.096 3.97C182.836 2.58 189.666 1.53 196.526 0.86C198.236 0.65 199.966 0.58 201.686 0.45C203.406 0.33 205.126 0.2 206.856 0.17L212.026 0H217.206C224.106 0.13 231.006 0.51 237.866 1.31C251.576 2.94 265.116 5.85 278.246 10.08C284.806 12.2 291.286 14.58 297.626 17.38C300.796 18.77 303.946 20.24 307.066 21.85C310.146 23.5 313.116 25.22 316.136 26.9C327.996 33.99 339.076 42.35 349.136 51.73C350.416 52.87 351.636 54.09 352.846 55.31L356.486 58.96L359.976 62.74L361.716 64.63L363.386 66.58L366.716 70.49L369.906 74.51L371.496 76.52L373.016 78.59L376.036 82.73C391.786 105.08 403.126 130.1 410.636 156.06C412.516 162.56 414.076 169.15 415.356 175.81C416.596 182.52 417.346 189.22 417.956 195.95C419.096 209.41 419.236 222.93 418.506 236.44C418.426 238.13 418.266 239.81 418.146 241.5C418.026 243.19 417.896 244.87 417.706 246.55L417.176 251.6L416.496 256.63L416.156 259.15L415.756 261.66L414.936 266.68L413.956 271.67L413.466 274.17L412.886 276.65C409.816 289.88 405.756 302.97 400.006 315.42C394.336 327.89 387.236 339.78 378.726 350.66C377.716 352.06 376.566 353.35 375.456 354.67L372.096 358.62C370.986 359.95 369.736 361.15 368.566 362.42L364.976 366.17C362.476 368.56 359.906 370.88 357.366 373.24C356.046 374.36 354.706 375.45 353.376 376.56C352.026 377.65 350.736 378.81 349.326 379.82C327.336 396.82 300.846 407.91 273.546 412.71C259.896 415.17 246.036 416.24 232.246 416.16C218.446 416.02 204.706 414.82 191.146 412.71C184.366 411.65 177.626 410.4 170.976 408.95L161.096 406.73C157.816 405.98 154.506 405.2 151.196 404.39C137.946 401.1 124.706 397.01 111.916 391.67C99.1364 386.31 86.7263 379.8 75.2563 371.82C63.7763 363.86 53.1163 354.6 43.9663 343.99C25.4763 322.92 13.2164 296.8 7.8064 269.8C7.1964 266.41 6.51632 263.04 6.10632 259.62C5.88632 257.92 5.59629 256.22 5.44629 254.51L4.94629 249.39C4.76629 247.69 4.71632 245.97 4.60632 244.27C4.50632 242.56 4.38634 240.86 4.37634 239.15L4.25635 234.03L4.31641 228.92C4.45641 222.11 4.8764 215.32 5.6864 208.59C6.0164 205.22 6.55635 201.87 7.00635 198.52C7.59635 195.19 8.10639 191.85 8.79639 188.54C10.0764 181.91 11.6763 175.35 13.4763 168.86C15.2763 162.37 17.3163 155.95 19.6163 149.64C20.7363 146.47 21.9764 143.35 23.1864 140.21C24.4764 137.11 25.7464 134 27.1464 130.95C29.8864 124.82 32.8463 118.78 36.0963 112.9L36.0763 112.92ZM37.3964 113.64C24.6964 137.1 16.3863 162.93 12.7563 189.22C12.2463 192.5 11.9763 195.81 11.6163 199.1C11.3963 202.41 11.0663 205.7 10.9863 209.01C10.6863 215.62 10.7864 222.23 11.1464 228.8C11.4464 235.38 12.2764 241.91 13.2764 248.37C14.3264 254.83 15.7863 261.2 17.4863 267.48C21.0363 279.99 25.8963 292.06 32.2263 303.25C35.2863 308.9 38.8764 314.24 42.5664 319.47C46.3264 324.66 50.4264 329.58 54.7664 334.27C59.0864 338.97 63.7263 343.38 68.6063 347.5C73.4763 351.63 78.5964 355.47 83.9264 359C94.6064 366.06 106.046 372.01 118.016 376.85C123.996 379.26 130.086 381.49 136.266 383.45C142.456 385.43 148.746 387.13 155.096 388.77C158.276 389.58 161.476 390.35 164.716 391.11L174.406 393.35C180.826 394.78 187.226 396.13 193.656 397.23C219.356 401.62 245.626 402.76 271.146 398.72C296.656 394.77 321.116 385.1 342.136 370.14C343.486 369.26 344.726 368.22 346.026 367.26L349.876 364.31C352.326 362.2 354.806 360.14 357.236 358C359.556 355.75 361.966 353.59 364.236 351.28L367.556 347.74C368.656 346.55 369.806 345.4 370.816 344.13C379.306 334.33 386.596 323.43 392.606 311.82C398.636 300.21 403.286 287.83 406.696 275.1C410.206 262.38 412.286 249.25 413.406 236.06C413.966 229.46 414.226 222.82 414.226 216.19C414.236 209.56 413.976 202.92 413.426 196.31C412.886 189.71 412.086 183.09 410.856 176.65C409.606 170.17 407.926 163.75 405.986 157.42C402.086 144.76 397.006 132.47 390.906 120.76C387.806 114.92 384.466 109.23 380.916 103.69C377.346 98.15 373.456 92.85 369.406 87.68C353.026 67.15 332.686 50.14 309.926 37.76C307.046 36.29 304.166 34.75 301.296 33.33C298.426 31.96 295.476 30.65 292.486 29.42C286.506 26.97 280.386 24.79 274.186 22.87C261.786 19.03 249.066 16.22 236.216 14.49C210.526 11.12 184.166 12.01 158.826 18.47C152.476 20 146.246 22.01 140.046 24.15L130.906 27.8L128.616 28.71C127.866 29.04 127.136 29.41 126.386 29.76L121.936 31.89L117.476 34.03L113.156 36.43C110.286 38.05 107.346 39.57 104.606 41.42L100.436 44.1L98.3463 45.44C97.6563 45.9 97.0063 46.4 96.3263 46.88L92.3064 49.8C90.9764 50.79 89.5963 51.71 88.3363 52.8C77.8863 60.97 68.3364 70.34 59.8064 80.57L56.6263 84.42L53.6063 88.4C51.5563 91.03 49.7064 93.81 47.7764 96.52C44.0664 102.06 40.6364 107.78 37.4064 113.63L37.3964 113.64Z" fill="#0E2980"/>
<path d="M136.336 294.28C136.496 289.71 137.526 285.32 138.906 281.07C140.286 276.81 142.156 272.73 144.346 268.83C146.536 264.93 149.076 261.21 151.946 257.74C154.786 254.26 158.026 251.07 161.716 248.45C165.366 245.79 169.446 243.69 173.506 241.79C177.606 239.92 181.666 238.22 185.596 236.35C193.466 232.66 201.116 228.74 209.266 224.97C213.336 223.09 217.586 221.48 221.966 220.3C224.166 219.77 226.386 219.22 228.636 218.94C229.756 218.78 230.886 218.59 232.016 218.48L235.417 218.16C239.947 217.82 244.536 217.65 249.086 217.97C253.646 218.21 258.176 218.87 262.586 219.98C266.996 221.07 271.316 222.5 275.456 224.3C279.616 226.06 283.617 228.13 287.437 230.47C291.257 232.81 294.886 235.44 298.266 238.35C301.636 241.28 304.797 244.45 307.437 248.14C307.707 248.52 307.616 249.04 307.246 249.31C307.026 249.47 306.746 249.5 306.506 249.43H306.476C298.146 246.71 290.216 244.2 282.336 242.03C278.396 240.95 274.486 239.97 270.596 239.06C266.696 238.17 262.816 237.4 258.946 236.68L253.156 235.61C251.216 235.33 249.296 234.91 247.356 234.64C243.486 234 239.576 233.55 235.636 233.28L232.677 233.13C231.687 233.08 230.706 233.11 229.716 233.09C227.726 233.03 225.746 233.09 223.736 233.05C222.736 233.03 221.726 233.07 220.716 233.08C219.706 233.09 218.677 233.04 217.667 233.1C215.647 233.22 213.566 233.19 211.526 233.42L208.437 233.72C207.407 233.85 206.396 234.03 205.376 234.21C204.356 234.4 203.326 234.57 202.326 234.83C201.336 235.11 200.316 235.35 199.336 235.66C198.346 235.96 197.376 236.32 196.406 236.69L194.956 237.24L193.547 237.89C191.647 238.71 189.836 239.74 188.086 240.83C184.596 243.07 181.477 245.88 178.667 248.93C175.837 251.96 173.336 255.25 170.716 258.28C168.146 261.37 165.427 264.24 162.677 267.12C159.947 270.02 157.236 272.97 154.536 275.99L146.406 285.23C143.636 288.37 140.906 291.59 137.836 294.86C137.516 295.21 136.976 295.23 136.626 294.91C136.436 294.74 136.346 294.49 136.356 294.26L136.336 294.28Z" fill="#0E2980"/>
<path d="M78.3662 116.25L176.546 162.45C174.106 166.15 164.876 179.15 146.846 184.73C128.786 190.31 113.816 184.76 109.716 183.08C105.156 180.67 90.6962 172.31 82.4862 154.2C74.6862 136.98 77.2662 121.42 78.3562 116.25H78.3662Z" fill="white"/>
<path d="M78.1465 115.8C85.7265 118.37 93.7866 121.29 102.047 124.39C106.177 125.9 110.376 127.58 114.596 129.17C118.826 130.83 123.107 132.53 127.397 134.3C135.977 137.81 144.657 141.62 153.177 145.78C161.697 149.93 170.107 154.21 178.407 158.48L178.706 158.63C180.776 159.7 181.597 162.25 180.527 164.32C180.437 164.5 180.316 164.69 180.196 164.85C176.176 170.43 171.076 175 165.456 178.6C159.806 182.18 153.636 184.72 147.346 186.4C144.176 187.17 140.997 187.84 137.777 188.21C134.557 188.56 131.317 188.76 128.067 188.71C121.567 188.62 115.017 187.84 108.567 185.9L108.297 185.77C101.857 183.08 95.8066 179.25 90.8066 174.23C88.3066 171.73 86.0665 168.96 84.0865 166.02C83.1465 164.52 82.1465 163.05 81.3665 161.46C80.9565 160.67 80.5165 159.91 80.1465 159.11L79.0566 156.7C76.2566 150.22 74.7365 143.22 74.5065 136.29C74.3965 132.82 74.6365 129.36 75.1965 125.98C75.3465 125.14 75.4866 124.29 75.6666 123.46C75.8666 122.63 76.0465 121.8 76.2865 120.98C76.4965 120.16 76.7465 119.34 77.0165 118.54L77.4366 117.34C77.4966 117.16 77.6265 116.77 77.7565 116.52C77.8965 116.24 78.0466 116.01 78.1666 115.81L78.1465 115.8ZM78.5965 116.7C78.6365 116.9 78.7065 117.07 78.7565 117.2C78.8065 117.36 78.8465 117.37 78.8365 117.6V118.84V121.3C78.8665 122.93 78.9765 124.55 79.0765 126.16C79.3465 129.37 79.8066 132.53 80.4266 135.62C81.7366 141.79 83.7865 147.68 86.6365 153.14C88.0265 155.89 89.6866 158.46 91.4166 160.99C93.2166 163.47 95.1665 165.82 97.2165 168.1C101.326 172.63 105.937 176.87 111.147 180.39L110.877 180.26C116.127 183.06 122.096 184.95 128.206 185.48C131.266 185.71 134.347 185.63 137.387 185.23C140.437 184.85 143.407 184.04 146.307 183.07C147.717 182.48 149.167 182 150.517 181.27C151.197 180.92 151.887 180.61 152.557 180.24L154.527 179.1C157.097 177.49 159.517 175.69 161.747 173.69C166.177 169.67 169.927 164.98 172.897 160.05L174.687 166.42C166.617 163 158.666 159.57 150.826 156.02C142.986 152.48 135.297 148.59 127.517 144.4C123.627 142.32 119.717 140.16 115.767 137.98C111.807 135.72 107.837 133.55 103.777 131.21C95.6765 126.61 87.3665 121.83 78.5965 116.7Z" fill="#0E2980"/>
<path d="M195.056 143.84C190.396 143.39 185.946 142.45 181.556 141.4C177.166 140.33 172.876 139.06 168.636 137.64C164.406 136.23 160.226 134.68 156.126 132.98C151.996 131.34 147.976 129.45 144.126 127.18C136.406 122.68 129.276 116.85 121.346 112.82C113.436 108.75 105.016 105.81 96.3064 103.52C91.9664 102.34 87.6063 101.21 83.3463 99.86C79.0763 98.53 74.9163 96.94 70.7463 95.4C62.3963 92.3 54.0363 89.24 46.0163 85.4C42.0063 83.49 38.0463 81.46 34.1363 79.31C30.2163 77.19 26.3463 74.96 22.5163 72.64C18.6863 70.32 14.9064 67.89 11.1864 65.32C7.46636 62.74 3.79632 60.06 0.276323 57.06C-0.053677 56.78 -0.0936428 56.29 0.186357 55.96C0.366357 55.75 0.636308 55.66 0.886308 55.69C5.47631 56.3 9.92625 57.24 14.3263 58.28C18.7262 59.33 23.0563 60.52 27.3463 61.81C31.6363 63.1 35.8762 64.49 40.0762 65.99C44.2862 67.46 48.4463 69.05 52.5463 70.75C60.7663 74.14 68.6363 78.31 76.5163 82.44C80.4563 84.51 84.4163 86.54 88.2663 88.83C92.1163 91.1 95.8763 93.58 99.6563 96.02C107.186 100.96 114.996 105.26 123.316 108.41C131.616 111.61 140.716 113.02 149.226 115.75C153.496 117.09 157.586 118.82 161.566 120.79C165.576 122.7 169.516 124.77 173.406 126.97C177.286 129.17 181.106 131.51 184.836 134.06C188.556 136.62 192.226 139.3 195.676 142.47C195.996 142.77 196.016 143.27 195.726 143.59C195.556 143.78 195.306 143.86 195.066 143.84H195.056Z" fill="#0E2980"/>
<path d="M222.466 142.47C225.916 139.3 229.586 136.62 233.306 134.06C237.036 131.51 240.856 129.17 244.736 126.97C248.616 124.77 252.556 122.7 256.576 120.79C260.556 118.81 264.656 117.09 268.916 115.75C277.426 113.02 286.526 111.61 294.826 108.41C303.146 105.25 310.956 100.95 318.486 96.02C322.266 93.59 326.026 91.1 329.876 88.83C333.716 86.54 337.676 84.51 341.626 82.44C349.506 78.3 357.386 74.14 365.596 70.75C369.696 69.04 373.856 67.46 378.066 65.99C382.266 64.49 386.506 63.1 390.796 61.81C395.086 60.52 399.416 59.32 403.816 58.28C408.216 57.24 412.666 56.3 417.256 55.69C417.686 55.63 418.076 55.93 418.136 56.36C418.176 56.63 418.056 56.89 417.866 57.06C414.346 60.07 410.676 62.74 406.956 65.32C403.236 67.89 399.456 70.31 395.626 72.64C391.796 74.96 387.926 77.19 384.006 79.31C380.096 81.45 376.136 83.49 372.126 85.4C364.106 89.24 355.746 92.31 347.396 95.4C343.226 96.95 339.066 98.54 334.796 99.86C330.536 101.21 326.176 102.34 321.836 103.52C313.126 105.81 304.716 108.75 296.796 112.82C288.866 116.85 281.736 122.68 274.016 127.18C270.166 129.45 266.146 131.34 262.016 132.98C257.906 134.68 253.736 136.23 249.506 137.64C245.276 139.06 240.976 140.33 236.586 141.4C232.186 142.45 227.746 143.39 223.086 143.84C222.656 143.88 222.266 143.56 222.226 143.13C222.206 142.88 222.306 142.63 222.476 142.47H222.466Z" fill="#0E2980"/>
<path d="M149.716 152.51L115.716 136.51C114.396 139.08 113.636 141.99 113.636 145.08C113.636 155.46 122.056 163.88 132.436 163.88C140.186 163.88 146.836 159.19 149.716 152.5V152.51Z" fill="#0E2980"/>
<path d="M339.766 116.25L241.586 162.45C244.026 166.15 253.256 179.15 271.286 184.73C289.346 190.31 304.317 184.76 308.417 183.08C312.977 180.67 327.436 172.31 335.646 154.2C343.446 136.98 340.866 121.42 339.776 116.25H339.766Z" fill="white"/>
<path d="M339.536 116.7C330.756 121.83 322.446 126.61 314.356 131.21C310.296 133.55 306.326 135.72 302.366 137.98C298.416 140.17 294.506 142.32 290.616 144.4C282.836 148.59 275.146 152.48 267.306 156.02C259.466 159.57 251.516 162.99 243.446 166.42L245.236 160.05C248.216 164.98 251.956 169.67 256.386 173.69C258.616 175.69 261.036 177.49 263.606 179.1L265.576 180.24C266.246 180.61 266.936 180.92 267.616 181.27C268.956 182 270.406 182.48 271.826 183.07C274.726 184.04 277.696 184.85 280.746 185.23C283.786 185.63 286.876 185.71 289.926 185.48C296.036 184.95 302.006 183.07 307.256 180.26L306.986 180.39C312.196 176.87 316.806 172.63 320.916 168.1C322.966 165.82 324.916 163.47 326.716 160.99C328.436 158.47 330.106 155.89 331.496 153.14C334.336 147.68 336.386 141.79 337.706 135.62C338.336 132.53 338.786 129.37 339.056 126.16C339.146 124.56 339.266 122.93 339.296 121.3L339.316 118.84V117.6C339.296 117.37 339.326 117.36 339.386 117.2C339.436 117.07 339.506 116.9 339.546 116.7H339.536ZM339.986 115.8C340.106 116 340.256 116.24 340.396 116.51C340.526 116.76 340.656 117.15 340.716 117.33L341.136 118.53C341.406 119.33 341.646 120.15 341.866 120.97C342.096 121.79 342.286 122.62 342.486 123.45C342.666 124.28 342.796 125.13 342.956 125.97C343.506 129.35 343.746 132.81 343.646 136.28C343.416 143.22 341.896 150.21 339.096 156.69L338.006 159.1C337.636 159.9 337.186 160.67 336.786 161.45C335.996 163.04 334.996 164.51 334.066 166.01C332.096 168.95 329.856 171.72 327.346 174.22C322.346 179.24 316.296 183.07 309.856 185.76L309.586 185.89C303.136 187.83 296.586 188.61 290.086 188.7C286.836 188.74 283.596 188.54 280.376 188.2C277.146 187.83 273.966 187.16 270.806 186.39C264.516 184.72 258.346 182.18 252.696 178.59C247.066 174.99 241.966 170.42 237.956 164.84C236.596 162.95 237.026 160.31 238.916 158.94C239.086 158.82 239.256 158.72 239.426 158.62L239.746 158.46C248.046 154.18 256.456 149.91 264.976 145.76C273.496 141.6 282.166 137.79 290.756 134.28C295.046 132.51 299.316 130.82 303.556 129.15C307.776 127.56 311.986 125.88 316.106 124.37C324.376 121.27 332.426 118.35 340.006 115.78L339.986 115.8Z" fill="#0E2980"/>
<path d="M268.417 152.51L302.417 136.51C303.737 139.08 304.496 141.99 304.496 145.08C304.496 155.46 296.076 163.88 285.696 163.88C277.946 163.88 271.297 159.19 268.417 152.5V152.51Z" fill="#0E2980"/>
</svg>
