<svg width="400" height="422" viewBox="0 0 400 422" fill="none" xmlns="http://www.w3.org/2000/svg">
<path d="M4.61298 167.533C17.553 101.763 64.213 45.4626 126.723 20.6226C142.143 14.4926 195.723 -4.50738 258.373 15.8526C347.843 44.9226 379.583 129.493 384.293 142.733C388.863 155.573 420.263 248.813 360.443 331.613C355.993 337.773 296.523 417.173 195.413 413.653C86.673 409.873 32.403 313.763 26.563 302.993C13.973 279.773 -7.54701 229.353 4.62299 167.533H4.61298Z" fill="#FCDB00"/>
<path d="M3.88292 167.393L6.08294 157.773L6.63292 155.363C6.83292 154.563 7.09293 153.783 7.32293 152.993L8.72289 148.263L10.0929 143.523C10.5929 141.953 11.1929 140.423 11.7329 138.863L13.4029 134.213C13.9629 132.663 14.4729 131.093 15.1629 129.593L19.0229 120.493C20.4229 117.513 21.9129 114.573 23.3529 111.603C24.7229 108.593 26.4629 105.783 28.0729 102.893L30.5029 98.5727C31.3029 97.1227 32.2729 95.7827 33.1429 94.3727C40.0929 83.1027 48.2629 72.5528 57.3229 62.7828L60.7229 59.1127C61.8229 57.8527 63.0929 56.7727 64.2829 55.6027L67.9029 52.1427L69.7129 50.4128C70.3129 49.8328 70.9229 49.2527 71.5729 48.7227L79.2429 42.2427C80.4929 41.1227 81.8829 40.1828 83.2129 39.1628L87.2629 36.1727C88.6229 35.1927 89.9429 34.1427 91.3529 33.2327L95.5929 30.5027C98.4429 28.7127 101.203 26.7727 104.193 25.2127C107.143 23.5927 110.073 21.9027 113.063 20.3327L122.243 16.0527C134.603 10.4927 147.633 6.55272 160.883 3.86272C174.153 1.20272 187.713 -0.147255 201.273 0.0127453C214.833 0.162745 228.393 1.82268 241.573 4.94268C267.983 11.0527 292.803 23.2927 313.803 39.9327L317.723 43.0727L321.523 46.3527L323.413 47.9927L325.253 49.6927L328.923 53.1027C333.703 57.7627 338.303 62.5928 342.633 67.6428C351.303 77.7328 359.083 88.5227 365.963 99.8427C372.853 111.153 378.863 122.983 383.863 135.263C388.873 147.583 392.333 160.433 395.003 173.403C400.113 199.373 401.533 226.283 397.693 252.803C395.833 266.053 392.503 279.143 387.943 291.813L387.103 294.193L386.163 296.533L384.263 301.223C383.663 302.803 382.893 304.303 382.203 305.843L380.073 310.443C378.523 313.433 376.963 316.433 375.343 319.403C373.603 322.303 371.963 325.253 370.143 328.103L367.363 332.343C366.423 333.753 365.553 335.163 364.483 336.603C362.443 339.413 360.323 342.043 358.153 344.643C353.813 349.843 349.223 354.793 344.443 359.553C334.903 369.093 324.443 377.703 313.363 385.463C291.163 400.893 265.873 412.443 239.043 417.913C212.243 423.473 184.263 422.963 157.623 416.553C130.933 410.183 106.053 397.403 84.7029 380.743C63.3829 363.953 45.5629 343.283 31.4629 320.543C29.6929 317.703 28.0029 314.803 26.3829 311.863C24.7729 308.943 23.1629 305.913 21.7629 302.883C18.8929 296.843 16.2529 290.703 13.9629 284.443L13.0829 282.103L12.2729 279.743L10.6729 275.013L9.2329 270.233C8.7629 268.643 8.2529 267.063 7.8629 265.443C7.0429 262.223 6.11293 259.043 5.45293 255.783L4.38292 250.933C4.03292 249.313 3.78289 247.673 3.47289 246.053C1.12289 233.023 -0.0670811 219.813 0.00291888 206.633L0.0328871 201.693C0.0528871 200.043 0.202887 198.403 0.282887 196.753C0.502887 193.463 0.572887 190.173 1.03289 186.903L1.58294 181.993C1.76294 180.353 1.91289 178.713 2.22289 177.103L3.88292 167.373V167.393ZM5.35289 167.683L3.80291 177.353C3.50291 178.963 3.37288 180.583 3.21288 182.213L2.7329 187.083C2.3429 190.323 2.35293 193.593 2.20293 196.853C2.16293 198.483 2.05293 200.113 2.07293 201.743L2.20293 206.633C2.55293 219.663 4.3329 232.633 7.4229 245.243C10.5129 257.853 14.8129 270.143 20.2929 281.843C22.9529 287.723 25.9829 293.423 29.1929 298.993C32.3629 304.533 35.9629 309.823 39.7329 315.033C47.2829 325.413 55.6629 335.183 64.6529 344.253C66.8829 346.533 69.1929 348.733 71.4929 350.943C72.6529 352.043 73.8529 353.093 75.0229 354.163C76.1929 355.233 77.3829 356.303 78.6029 357.323L82.2129 360.433L85.9229 363.423C88.3629 365.463 90.9729 367.263 93.4629 369.213C103.693 376.673 114.523 383.233 125.883 388.633C137.233 394.033 149.123 398.203 161.323 401.023C185.693 406.723 211.333 407.203 235.963 402.593C248.303 400.323 260.363 396.553 271.993 391.683C283.643 386.873 294.783 380.753 305.373 373.783C315.933 366.743 325.923 358.793 335.183 350.053C339.813 345.693 344.283 341.133 348.473 336.383C350.573 334.023 352.613 331.583 354.523 329.163C355.463 328.013 356.373 326.663 357.293 325.383L360.073 321.513C374.513 300.623 384.643 276.673 389.583 251.453C392.023 238.843 393.353 225.963 393.333 213.033C393.323 206.573 393.133 200.093 392.543 193.643C391.953 187.193 391.103 180.763 389.983 174.373C388.873 167.983 387.483 161.643 385.783 155.383C384.923 152.263 384.013 149.153 382.993 146.083C381.973 143.023 380.843 139.983 379.643 136.983C374.813 124.953 368.813 113.363 361.843 102.423C347.953 80.5227 329.953 61.2127 308.853 46.5927C298.363 39.2127 287.053 33.1027 275.313 28.1927C269.453 25.7127 263.443 23.6027 257.383 21.7027C251.253 20.0227 245.143 18.3127 238.903 17.1927C226.473 14.7427 213.833 13.4927 201.183 13.4727C188.533 13.4527 175.863 14.6527 163.393 16.9427C157.143 18.0427 150.963 19.4827 144.843 21.1827C138.723 22.8527 132.673 24.7828 126.793 27.1528L117.943 30.7227L109.303 34.8027C106.373 36.0827 103.653 37.7527 100.833 39.2627L96.6329 41.5827C95.2329 42.3627 93.9229 43.2827 92.5629 44.1227L88.5029 46.6927C87.1529 47.5627 85.7529 48.3627 84.4829 49.3327L76.6629 54.9627C75.9929 55.4127 75.3729 55.9227 74.7629 56.4427L72.8929 57.9727L69.1529 61.0328C66.6029 63.0128 64.2929 65.2527 61.9229 67.4427L58.3729 70.7327L57.4829 71.5527L56.6429 72.4327L54.9729 74.1827L51.6229 77.6927L49.9429 79.4527C49.3729 80.0327 48.8229 80.6227 48.3129 81.2527L42.0729 88.7127C40.9929 89.9327 40.1029 91.2827 39.1129 92.5727L36.2329 96.5027C35.2929 97.8327 34.2629 99.0927 33.4029 100.473L30.7729 104.583C29.0429 107.333 27.2129 110.043 25.7229 112.933C24.1829 115.793 22.5329 118.613 21.0729 121.533L16.9629 130.403C16.2429 131.873 15.6629 133.393 15.0929 134.923L13.3529 139.493C12.7829 141.023 12.1629 142.533 11.6329 144.073L10.1829 148.753L8.76293 153.433C8.53293 154.213 8.27293 154.993 8.07293 155.783L7.51293 158.163L5.2929 167.703L5.35289 167.683Z" fill="#0E2980"/>
<path d="M89.963 99.3327C93.913 100.753 97.603 102.523 101.243 104.363C104.873 106.223 108.393 108.223 111.843 110.333C115.283 112.443 118.673 114.633 121.973 116.943C125.293 119.223 128.483 121.683 131.483 124.403C137.473 129.863 142.893 136.093 149.273 141.013C155.603 146.003 162.553 150.133 169.753 153.923C171.273 154.723 171.863 156.613 171.063 158.143C170.793 158.653 170.413 159.053 169.953 159.333L169.123 159.843C165.803 161.903 162.483 163.953 159.083 165.853C155.693 167.753 152.213 169.463 148.773 171.253C141.873 174.803 134.983 178.343 127.803 181.263C120.643 184.203 113.353 186.873 105.923 189.223C98.483 191.553 90.963 193.683 83.093 195.063C82.763 195.123 82.453 194.903 82.403 194.573C82.363 194.353 82.453 194.133 82.623 193.993C88.903 189.073 95.523 184.893 102.223 180.923C108.933 176.973 115.793 173.333 122.773 169.973C129.743 166.593 136.993 163.833 144.233 161.073C147.863 159.703 151.463 158.273 155.143 157.013C158.823 155.753 162.573 154.653 166.323 153.563L165.703 159.483C159.883 153.793 153.823 148.433 147.133 143.943C140.503 139.373 132.903 136.123 125.873 132.103C122.363 130.083 119.043 127.803 115.853 125.343C112.643 122.913 109.523 120.353 106.453 117.733C103.393 115.103 100.403 112.363 97.523 109.483C94.653 106.583 91.833 103.613 89.273 100.293C89.073 100.033 89.113 99.6426 89.383 99.4426C89.553 99.3126 89.773 99.2827 89.953 99.3527L89.963 99.3327Z" fill="#0E2980"/>
<path d="M307.903 100.273C302.573 106.633 296.753 112.323 290.773 117.783C284.773 123.223 278.593 128.413 272.183 133.283C265.753 138.133 258.953 142.473 252.173 146.853C248.793 149.053 245.403 151.233 241.873 153.233C238.353 155.243 234.753 157.133 231.193 159.083L230.663 154.013C237.313 158.113 244.193 161.693 251.473 164.363C258.733 167.083 266.573 168.523 273.893 171.103C277.573 172.363 281.113 173.913 284.593 175.633C288.083 177.313 291.533 179.073 294.933 180.973C298.333 182.853 301.683 184.843 304.963 186.983C308.243 189.133 311.483 191.383 314.553 193.993C314.803 194.213 314.843 194.593 314.623 194.843C314.483 195.003 314.273 195.073 314.083 195.053C310.083 194.513 306.253 193.603 302.463 192.603C298.673 191.593 294.953 190.433 291.283 189.163C287.603 187.903 283.983 186.523 280.403 185.043C276.803 183.603 273.283 182.003 269.883 180.113C263.063 176.393 256.763 171.523 249.883 167.943C243.023 164.313 235.763 161.583 228.273 159.383C226.843 158.963 226.033 157.463 226.443 156.043C226.583 155.573 226.833 155.173 227.163 154.853L227.733 154.323C230.683 151.533 233.583 148.683 236.573 145.953C239.553 143.203 242.673 140.643 245.803 138.103C252.043 132.993 258.263 127.853 264.853 123.223C271.453 118.613 278.293 114.323 285.313 110.283C292.343 106.263 299.543 102.463 307.233 99.3426C307.543 99.2226 307.893 99.3626 308.013 99.6726C308.103 99.8826 308.053 100.123 307.913 100.283L307.903 100.273Z" fill="#0E2980"/>
<path d="M62.2429 287.703C66.8629 282.753 71.5729 277.893 76.2829 273.043C81.0329 268.233 85.7529 263.393 90.5729 258.653C95.3629 253.893 100.153 249.123 105.013 244.433C109.863 239.743 114.663 234.983 119.583 230.353C121.263 228.763 123.913 228.843 125.503 230.533C125.913 230.963 126.213 231.463 126.403 231.993L126.463 232.153L131.493 246.463C133.183 251.233 134.813 256.013 136.453 260.803L141.313 275.173C142.943 279.963 144.503 284.773 146.083 289.573L136.763 289.333C138.653 284.543 140.543 279.753 142.493 274.983C144.433 270.213 146.403 265.453 148.423 260.713C150.443 255.973 152.433 251.223 154.503 246.503L160.663 232.323L160.763 232.083C161.453 230.503 163.293 229.773 164.873 230.463C165.853 230.893 166.513 231.783 166.703 232.753L169.423 247.293C170.363 252.133 171.253 256.983 172.243 261.813C173.203 266.653 174.213 271.473 175.233 276.293C176.263 281.113 177.323 285.923 178.413 290.733L175.263 290.463L181.163 276.023C183.153 271.213 185.023 266.363 186.933 261.523C188.863 256.693 190.703 251.833 192.563 246.973C194.433 242.123 196.253 237.243 198.073 232.373C198.613 230.933 200.223 230.203 201.663 230.733C202.563 231.073 203.183 231.823 203.393 232.693L203.443 232.903L210.733 263.973C211.973 269.153 213.103 274.343 214.293 279.523C215.493 284.703 216.593 289.903 217.733 295.103L208.563 294.273C212.463 283.753 216.463 273.283 220.413 262.783L232.373 231.333C233.503 228.373 236.813 226.883 239.783 228.003C241.503 228.653 242.723 230.043 243.223 231.673L243.273 231.843C246.423 242.233 249.463 252.663 252.463 263.103C253.983 268.313 255.423 273.553 256.893 278.783L261.233 294.483L250.703 293.813C255.353 283.433 260.163 273.123 264.893 262.773C267.253 257.593 269.703 252.463 272.103 247.303C274.523 242.153 276.903 236.993 279.363 231.863L279.493 231.593C280.423 229.653 282.753 228.833 284.693 229.763C285.273 230.043 285.763 230.463 286.123 230.943L296.843 245.293L307.463 259.713L317.973 274.223L323.173 281.523L328.323 288.863C328.493 289.113 328.433 289.453 328.193 289.633C327.963 289.793 327.653 289.753 327.473 289.553L321.403 282.953L315.383 276.313L303.453 262.943L291.633 249.483L279.913 235.943L286.683 235.033C284.623 240.333 282.463 245.603 280.363 250.883C278.233 256.153 276.153 261.453 273.983 266.713C269.643 277.233 265.403 287.783 260.993 298.263C259.803 301.103 256.523 302.443 253.683 301.243C252.093 300.573 250.983 299.263 250.513 297.743L250.463 297.593L245.743 282.003C244.203 276.793 242.623 271.603 241.123 266.383C238.083 255.963 235.083 245.523 232.193 235.053L243.093 235.563L230.343 266.703C226.053 277.063 221.823 287.453 217.483 297.803L217.403 297.993C216.383 300.423 213.593 301.563 211.163 300.543C209.623 299.893 208.593 298.503 208.313 296.973C207.393 291.733 206.433 286.503 205.573 281.253C204.703 276.003 203.783 270.773 202.963 265.513L197.903 233.993L203.273 234.523C201.113 239.253 198.953 243.993 196.843 248.743C194.713 253.493 192.583 258.233 190.533 263.013C188.463 267.783 186.353 272.543 184.363 277.343L178.323 291.723C177.973 292.573 177.003 292.973 176.153 292.613C175.643 292.403 175.293 291.953 175.173 291.453C174.063 286.653 172.933 281.853 171.763 277.063C170.593 272.273 169.403 267.493 168.163 262.723C166.953 257.943 165.653 253.183 164.393 248.423L160.523 234.143L166.563 234.573L161.603 249.213C159.963 254.103 158.243 258.953 156.563 263.823C154.883 268.693 153.143 273.543 151.383 278.383C149.623 283.223 147.813 288.043 145.993 292.863C145.033 295.413 142.183 296.703 139.633 295.743C138.183 295.193 137.143 294.043 136.693 292.693L136.673 292.633C135.093 287.833 133.503 283.033 131.973 278.213L127.363 263.763C125.843 258.943 124.313 254.123 122.853 249.273L118.413 234.763L125.283 236.563C120.223 241.043 115.053 245.383 109.943 249.793C104.833 254.213 99.6529 258.543 94.4729 262.883C89.3229 267.253 84.0629 271.513 78.8529 275.813C73.6029 280.073 68.3329 284.323 62.9829 288.473C62.7429 288.663 62.3929 288.613 62.2129 288.373C62.0429 288.153 62.0629 287.853 62.2429 287.663V287.703Z" fill="#0E2980"/>
</svg>
