<svg width="477" height="421" viewBox="0 0 477 421" fill="none" xmlns="http://www.w3.org/2000/svg">
<path d="M36.0067 254.934C34.2867 243.354 17.8367 117.674 115.187 45.0639C195.537 -14.8661 287.967 10.1737 296.437 12.6337C372.217 34.5537 409.107 92.8039 417.587 107.074C427.057 123.014 454.757 174.474 445.247 242.534C442.657 261.104 429.857 334.114 364.157 379.904C294.507 428.454 216.927 410.464 183.857 402.794C155.617 396.244 104.957 384.504 69.3767 338.874C44.0467 306.384 38.5767 272.384 35.9867 254.924L36.0067 254.934Z" fill="#FCDB00"/>
<path d="M35.2667 255.044C34.2867 248.294 33.7467 241.524 33.4067 234.734C33.0267 227.944 32.9667 221.144 33.0467 214.344C33.0967 207.544 33.5267 200.744 34.0267 193.954L34.4867 188.864C34.6367 187.164 34.8767 185.484 35.0567 183.784C35.3967 180.394 35.9267 177.024 36.4067 173.634C36.6267 171.944 36.9767 170.264 37.2467 168.584C37.5467 166.904 37.7867 165.204 38.1367 163.534L39.1667 158.504L39.6867 155.994L40.2867 153.494L41.4767 148.494C41.8867 146.824 42.3767 145.184 42.8267 143.524C43.2967 141.874 43.7167 140.204 44.2367 138.564L45.8067 133.654C50.0967 120.584 55.5467 107.794 62.4367 95.734C69.3567 83.694 77.5167 72.274 86.9867 61.974C89.4067 59.454 91.8267 56.924 94.2867 54.444L102.007 47.3341C104.697 45.0941 107.427 42.914 110.147 40.704C111.477 39.564 112.947 38.6041 114.347 37.5541L118.597 34.474C141.657 18.544 168.337 7.8339 195.827 3.1439C202.697 1.9639 209.627 1.10389 216.557 0.633894C223.487 0.153894 230.437 -0.13593 237.367 0.06407C251.227 0.36407 265.017 1.80399 278.567 4.48399C281.957 5.14399 285.327 5.90399 288.687 6.73399C292.027 7.58399 295.417 8.45409 298.717 9.58409C305.287 11.6841 311.717 14.1939 318.037 16.8939C324.327 19.6839 330.507 22.704 336.517 26.014C342.527 29.334 348.347 32.9841 354.027 36.8241C376.677 52.2941 396.387 71.8339 412.317 94.1539C416.307 99.7339 419.977 105.554 423.357 111.534C426.757 117.504 429.897 123.624 432.737 129.884C438.357 142.434 442.967 155.474 446.257 168.894C449.567 182.304 451.577 196.074 452.217 209.954L452.407 215.164L452.497 217.774L452.447 220.384C452.357 223.854 452.317 227.344 452.177 230.824C451.537 237.754 451.097 244.724 449.897 251.604C447.697 265.374 444.037 278.874 439.267 291.984C434.487 305.094 428.397 317.774 421.117 329.774C413.777 341.734 405.227 353.024 395.437 363.194L391.727 366.974L387.877 370.614C386.607 371.844 385.277 372.994 383.937 374.154C382.597 375.304 381.297 376.504 379.917 377.604L375.787 380.924C374.427 382.054 372.967 383.044 371.557 384.114C368.757 386.264 365.787 388.194 362.867 390.184C356.927 394.004 350.837 397.654 344.467 400.744C341.327 402.374 338.057 403.764 334.827 405.214C333.207 405.914 331.547 406.544 329.907 407.204L327.437 408.184L324.937 409.074C318.297 411.544 311.457 413.414 304.587 415.064C297.717 416.714 290.747 417.904 283.757 418.754C255.747 422.174 227.477 419.714 200.497 413.884C193.747 412.434 187.077 410.754 180.507 409.084C173.927 407.374 167.247 405.614 160.647 403.514C147.417 399.454 134.457 394.124 122.187 387.544C109.937 380.934 98.4167 372.924 88.2267 363.514C85.7567 361.074 83.2367 358.704 80.8267 356.224C78.5267 353.634 76.1867 351.094 73.9467 348.484L67.5767 340.344L64.6367 336.104L63.1667 333.994L61.7967 331.814C54.4067 320.234 48.5467 307.764 44.2467 294.824C39.8667 281.894 37.1567 268.494 35.2667 255.064V255.044ZM36.7467 254.824C37.7767 261.514 38.9167 268.164 40.4767 274.734C42.0567 281.294 43.9567 287.774 46.3167 294.074C50.9667 306.704 57.2767 318.704 65.1367 329.524C72.8867 340.434 82.3167 350.044 92.6867 358.284C103.057 366.554 114.587 373.204 126.617 378.594C138.657 384.014 151.237 388.084 164.107 391.274C170.537 392.904 177.027 394.314 183.647 395.674C190.267 397.094 196.807 398.424 203.347 399.614C216.417 401.994 229.517 403.704 242.647 404.334C249.207 404.634 255.757 404.664 262.287 404.454C265.557 404.364 268.807 404.124 272.057 403.904C275.297 403.594 278.547 403.304 281.767 402.844C294.667 401.184 307.357 398.224 319.547 393.894L321.837 393.094L324.097 392.214C325.597 391.614 327.117 391.064 328.607 390.424C331.567 389.114 334.557 387.874 337.427 386.404C340.357 385.034 343.187 383.464 346.037 381.944C347.477 381.214 348.837 380.314 350.237 379.514C351.617 378.664 353.047 377.904 354.387 376.994C376.347 363.164 395.017 344.274 409.077 322.264C423.097 300.214 432.777 275.244 438.037 249.454C443.197 223.664 443.307 196.764 438.217 170.674C435.647 157.644 431.917 144.774 426.877 132.404C424.347 126.224 421.547 120.154 418.447 114.234C415.307 108.334 411.877 102.594 408.117 97.0541C400.647 85.9441 392.017 75.5839 382.497 66.1439C377.747 61.4139 372.747 56.934 367.547 52.704C362.367 48.454 356.937 44.5041 351.327 40.8441C345.727 37.1741 339.917 33.834 333.987 30.744C328.017 27.734 321.917 24.9941 315.697 22.5841C309.437 20.2641 303.117 18.154 296.677 16.444C290.357 14.704 283.767 13.5739 277.187 12.6539C264.007 10.8439 250.677 10.224 237.437 10.694C224.197 11.144 211.037 12.7139 198.167 15.4339C172.407 20.7939 147.857 30.964 126.057 45.474C104.247 59.994 85.1967 78.674 70.5667 100.734C63.2267 111.734 57.0267 123.574 51.9567 135.924C46.8967 148.284 42.8867 161.144 40.1067 174.314C37.3267 187.474 35.6267 200.904 35.0467 214.394C34.4867 227.874 34.8867 241.454 36.7267 254.814L36.7467 254.824Z" fill="#0E2980"/>
<path d="M102.637 159.704C106.267 151.714 115.177 132.114 136.127 125.364C156.057 118.934 180.297 126.254 193.657 144.254C211.597 168.424 199.127 197.304 197.087 201.784C195.327 205.664 183.807 231.604 157.587 236.124C129.277 241.014 101.347 217.914 96.6267 193.194C93.8967 178.934 99.4067 166.804 102.637 159.704Z" fill="white"/>
<path d="M102.317 159.564C105.257 152.994 108.577 146.534 112.907 140.634C115.057 137.684 117.497 134.894 120.227 132.384C121.547 131.074 123.057 129.974 124.517 128.794C126.077 127.774 127.587 126.604 129.277 125.764C132.557 123.874 136.147 122.514 139.817 121.494C143.507 120.544 147.317 120.054 151.127 119.984C154.937 120.004 158.757 120.284 162.467 121.164C164.347 121.504 166.147 122.114 167.967 122.654C168.867 122.954 169.747 123.314 170.637 123.654C171.517 123.994 172.407 124.334 173.247 124.774L175.797 126.024C176.637 126.464 177.437 126.974 178.247 127.454C179.897 128.364 181.407 129.524 182.947 130.604C185.897 132.954 188.727 135.444 191.107 138.334C196.017 143.974 199.637 150.614 201.797 157.654C203.947 164.704 204.637 172.124 204.117 179.424C203.587 186.734 202.077 193.964 199.527 200.924C196.937 207.844 193.387 214.454 188.757 220.374C188.167 221.104 187.557 221.814 186.947 222.544L186.027 223.614L185.037 224.624C184.377 225.294 183.717 225.984 183.037 226.644L180.897 228.534C180.537 228.844 180.187 229.174 179.817 229.474L178.667 230.334L176.357 232.044L173.907 233.554C173.087 234.054 172.277 234.584 171.397 234.974C169.657 235.804 167.957 236.734 166.107 237.324L163.377 238.324C162.447 238.584 161.497 238.804 160.557 239.034C156.807 240.054 152.907 240.414 149.027 240.424C141.247 240.424 133.577 238.454 126.667 235.154C119.757 231.834 113.547 227.204 108.387 221.624C105.817 218.834 103.527 215.784 101.587 212.524C99.6168 209.284 98.0568 205.804 96.8568 202.224C95.6768 198.634 94.9168 194.914 94.6468 191.174C94.3868 187.434 94.5968 183.714 95.2168 180.084C95.8568 176.464 96.8368 172.944 98.0568 169.524C99.2968 166.114 100.757 162.804 102.277 159.544L102.317 159.564ZM102.957 159.854C101.477 163.124 100.107 166.444 99.0768 169.864C98.0668 173.284 97.3668 176.794 97.1568 180.324C96.6268 187.384 98.2168 194.354 101.217 200.504C102.687 203.604 104.527 206.504 106.537 209.264L108.107 211.284L109.767 213.224C110.897 214.504 112.067 215.724 113.287 216.914C118.157 221.644 123.777 225.594 129.887 228.404C135.977 231.234 142.557 232.904 149.177 233.124C152.477 233.204 155.827 233.004 159.037 232.214C159.847 232.034 160.667 231.884 161.467 231.694L163.827 230.924C165.437 230.484 166.927 229.724 168.457 229.074C169.237 228.774 169.947 228.324 170.677 227.924L172.867 226.684L174.947 225.254L175.997 224.544C176.337 224.294 176.657 224.014 176.987 223.754L178.977 222.164C179.617 221.604 180.227 221.004 180.857 220.434L181.797 219.564L182.687 218.634C183.277 218.014 183.887 217.404 184.467 216.774C186.757 214.204 188.877 211.454 190.827 208.564C192.767 205.674 194.497 202.624 195.997 199.454C198.937 193.124 201.027 186.244 201.747 179.224C202.507 172.214 201.927 165.014 199.647 158.354C197.377 151.694 193.357 145.734 188.297 140.994C185.837 138.554 182.997 136.544 180.127 134.694C178.617 133.874 177.197 132.904 175.627 132.224C174.857 131.854 174.097 131.454 173.317 131.124C172.517 130.814 171.727 130.494 170.947 130.164C170.167 129.814 169.357 129.564 168.547 129.304C167.737 129.044 166.947 128.744 166.127 128.514C164.477 128.124 162.857 127.584 161.177 127.334C157.867 126.604 154.477 126.344 151.107 126.224C149.417 126.254 147.727 126.184 146.047 126.394C144.347 126.444 142.687 126.764 141.007 126.994C137.697 127.654 134.357 128.424 131.217 129.814C129.597 130.394 128.107 131.254 126.547 132.004C125.077 132.914 123.537 133.744 122.157 134.804C120.707 135.774 119.387 136.934 118.027 138.064C116.747 139.274 115.467 140.494 114.287 141.824C109.477 147.064 105.837 153.354 102.937 159.904L102.957 159.854Z" fill="#0E2980"/>
<path d="M284.687 159.704C288.317 151.714 297.227 132.114 318.177 125.364C338.107 118.934 362.347 126.254 375.707 144.254C393.647 168.424 381.177 197.304 379.137 201.784C377.377 205.664 365.857 231.604 339.637 236.124C311.327 241.014 283.397 217.914 278.677 193.194C275.947 178.934 281.457 166.804 284.687 159.704Z" fill="white"/>
<path d="M284.367 159.564C287.307 152.994 290.627 146.534 294.957 140.634C297.107 137.684 299.547 134.894 302.277 132.384C303.597 131.074 305.107 129.974 306.567 128.794C308.127 127.774 309.637 126.604 311.327 125.764C314.607 123.874 318.197 122.514 321.867 121.494C325.557 120.544 329.367 120.054 333.177 119.984C336.987 120.004 340.807 120.284 344.517 121.164C346.397 121.504 348.197 122.114 350.017 122.654C350.917 122.954 351.797 123.314 352.687 123.654C353.567 123.994 354.457 124.334 355.297 124.774L357.847 126.024C358.687 126.464 359.487 126.974 360.297 127.454C361.947 128.364 363.457 129.524 364.997 130.604C367.947 132.954 370.777 135.444 373.157 138.334C378.067 143.974 381.687 150.614 383.847 157.654C385.997 164.704 386.687 172.124 386.167 179.424C385.637 186.734 384.127 193.964 381.577 200.924C378.987 207.844 375.437 214.454 370.807 220.374C370.217 221.104 369.607 221.814 368.997 222.544L368.077 223.614L367.087 224.624C366.427 225.294 365.767 225.984 365.087 226.644L362.947 228.534C362.587 228.844 362.237 229.174 361.867 229.474L360.717 230.334L358.407 232.044L355.957 233.554C355.137 234.054 354.327 234.584 353.447 234.974C351.707 235.804 350.007 236.734 348.157 237.324L345.427 238.324C344.497 238.584 343.547 238.804 342.607 239.034C338.857 240.054 334.957 240.414 331.077 240.424C323.297 240.424 315.627 238.454 308.717 235.154C301.807 231.834 295.597 227.204 290.437 221.624C287.867 218.834 285.577 215.784 283.637 212.524C281.667 209.284 280.107 205.804 278.907 202.224C277.727 198.634 276.967 194.914 276.697 191.174C276.437 187.434 276.647 183.714 277.267 180.084C277.907 176.464 278.887 172.944 280.107 169.524C281.347 166.114 282.807 162.804 284.327 159.544L284.367 159.564ZM285.007 159.854C283.527 163.124 282.157 166.444 281.127 169.864C280.117 173.284 279.417 176.794 279.207 180.324C278.677 187.384 280.267 194.354 283.267 200.504C284.737 203.604 286.577 206.504 288.587 209.264L290.157 211.284L291.827 213.224C292.957 214.504 294.127 215.724 295.347 216.914C300.217 221.644 305.837 225.594 311.947 228.404C318.037 231.234 324.617 232.904 331.237 233.124C334.537 233.204 337.887 233.004 341.097 232.214C341.907 232.034 342.727 231.884 343.527 231.694L345.887 230.924C347.497 230.484 348.987 229.724 350.517 229.074C351.297 228.774 352.007 228.324 352.737 227.924L354.927 226.684L357.007 225.254L358.057 224.544C358.397 224.294 358.717 224.014 359.047 223.754L361.037 222.164C361.677 221.604 362.287 221.004 362.917 220.434L363.857 219.564L364.747 218.634C365.337 218.014 365.947 217.404 366.527 216.774C368.817 214.204 370.937 211.454 372.887 208.564C374.827 205.674 376.557 202.624 378.057 199.454C380.997 193.124 383.087 186.244 383.807 179.224C384.567 172.214 383.987 165.014 381.707 158.354C379.437 151.694 375.417 145.734 370.357 140.994C367.897 138.554 365.057 136.544 362.187 134.694C360.677 133.874 359.257 132.904 357.687 132.224C356.917 131.854 356.157 131.454 355.377 131.124C354.577 130.814 353.787 130.494 353.007 130.164C352.227 129.814 351.417 129.564 350.607 129.304C349.797 129.044 349.007 128.744 348.187 128.514C346.537 128.124 344.917 127.584 343.237 127.334C339.927 126.604 336.537 126.344 333.167 126.224C331.477 126.254 329.787 126.184 328.107 126.394C326.407 126.444 324.747 126.764 323.067 126.994C319.757 127.654 316.417 128.424 313.277 129.814C311.657 130.394 310.167 131.254 308.607 132.004C307.137 132.914 305.597 133.744 304.217 134.804C302.767 135.774 301.447 136.934 300.087 138.064C298.807 139.274 297.527 140.494 296.347 141.824C291.537 147.064 287.897 153.354 284.997 159.904L285.007 159.854Z" fill="#0E2980"/>
<path d="M123.227 144.944C125.267 140.464 130.257 129.464 142.017 125.674C153.197 122.064 166.797 126.174 174.287 136.274C184.347 149.834 177.357 166.034 176.217 168.544C175.227 170.724 168.767 185.274 154.057 187.814C138.167 190.554 122.507 177.594 119.857 163.724C118.327 155.724 121.417 148.924 123.227 144.934V144.944Z" fill="#0E2980"/>
<path d="M305.277 144.944C307.317 140.464 312.307 129.464 324.067 125.674C335.247 122.064 348.847 126.174 356.337 136.274C366.397 149.834 359.407 166.034 358.267 168.544C357.277 170.724 350.817 185.274 336.107 187.814C320.217 190.554 304.557 177.594 301.907 163.724C300.377 155.724 303.467 148.924 305.277 144.934V144.944Z" fill="#0E2980"/>
<path d="M0.00672072 301.284C-0.0532793 299.084 0.296721 297.184 0.726721 295.364C1.16672 293.544 1.79672 291.874 2.50672 290.264C3.23672 288.664 4.07672 287.164 5.02672 285.734C5.95672 284.294 7.05672 282.984 8.47672 281.914C11.2867 279.764 15.1667 278.444 17.5867 275.994C20.0667 273.584 21.5767 270.444 22.6067 266.914C23.1467 265.174 23.6467 263.394 24.3167 261.754C24.9667 260.104 25.8367 258.614 26.6767 257.094C28.3367 254.064 29.9867 251.014 32.2567 248.454C33.3867 247.164 34.6067 245.954 35.9267 244.814C37.2267 243.654 38.6067 242.564 40.0667 241.534C41.5267 240.504 43.0667 239.534 44.7267 238.654C46.3967 237.784 48.1467 236.974 50.1567 236.364C50.6167 236.224 51.0967 236.484 51.2267 236.944C51.2567 237.034 51.2667 237.134 51.2667 237.224C51.1867 239.324 50.8467 241.224 50.4267 243.054C49.9967 244.884 49.4467 246.624 48.8267 248.294C48.1967 249.964 47.4967 251.584 46.6967 253.134C45.9267 254.694 45.0567 256.194 44.0967 257.604C42.1967 260.454 39.6567 262.814 37.1467 265.194C35.8867 266.384 34.6667 267.604 33.2367 268.654C31.8167 269.714 30.2267 270.654 28.6767 271.614C25.5267 273.494 22.8567 275.764 21.1567 278.764C19.4067 281.724 19.0967 285.814 17.7267 289.074C17.0567 290.714 16.0667 292.114 14.9067 293.374C13.7567 294.644 12.5167 295.854 11.1567 296.954C9.77672 298.054 8.31672 299.074 6.66672 299.964C5.00672 300.844 3.26672 301.654 1.11672 302.154C0.626721 302.264 0.146721 301.964 0.0367207 301.484C0.0267207 301.424 0.0167207 301.364 0.0167207 301.304L0.00672072 301.284Z" fill="#0E2980"/>
<path d="M33.1167 301.284C33.0567 299.084 33.4067 297.184 33.8367 295.364C34.2767 293.544 34.9067 291.874 35.6167 290.264C36.3467 288.664 37.1867 287.164 38.1367 285.734C39.0667 284.294 40.1667 282.984 41.5867 281.914C44.3967 279.764 48.2767 278.444 50.6967 275.994C53.1767 273.584 54.6867 270.444 55.7167 266.914C56.2567 265.174 56.7567 263.394 57.4267 261.754C58.0767 260.104 58.9467 258.614 59.7867 257.094C61.4467 254.064 63.0967 251.014 65.3667 248.454C66.4967 247.164 67.7167 245.954 69.0367 244.814C70.3367 243.654 71.7167 242.564 73.1767 241.534C74.6367 240.504 76.1767 239.534 77.8367 238.654C79.5067 237.784 81.2567 236.974 83.2667 236.364C83.7267 236.224 84.2067 236.484 84.3367 236.944C84.3667 237.034 84.3767 237.134 84.3767 237.224C84.2967 239.324 83.9567 241.224 83.5367 243.054C83.1067 244.884 82.5567 246.624 81.9367 248.294C81.3067 249.964 80.6067 251.584 79.8067 253.134C79.0367 254.694 78.1667 256.194 77.2067 257.604C75.3067 260.454 72.7667 262.814 70.2567 265.194C68.9967 266.384 67.7767 267.604 66.3467 268.654C64.9267 269.714 63.3367 270.654 61.7867 271.614C58.6367 273.494 55.9667 275.764 54.2667 278.764C52.5167 281.724 52.2067 285.814 50.8467 289.074C50.1767 290.714 49.1867 292.114 48.0267 293.374C46.8767 294.644 45.6367 295.854 44.2767 296.954C42.8967 298.054 41.4367 299.074 39.7867 299.964C38.1267 300.844 36.3867 301.654 34.2367 302.154C33.7467 302.264 33.2667 301.964 33.1567 301.484C33.1467 301.424 33.1367 301.364 33.1367 301.304L33.1167 301.284Z" fill="#0E2980"/>
<path d="M65.0167 301.284C64.9567 299.084 65.3067 297.184 65.7367 295.364C66.1767 293.544 66.8067 291.874 67.5167 290.264C68.2467 288.664 69.0867 287.164 70.0367 285.734C70.9667 284.294 72.0667 282.984 73.4867 281.914C76.2967 279.764 80.1767 278.444 82.5967 275.994C85.0767 273.584 86.5867 270.444 87.6167 266.914C88.1567 265.174 88.6567 263.394 89.3267 261.754C89.9767 260.104 90.8467 258.614 91.6867 257.094C93.3467 254.064 94.9967 251.014 97.2667 248.454C98.3967 247.164 99.6167 245.954 100.937 244.814C102.237 243.654 103.617 242.564 105.077 241.534C106.537 240.504 108.077 239.534 109.737 238.654C111.407 237.784 113.157 236.974 115.167 236.364C115.627 236.224 116.107 236.484 116.237 236.944C116.267 237.034 116.277 237.134 116.277 237.224C116.197 239.324 115.857 241.224 115.437 243.054C115.007 244.884 114.457 246.624 113.837 248.294C113.207 249.964 112.507 251.584 111.707 253.134C110.937 254.694 110.067 256.194 109.107 257.604C107.207 260.454 104.667 262.814 102.157 265.194C100.897 266.384 99.6767 267.604 98.2467 268.654C96.8267 269.714 95.2367 270.654 93.6867 271.614C90.5367 273.494 87.8667 275.764 86.1667 278.764C84.4167 281.724 84.1067 285.814 82.7367 289.074C82.0667 290.714 81.0767 292.114 79.9167 293.374C78.7667 294.644 77.5267 295.854 76.1667 296.954C74.7867 298.054 73.3267 299.074 71.6767 299.964C70.0167 300.844 68.2767 301.654 66.1267 302.154C65.6367 302.264 65.1567 301.964 65.0467 301.484C65.0367 301.424 65.0267 301.364 65.0267 301.304L65.0167 301.284Z" fill="#0E2980"/>
<path d="M98.1167 301.284C98.0567 299.084 98.4067 297.184 98.8367 295.364C99.2767 293.544 99.9067 291.874 100.617 290.264C101.347 288.664 102.187 287.164 103.137 285.734C104.067 284.294 105.167 282.984 106.587 281.914C109.397 279.764 113.277 278.444 115.697 275.994C118.177 273.584 119.687 270.444 120.717 266.914C121.257 265.174 121.757 263.394 122.427 261.754C123.077 260.104 123.947 258.614 124.787 257.094C126.447 254.064 128.097 251.014 130.367 248.454C131.497 247.164 132.717 245.954 134.037 244.814C135.337 243.654 136.717 242.564 138.177 241.534C139.637 240.504 141.177 239.534 142.837 238.654C144.507 237.784 146.257 236.974 148.267 236.364C148.727 236.224 149.207 236.484 149.337 236.944C149.367 237.034 149.377 237.134 149.377 237.224C149.297 239.324 148.957 241.224 148.537 243.054C148.107 244.884 147.557 246.624 146.937 248.294C146.307 249.964 145.607 251.584 144.807 253.134C144.037 254.694 143.167 256.194 142.207 257.604C140.307 260.454 137.767 262.814 135.257 265.194C133.997 266.384 132.777 267.604 131.347 268.654C129.927 269.714 128.337 270.654 126.787 271.614C123.637 273.494 120.967 275.764 119.267 278.764C117.517 281.724 117.207 285.814 115.847 289.074C115.177 290.714 114.187 292.114 113.027 293.374C111.877 294.644 110.637 295.854 109.277 296.954C107.897 298.054 106.437 299.074 104.787 299.964C103.127 300.844 101.387 301.654 99.2367 302.154C98.7467 302.264 98.2667 301.964 98.1567 301.484C98.1467 301.424 98.1367 301.364 98.1367 301.304L98.1167 301.284Z" fill="#0E2980"/>
<path d="M326.767 301.284C326.707 299.084 327.057 297.184 327.487 295.364C327.927 293.544 328.557 291.874 329.267 290.264C329.997 288.664 330.837 287.164 331.787 285.734C332.717 284.294 333.817 282.984 335.237 281.914C338.047 279.764 341.927 278.444 344.347 275.994C346.827 273.584 348.337 270.444 349.367 266.914C349.907 265.174 350.407 263.394 351.077 261.754C351.727 260.104 352.597 258.614 353.437 257.094C355.097 254.064 356.747 251.014 359.017 248.454C360.147 247.164 361.367 245.954 362.687 244.814C363.987 243.654 365.367 242.564 366.827 241.534C368.287 240.504 369.827 239.534 371.487 238.654C373.157 237.784 374.907 236.974 376.917 236.364C377.377 236.224 377.857 236.484 377.987 236.944C378.017 237.034 378.027 237.134 378.027 237.224C377.947 239.324 377.607 241.224 377.187 243.054C376.757 244.884 376.207 246.624 375.587 248.294C374.957 249.964 374.257 251.584 373.457 253.134C372.687 254.694 371.817 256.194 370.857 257.604C368.957 260.454 366.417 262.814 363.907 265.194C362.647 266.384 361.427 267.604 359.997 268.654C358.577 269.714 356.987 270.654 355.437 271.614C352.287 273.494 349.617 275.764 347.917 278.764C346.167 281.724 345.857 285.814 344.487 289.074C343.817 290.714 342.827 292.114 341.667 293.374C340.517 294.644 339.277 295.854 337.917 296.954C336.537 298.054 335.077 299.074 333.427 299.964C331.767 300.844 330.027 301.654 327.877 302.154C327.387 302.264 326.907 301.964 326.797 301.484C326.787 301.424 326.777 301.364 326.777 301.304L326.767 301.284Z" fill="#0E2980"/>
<path d="M359.867 301.284C359.807 299.084 360.157 297.184 360.587 295.364C361.027 293.544 361.657 291.874 362.367 290.264C363.097 288.664 363.937 287.164 364.887 285.734C365.817 284.294 366.917 282.984 368.337 281.914C371.147 279.764 375.027 278.444 377.447 275.994C379.927 273.584 381.437 270.444 382.467 266.914C383.007 265.174 383.507 263.394 384.177 261.754C384.827 260.104 385.697 258.614 386.537 257.094C388.197 254.064 389.847 251.014 392.117 248.454C393.247 247.164 394.467 245.954 395.787 244.814C397.087 243.654 398.467 242.564 399.927 241.534C401.387 240.504 402.927 239.534 404.587 238.654C406.257 237.784 408.007 236.974 410.017 236.364C410.477 236.224 410.957 236.484 411.087 236.944C411.117 237.034 411.127 237.134 411.127 237.224C411.047 239.324 410.707 241.224 410.287 243.054C409.857 244.884 409.307 246.624 408.687 248.294C408.057 249.964 407.357 251.584 406.557 253.134C405.787 254.694 404.917 256.194 403.957 257.604C402.057 260.454 399.517 262.814 397.007 265.194C395.747 266.384 394.527 267.604 393.097 268.654C391.677 269.714 390.087 270.654 388.537 271.614C385.387 273.494 382.717 275.764 381.017 278.764C379.267 281.724 378.957 285.814 377.597 289.074C376.927 290.714 375.937 292.114 374.777 293.374C373.627 294.644 372.387 295.854 371.027 296.954C369.647 298.054 368.187 299.074 366.537 299.964C364.877 300.844 363.137 301.654 360.987 302.154C360.497 302.264 360.017 301.964 359.907 301.484C359.897 301.424 359.887 301.364 359.887 301.304L359.867 301.284Z" fill="#0E2980"/>
<path d="M391.767 301.284C391.707 299.084 392.057 297.184 392.487 295.364C392.927 293.544 393.557 291.874 394.267 290.264C394.997 288.664 395.837 287.164 396.787 285.734C397.717 284.294 398.817 282.984 400.237 281.914C403.047 279.764 406.927 278.444 409.347 275.994C411.827 273.584 413.337 270.444 414.367 266.914C414.907 265.174 415.407 263.394 416.077 261.754C416.727 260.104 417.597 258.614 418.437 257.094C420.097 254.064 421.747 251.014 424.017 248.454C425.147 247.164 426.367 245.954 427.687 244.814C428.987 243.654 430.367 242.564 431.827 241.534C433.287 240.504 434.827 239.534 436.487 238.654C438.157 237.784 439.907 236.974 441.917 236.364C442.377 236.224 442.857 236.484 442.987 236.944C443.017 237.034 443.027 237.134 443.027 237.224C442.947 239.324 442.607 241.224 442.187 243.054C441.757 244.884 441.207 246.624 440.587 248.294C439.957 249.964 439.257 251.584 438.457 253.134C437.687 254.694 436.817 256.194 435.857 257.604C433.957 260.454 431.417 262.814 428.907 265.194C427.647 266.384 426.427 267.604 424.997 268.654C423.577 269.714 421.987 270.654 420.437 271.614C417.287 273.494 414.617 275.764 412.917 278.764C411.167 281.724 410.857 285.814 409.487 289.074C408.817 290.714 407.827 292.114 406.667 293.374C405.517 294.644 404.277 295.854 402.917 296.954C401.537 298.054 400.077 299.074 398.427 299.964C396.767 300.844 395.027 301.654 392.877 302.154C392.387 302.264 391.907 301.964 391.797 301.484C391.787 301.424 391.777 301.364 391.777 301.304L391.767 301.284Z" fill="#0E2980"/>
<path d="M424.867 301.284C424.807 299.084 425.157 297.184 425.587 295.364C426.027 293.544 426.657 291.874 427.367 290.264C428.097 288.664 428.937 287.164 429.887 285.734C430.817 284.294 431.917 282.984 433.337 281.914C436.147 279.764 440.027 278.444 442.447 275.994C444.927 273.584 446.437 270.444 447.467 266.914C448.007 265.174 448.507 263.394 449.177 261.754C449.827 260.104 450.697 258.614 451.537 257.094C453.197 254.064 454.847 251.014 457.117 248.454C458.247 247.164 459.467 245.954 460.787 244.814C462.087 243.654 463.467 242.564 464.927 241.534C466.387 240.504 467.927 239.534 469.587 238.654C471.257 237.784 473.007 236.974 475.017 236.364C475.477 236.224 475.957 236.484 476.087 236.944C476.117 237.034 476.127 237.134 476.127 237.224C476.047 239.324 475.707 241.224 475.287 243.054C474.857 244.884 474.307 246.624 473.687 248.294C473.057 249.964 472.357 251.584 471.557 253.134C470.787 254.694 469.917 256.194 468.957 257.604C467.057 260.454 464.517 262.814 462.007 265.194C460.747 266.384 459.527 267.604 458.097 268.654C456.677 269.714 455.087 270.654 453.537 271.614C450.387 273.494 447.717 275.764 446.017 278.764C444.267 281.724 443.957 285.814 442.597 289.074C441.927 290.714 440.937 292.114 439.777 293.374C438.627 294.644 437.387 295.854 436.027 296.954C434.647 298.054 433.187 299.074 431.537 299.964C429.877 300.844 428.137 301.654 425.987 302.154C425.497 302.264 425.017 301.964 424.907 301.484C424.897 301.424 424.887 301.364 424.887 301.304L424.867 301.284Z" fill="#0E2980"/>
<path d="M186.707 292.484C189.027 291.094 191.337 290.204 193.657 289.434C195.977 288.674 198.287 288.144 200.607 287.724C202.927 287.324 205.237 287.074 207.557 286.944C209.877 286.794 212.187 286.874 214.507 287.344C219.137 288.264 223.777 290.514 228.407 290.934C233.037 291.414 237.677 290.694 242.307 289.354C244.627 288.714 246.937 288.024 249.257 287.554C251.577 287.064 253.887 286.834 256.207 286.574C260.837 286.034 265.477 285.474 270.107 285.714C272.427 285.814 274.737 286.044 277.057 286.394C279.377 286.714 281.687 287.144 284.007 287.664C286.327 288.194 288.637 288.814 290.957 289.594C293.277 290.384 295.587 291.274 297.907 292.494C298.297 292.694 298.437 293.174 298.237 293.564C298.157 293.714 298.047 293.824 297.907 293.894C295.587 295.114 293.277 296.004 290.957 296.794C288.637 297.574 286.327 298.204 284.007 298.724C281.687 299.254 279.377 299.684 277.057 299.994C274.737 300.334 272.427 300.564 270.107 300.674C265.477 300.914 260.837 300.344 256.207 299.814C253.887 299.544 251.577 299.324 249.257 298.834C246.937 298.364 244.627 297.674 242.307 297.034C237.677 295.694 233.037 294.974 228.407 295.454C223.777 295.874 219.137 298.134 214.507 299.044C212.187 299.514 209.877 299.584 207.557 299.444C205.237 299.314 202.927 299.064 200.607 298.664C198.287 298.244 195.977 297.714 193.657 296.954C191.337 296.184 189.027 295.294 186.707 293.904C186.317 293.674 186.197 293.174 186.427 292.784C186.497 292.664 186.597 292.574 186.707 292.504V292.484Z" fill="#0E2980"/>
<path d="M102.427 108.394C104.517 107.024 106.617 106.054 108.697 105.134C110.787 104.234 112.877 103.484 114.967 102.804C117.057 102.134 119.147 101.544 121.257 101.024C123.357 100.504 125.477 100.104 127.687 100.024C132.067 99.8139 136.777 100.524 141.107 99.6138C145.437 98.7438 149.477 96.8339 153.187 94.2739C155.057 93.0139 156.887 91.7239 158.757 90.5439C160.617 89.3639 162.537 88.3539 164.427 87.2839C168.207 85.1439 171.887 82.884 175.797 81.084C177.757 80.184 179.737 79.3339 181.767 78.5339C183.787 77.7239 185.827 76.9439 187.917 76.2139C192.107 74.7539 196.377 73.3539 201.147 72.4939C201.497 72.4339 201.827 72.6639 201.887 73.0039C201.917 73.1639 201.887 73.3238 201.807 73.4438C200.547 75.5338 199.087 77.4038 197.547 79.1538C196.007 80.9138 194.357 82.544 192.637 84.084C190.917 85.614 189.127 87.0738 187.257 88.4038C185.407 89.7638 183.487 91.0138 181.487 92.1238C177.507 94.3838 173.167 95.934 168.827 97.344C166.657 98.054 164.487 98.7639 162.227 99.2239C161.107 99.4739 159.957 99.654 158.807 99.804C157.657 99.974 156.517 100.124 155.357 100.244C153.057 100.524 150.787 100.794 148.587 101.284C146.387 101.774 144.237 102.374 142.147 103.194C137.967 104.794 134.087 107.744 129.807 109.474C127.677 110.364 125.457 110.884 123.207 111.194C120.957 111.524 118.677 111.704 116.387 111.734C114.097 111.774 111.797 111.644 109.477 111.304C107.167 110.954 104.847 110.464 102.527 109.534C102.187 109.404 102.027 109.024 102.167 108.684C102.217 108.554 102.307 108.454 102.417 108.384L102.427 108.394Z" fill="#0E2980"/>
<path d="M378.597 109.554C376.277 110.484 373.957 110.974 371.647 111.324C369.337 111.654 367.027 111.784 364.737 111.754C362.447 111.724 360.167 111.554 357.917 111.214C355.667 110.904 353.447 110.384 351.317 109.494C347.037 107.764 343.157 104.814 338.977 103.214C336.887 102.394 334.737 101.794 332.537 101.304C330.347 100.814 328.067 100.544 325.767 100.264C324.617 100.144 323.467 99.9939 322.317 99.8239C321.167 99.6739 320.017 99.4938 318.897 99.2438C316.637 98.7838 314.467 98.0737 312.297 97.3637C307.947 95.9437 303.617 94.4037 299.637 92.1437C297.647 91.0237 295.717 89.7738 293.867 88.4238C291.997 87.0938 290.217 85.6439 288.487 84.1039C286.767 82.5639 285.117 80.9338 283.577 79.1738C282.027 77.4138 280.577 75.5438 279.317 73.4638C279.137 73.1638 279.227 72.7739 279.527 72.5839C279.667 72.5039 279.827 72.4738 279.967 72.5038C284.737 73.3638 289.007 74.7638 293.197 76.2238C295.287 76.9538 297.337 77.7339 299.347 78.5439C301.367 79.3439 303.357 80.1939 305.317 81.0939C309.227 82.8939 312.907 85.1639 316.687 87.2939C318.577 88.3639 320.497 89.3739 322.357 90.5539C324.217 91.7339 326.057 93.0239 327.927 94.2839C331.647 96.8439 335.687 98.7537 340.007 99.6237C344.337 100.534 349.047 99.8239 353.427 100.034C355.627 100.114 357.747 100.514 359.857 101.034C361.957 101.544 364.057 102.144 366.147 102.814C368.237 103.494 370.327 104.244 372.417 105.144C374.507 106.064 376.597 107.034 378.687 108.404C378.987 108.604 379.077 109.014 378.877 109.314C378.797 109.434 378.697 109.514 378.577 109.564L378.597 109.554Z" fill="#0E2980"/>
<path d="M118.147 184.114C119.457 181.224 122.677 174.144 130.247 171.704C137.447 169.384 146.207 172.024 151.037 178.534C157.517 187.264 153.017 197.704 152.277 199.324C151.637 200.724 147.477 210.104 138.007 211.734C127.777 213.504 117.687 205.154 115.977 196.214C114.997 191.064 116.987 186.674 118.147 184.114Z" fill="white"/>
<path d="M159.207 141.864C159.507 141.204 160.237 139.594 161.967 139.034C163.607 138.504 165.607 139.104 166.707 140.584C168.187 142.574 167.157 144.954 166.987 145.324C166.837 145.644 165.897 147.774 163.737 148.154C161.407 148.554 159.107 146.654 158.717 144.624C158.497 143.454 158.947 142.454 159.207 141.864Z" fill="white"/>
<path d="M365.767 184.114C364.457 181.224 361.237 174.144 353.667 171.704C346.467 169.384 337.707 172.024 332.877 178.534C326.397 187.264 330.897 197.704 331.637 199.324C332.277 200.724 336.437 210.104 345.907 211.734C356.137 213.504 366.227 205.154 367.937 196.214C368.917 191.064 366.927 186.674 365.767 184.114Z" fill="white"/>
<path d="M324.707 141.864C324.407 141.204 323.677 139.594 321.947 139.034C320.307 138.504 318.307 139.104 317.207 140.584C315.727 142.574 316.757 144.954 316.927 145.324C317.077 145.644 318.017 147.774 320.177 148.154C322.507 148.554 324.807 146.654 325.197 144.624C325.417 143.454 324.967 142.454 324.707 141.864Z" fill="white"/>
</svg>
