<svg width="423" height="421" viewBox="0 0 423 421" fill="none" xmlns="http://www.w3.org/2000/svg">
<path d="M1.82819 206.49C3.03819 188.76 10.2783 82.68 99.7682 30.96C177.058 -13.71 258.068 15.49 272.748 20.78C287.078 25.94 368.188 56.8701 402.488 145.43C408.768 161.65 439.178 246.14 391.038 323.5C334.578 414.23 221.098 413.16 201.518 412.54C189.318 412.15 72.7083 406.61 22.1783 315.87C-2.60172 271.37 0.378186 227.7 1.82819 206.48V206.49Z" fill="#FCDB00"/>
<path d="M1.07823 206.44C1.50823 199.65 2.18827 192.87 3.11827 186.13C3.99827 179.38 5.1883 172.67 6.5283 165.99C9.2383 152.63 12.8983 139.45 17.5583 126.58L18.4283 124.16L19.3683 121.77L21.2483 116.98C22.6183 113.84 23.8883 110.64 25.3883 107.55C28.1983 101.27 31.4983 95.22 34.8983 89.21C41.9283 77.33 50.1483 66.0499 59.6383 55.8199C69.1683 45.6399 79.9582 36.53 91.7082 28.88C103.448 21.21 116.118 14.85 129.438 10.26C131.108 9.70001 132.768 9.09995 134.438 8.56995L139.498 7.06995C141.178 6.53995 142.888 6.12995 144.598 5.69995C146.308 5.27995 148.008 4.81997 149.728 4.46997C156.598 2.96997 163.548 1.83995 170.528 1.06995C177.518 0.379946 184.518 0 191.528 0C198.528 0 205.518 0.409985 212.458 1.10999C240.228 4.01999 267.238 11.92 292.028 24.34C316.688 36.84 339.138 53.32 358.278 73.01C377.448 92.67 392.908 115.91 403.528 141.27C406.288 147.57 408.548 154.08 410.618 160.63C412.688 167.18 414.498 173.82 416.018 180.53C419.008 193.95 421.128 207.63 421.748 221.47C422.078 228.38 422.158 235.32 421.768 242.26C421.418 249.2 420.768 256.14 419.638 263.03C417.578 276.84 413.668 290.41 408.368 303.41C397.588 329.35 380.438 352.75 358.778 370.94C347.918 379.98 336.038 387.75 323.538 394.25C321.998 395.1 320.388 395.82 318.808 396.6C317.218 397.35 315.638 398.14 314.038 398.87L309.198 400.97L306.778 402.01L304.328 402.97L299.418 404.89L294.458 406.64L291.978 407.51L289.468 408.3L284.448 409.88C277.718 411.83 270.938 413.61 264.088 415.02C257.238 416.42 250.338 417.58 243.418 418.49C229.548 420.24 215.598 421.02 201.528 420.57C194.368 420.29 187.448 419.6 180.498 418.7C173.568 417.8 166.698 416.6 159.868 415.16C146.218 412.3 132.758 408.48 119.708 403.47C106.638 398.53 94.0283 392.27 82.1383 384.86C80.6283 383.97 79.1883 382.97 77.7383 382L73.3783 379.07L69.1583 375.94C67.7583 374.89 66.3383 373.87 64.9983 372.73C62.2983 370.49 59.5383 368.34 56.9883 365.94L53.0982 362.42L49.3883 358.71C39.5583 348.76 30.9783 337.64 23.9883 325.65C17.0083 313.66 11.5982 300.84 7.71824 287.66C7.24824 286.01 6.70832 284.38 6.29832 282.71L5.08824 277.71C4.89824 276.87 4.66826 276.05 4.48826 275.21L3.98826 272.69L2.98826 267.65L2.21824 262.57L1.82823 260.04L1.5283 257.49L0.948222 252.4L0.54832 247.29C-0.44168 233.67 0.0183299 220 1.05833 206.46L1.07823 206.44ZM2.57823 206.54C2.13823 213.31 1.78829 220.07 1.76829 226.84C1.76829 233.6 2.08829 240.36 2.76829 247.08C3.39829 253.8 4.56822 260.46 5.94822 267.04C7.50822 273.59 9.22823 280.1 11.5782 286.39C12.1582 287.96 12.6683 289.56 13.3183 291.11L15.2783 295.74L16.2583 298.05C16.5983 298.82 16.9882 299.56 17.3482 300.31L19.5583 304.81C20.2583 306.32 21.1282 307.76 21.9482 309.21L24.4183 313.56C26.1383 316.41 28.0183 319.17 29.8083 321.97C37.3283 332.95 46.3283 342.78 56.2483 351.45L59.9783 354.69L63.8683 357.74C66.4083 359.83 69.1582 361.66 71.8282 363.58C73.1482 364.56 74.5583 365.42 75.9383 366.31L80.0782 368.99L84.3282 371.49C85.7482 372.33 87.1483 373.18 88.6183 373.93L92.9582 376.26C94.3882 377.06 95.8983 377.73 97.3683 378.48C98.8483 379.19 100.298 379.96 101.808 380.63L106.318 382.64C107.808 383.34 109.338 383.95 110.858 384.58C112.388 385.2 113.898 385.85 115.428 386.44C118.518 387.58 121.578 388.79 124.708 389.83C130.908 392.05 137.258 393.87 143.618 395.61C149.988 397.35 156.438 398.76 162.928 400.01C169.418 401.24 175.948 402.25 182.488 403.04C189.018 403.82 195.628 404.39 202.038 404.57C215.108 404.9 228.348 404.14 241.418 402.53C247.958 401.72 254.468 400.66 260.918 399.39C267.368 398.1 273.768 396.57 280.108 394.84L284.828 393.44L287.188 392.74L289.518 391.96L294.188 390.4L298.788 388.68L301.088 387.82L303.358 386.89L307.898 385.01C309.398 384.36 310.868 383.65 312.358 382.98C313.838 382.29 315.348 381.64 316.788 380.87C328.488 375.06 339.618 368.14 349.798 360.01C370.078 343.67 386.358 322.43 397.348 298.63C398.628 295.61 400.058 292.66 401.168 289.57L402.918 284.97L404.478 280.3C404.728 279.52 405.018 278.75 405.258 277.96L405.948 275.59C406.398 274.01 406.888 272.44 407.318 270.85C408.088 267.65 408.968 264.47 409.578 261.22C410.978 254.77 411.918 248.2 412.578 241.61C413.278 235.01 413.538 228.36 413.548 221.7C413.548 215.04 413.238 208.37 412.598 201.72C411.978 195.07 411.038 188.43 409.798 181.85C408.568 175.27 407.058 168.72 405.268 162.26C403.398 155.82 401.358 149.43 398.818 143.22C389.078 118.23 373.948 95.3199 354.848 76.4399C345.338 66.9699 334.838 58.51 323.708 51.04C312.528 43.65 300.768 37.16 288.528 31.86C282.398 29.21 276.218 26.8299 269.878 24.8099C263.538 22.7399 257.148 20.96 250.668 19.46C244.198 17.97 237.688 16.66 231.138 15.7C224.588 14.71 217.998 14.06 211.418 13.6C185.088 11.8 158.568 14.57 133.748 22.87C130.618 23.84 127.588 25.06 124.508 26.16C122.988 26.75 121.488 27.42 119.978 28.04C118.468 28.68 116.948 29.28 115.478 30.01C112.508 31.39 109.518 32.7299 106.648 34.3099C105.198 35.0799 103.728 35.8 102.298 36.61L98.0483 39.08C86.7583 45.75 76.0383 53.52 66.4183 62.59C56.7783 71.63 48.0782 81.77 40.4582 92.75C32.9582 103.8 26.3583 115.58 21.1083 127.99C10.4983 152.77 4.32824 179.55 2.58824 206.56L2.57823 206.54Z" fill="#0E2980"/>
<path d="M103.728 145.47C105.538 141.48 109.988 131.7 120.438 128.33C130.388 125.12 142.488 128.77 149.148 137.76C158.098 149.82 151.878 164.24 150.858 166.47C149.978 168.41 144.228 181.35 131.148 183.61C117.018 186.05 103.078 174.52 100.718 162.18C99.3582 155.06 102.108 149.01 103.718 145.47H103.728Z" fill="#0E2980"/>
<path d="M127.318 184.44C114.178 184.44 102.358 173.35 100.238 162.28C98.8483 155.01 101.618 148.91 103.278 145.27L103.738 145.48L103.288 145.27C105.188 141.09 109.638 131.3 120.308 127.86C130.658 124.52 142.968 128.56 149.578 137.47C158.238 149.14 153.118 162.78 151.348 166.69C149.258 171.29 143.188 182.06 131.268 184.12C129.958 184.35 128.638 184.46 127.348 184.46L127.318 184.44ZM127.848 127.68C125.388 127.68 122.938 128.04 120.598 128.8C110.348 132.1 106.028 141.61 104.188 145.67C102.578 149.21 99.8983 155.12 101.228 162.08C103.268 172.75 114.658 183.43 127.308 183.43C128.558 183.43 129.818 183.33 131.088 183.11C142.538 181.13 148.408 170.71 150.408 166.32C152.158 162.48 157.108 149.27 148.778 138.05C143.918 131.5 135.848 127.68 127.868 127.68H127.848Z" fill="#0E2980"/>
<path d="M268.088 145.47C269.898 141.48 274.348 131.7 284.798 128.33C294.748 125.12 306.848 128.77 313.508 137.76C322.458 149.82 316.238 164.24 315.218 166.47C314.338 168.41 308.588 181.35 295.508 183.61C281.378 186.05 267.438 174.52 265.078 162.18C263.718 155.06 266.468 149.01 268.078 145.47H268.088Z" fill="#0E2980"/>
<path d="M291.668 184.44C278.528 184.44 266.708 173.35 264.588 162.28C263.198 155.01 265.968 148.91 267.628 145.27C269.528 141.09 273.978 131.3 284.648 127.86C294.998 124.52 307.308 128.56 313.918 137.47C322.578 149.13 317.458 162.78 315.688 166.69C313.598 171.29 307.528 182.06 295.608 184.12C294.298 184.35 292.978 184.46 291.688 184.46L291.668 184.44ZM292.198 127.68C289.738 127.68 287.288 128.04 284.948 128.8C274.698 132.1 270.378 141.61 268.538 145.67C266.928 149.21 264.248 155.12 265.578 162.08C267.618 172.75 279.008 183.43 291.658 183.43C292.908 183.43 294.168 183.33 295.438 183.11C306.888 181.13 312.758 170.71 314.758 166.32C316.508 162.48 321.458 149.27 313.128 138.05C308.268 131.5 300.198 127.68 292.218 127.68H292.198Z" fill="#0E2980"/>
<path d="M209.318 296.03C283.7 296.03 343.998 284.519 343.998 270.32C343.998 256.121 283.7 244.61 209.318 244.61C134.937 244.61 74.6382 256.121 74.6382 270.32C74.6382 284.519 134.937 296.03 209.318 296.03Z" fill="white"/>
<path d="M344.528 270.32C344.528 271.97 343.768 273.48 342.788 274.67C341.798 275.87 340.618 276.83 339.388 277.7C336.928 279.43 334.228 280.73 331.518 281.92C326.058 284.27 320.408 286.05 314.728 287.73C303.328 290.95 291.748 293.58 280.068 295.63C256.698 299.78 232.948 301.17 209.318 300.49C203.408 300.3 197.498 300 191.598 299.6C185.698 299.17 179.808 298.68 173.928 298.09C162.168 296.93 150.448 295.5 138.758 293.96C127.068 292.38 115.388 290.69 103.798 288.16C100.898 287.53 98.0082 286.84 95.1282 286.04C92.2482 285.26 89.3682 284.41 86.5182 283.35C83.6782 282.28 80.8482 281.07 78.0882 279.35C76.7182 278.47 75.3582 277.45 74.1282 276.06C73.5282 275.34 72.9282 274.56 72.4882 273.58C72.0482 272.61 71.7382 271.49 71.7082 270.32C71.6882 269.15 71.9282 268 72.3282 266.99C72.7182 265.96 73.2782 265.13 73.8582 264.35C75.0382 262.84 76.3582 261.7 77.6982 260.7C80.3882 258.73 83.1882 257.29 86.0082 256.01C91.6482 253.46 97.4282 251.64 103.228 250.07C114.838 246.95 126.598 244.97 138.378 243.37C150.158 241.77 161.968 240.68 173.798 239.92C185.628 239.12 197.478 238.85 209.318 238.9C221.158 239 233.008 239.43 244.818 240.33C256.638 241.23 268.408 242.78 280.088 244.87C291.768 246.97 303.348 249.6 314.748 252.83C320.428 254.52 326.088 256.3 331.548 258.67C334.268 259.87 336.958 261.18 339.418 262.92C340.638 263.79 341.828 264.76 342.808 265.97C343.778 267.16 344.528 268.68 344.528 270.33V270.32ZM343.458 270.32C343.438 269 342.818 267.74 341.928 266.68C341.028 265.62 339.918 264.71 338.728 263.92C336.318 262.36 333.678 261.14 330.958 260.12C325.508 258.1 319.818 256.71 314.078 255.66C311.208 255.13 308.328 254.66 305.438 254.25C302.538 253.87 299.638 253.53 296.738 253.23C290.928 252.63 285.098 252.24 279.268 251.91C267.608 251.26 255.938 250.97 244.288 250.66C232.638 250.35 220.978 250.22 209.318 250.31C186.018 250.5 162.688 251.12 139.548 253.4C127.998 254.57 116.478 256.13 105.208 258.41C102.398 258.98 99.5982 259.61 96.8482 260.34C94.0982 261.05 91.3682 261.83 88.7482 262.77C86.1282 263.7 83.5883 264.79 81.4183 266.12C80.3383 266.78 79.3783 267.53 78.6683 268.28C77.9583 269.05 77.6383 269.73 77.5683 270.32C77.5183 270.9 77.7483 271.7 78.3983 272.58C79.0483 273.45 79.9782 274.32 81.0182 275.1C83.1282 276.68 85.6382 278 88.2382 279.15C90.8282 280.31 93.5383 281.31 96.2783 282.23C99.0283 283.12 101.828 283.91 104.638 284.64C115.928 287.51 127.518 289.35 139.158 290.54C162.478 292.92 185.988 292.25 209.318 291.58C220.998 291.23 232.658 290.86 244.308 290.42C255.958 289.95 267.618 289.58 279.278 288.88C285.108 288.53 290.938 288.12 296.748 287.52C299.658 287.22 302.558 286.88 305.448 286.49C308.338 286.08 311.218 285.61 314.088 285.07C319.828 284.02 325.518 282.62 330.968 280.58C333.688 279.56 336.338 278.32 338.738 276.76C339.928 275.96 341.028 275.04 341.928 273.98C342.818 272.91 343.428 271.65 343.448 270.33L343.458 270.32Z" fill="#0E2980"/>
<path d="M113.288 251.96C114.238 253.5 114.688 255.04 114.988 256.58C115.128 257.35 115.228 258.12 115.268 258.89C115.328 259.66 115.288 260.43 115.128 261.2C114.808 262.74 113.998 264.28 113.848 265.82C113.678 267.36 113.928 268.9 114.408 270.44C114.908 271.98 115.268 273.52 115.398 275.06C115.588 276.6 115.788 278.14 115.708 279.68C115.618 281.22 115.388 282.76 115.018 284.3C114.628 285.84 114.138 287.38 113.288 288.92C113.208 289.06 113.038 289.11 112.898 289.03C112.848 289 112.808 288.96 112.788 288.92C111.948 287.38 111.448 285.84 111.058 284.3C110.678 282.76 110.448 281.22 110.368 279.68C110.288 278.14 110.488 276.6 110.678 275.06C110.808 273.52 111.178 271.98 111.668 270.44C112.148 268.9 112.398 267.36 112.228 265.82C112.078 264.28 111.268 262.74 110.948 261.2C110.788 260.43 110.748 259.66 110.808 258.89C110.848 258.12 110.938 257.35 111.088 256.58C111.388 255.04 111.838 253.5 112.788 251.96C112.868 251.82 113.058 251.78 113.188 251.86C113.228 251.88 113.258 251.92 113.288 251.96Z" fill="#0E2980"/>
<path d="M145.108 247.74C146.058 249.62 146.509 251.5 146.809 253.39C146.949 254.33 147.048 255.27 147.088 256.21C147.148 257.15 147.108 258.09 146.948 259.03C146.628 260.91 145.818 262.79 145.668 264.68C145.488 266.56 145.758 268.44 146.228 270.33C146.728 272.21 147.088 274.09 147.218 275.98C147.408 277.86 147.608 279.74 147.528 281.63C147.438 283.51 147.208 285.39 146.838 287.28C146.428 289.16 145.968 291.04 145.108 292.93C145.048 293.07 144.878 293.13 144.748 293.07C144.688 293.04 144.638 292.99 144.608 292.93C143.748 291.05 143.288 289.17 142.878 287.28C142.498 285.4 142.269 283.52 142.189 281.63C142.109 279.75 142.308 277.87 142.498 275.98C142.628 274.1 142.998 272.22 143.488 270.33C143.958 268.45 144.228 266.57 144.048 264.68C143.898 262.8 143.088 260.92 142.768 259.03C142.608 258.09 142.568 257.15 142.628 256.21C142.668 255.27 142.758 254.33 142.908 253.39C143.208 251.51 143.658 249.63 144.608 247.74C144.678 247.6 144.848 247.55 144.988 247.62C145.048 247.65 145.088 247.69 145.108 247.74Z" fill="#0E2980"/>
<path d="M178.538 245.53C179.488 247.61 179.938 249.68 180.238 251.76C180.378 252.8 180.478 253.84 180.518 254.87C180.578 255.91 180.538 256.95 180.378 257.98C180.058 260.06 179.248 262.13 179.098 264.21C178.918 266.29 179.188 268.36 179.658 270.44C180.158 272.52 180.518 274.59 180.648 276.67C180.838 278.75 181.038 280.82 180.958 282.9C180.868 284.98 180.638 287.05 180.268 289.13C179.858 291.21 179.398 293.28 178.538 295.36C178.478 295.5 178.318 295.56 178.188 295.51C178.118 295.48 178.068 295.43 178.038 295.36C177.178 293.28 176.718 291.21 176.308 289.13C175.928 287.05 175.698 284.98 175.618 282.9C175.538 280.82 175.738 278.75 175.928 276.67C176.058 274.59 176.428 272.52 176.918 270.44C177.388 268.36 177.658 266.29 177.478 264.21C177.328 262.13 176.518 260.06 176.198 257.98C176.038 256.94 175.998 255.9 176.058 254.87C176.098 253.83 176.188 252.79 176.338 251.76C176.638 249.68 177.088 247.61 178.038 245.53C178.098 245.39 178.268 245.33 178.398 245.39C178.458 245.42 178.508 245.47 178.538 245.53Z" fill="#0E2980"/>
<path d="M210.358 244.61C211.308 246.75 211.759 248.9 212.059 251.04C212.199 252.11 212.298 253.18 212.338 254.25C212.398 255.32 212.358 256.39 212.198 257.46C211.878 259.6 211.068 261.75 210.918 263.89C210.738 266.03 211.008 268.18 211.478 270.32C211.978 272.46 212.338 274.61 212.468 276.75C212.658 278.89 212.858 281.04 212.778 283.18C212.688 285.32 212.458 287.47 212.088 289.61C211.678 291.75 211.218 293.9 210.358 296.04C210.298 296.18 210.148 296.25 210.008 296.19C209.938 296.16 209.888 296.11 209.858 296.04C208.998 293.9 208.538 291.75 208.128 289.61C207.748 287.47 207.519 285.32 207.439 283.18C207.359 281.04 207.558 278.89 207.748 276.75C207.878 274.61 208.248 272.46 208.738 270.32C209.208 268.18 209.478 266.03 209.298 263.89C209.148 261.75 208.338 259.6 208.018 257.46C207.858 256.39 207.818 255.32 207.878 254.25C207.918 253.18 208.008 252.11 208.158 251.04C208.458 248.9 208.908 246.75 209.858 244.61C209.918 244.47 210.078 244.41 210.218 244.47C210.278 244.5 210.328 244.55 210.358 244.61Z" fill="#0E2980"/>
<path d="M245.398 245.53C246.348 247.59 246.798 249.65 247.098 251.72C247.238 252.75 247.338 253.78 247.378 254.81C247.438 255.84 247.398 256.87 247.238 257.9C246.918 259.96 246.108 262.02 245.958 264.09C245.778 266.15 246.048 268.21 246.518 270.28C247.018 272.34 247.378 274.4 247.508 276.47C247.698 278.53 247.898 280.59 247.818 282.66C247.728 284.72 247.498 286.78 247.128 288.85C246.718 290.91 246.258 292.97 245.398 295.04C245.338 295.18 245.178 295.24 245.048 295.19C244.978 295.16 244.928 295.11 244.898 295.04C244.038 292.98 243.578 290.92 243.168 288.85C242.788 286.79 242.558 284.73 242.478 282.66C242.398 280.6 242.598 278.54 242.788 276.47C242.918 274.41 243.288 272.35 243.778 270.28C244.248 268.22 244.518 266.16 244.338 264.09C244.188 262.03 243.378 259.97 243.058 257.9C242.898 256.87 242.858 255.84 242.918 254.81C242.958 253.78 243.048 252.75 243.198 251.72C243.498 249.66 243.948 247.6 244.898 245.53C244.958 245.39 245.128 245.33 245.268 245.39C245.328 245.42 245.378 245.47 245.398 245.53Z" fill="#0E2980"/>
<path d="M277.218 247.74C278.168 249.62 278.618 251.5 278.918 253.39C279.058 254.33 279.158 255.27 279.198 256.21C279.258 257.15 279.218 258.09 279.058 259.03C278.738 260.91 277.928 262.79 277.778 264.68C277.598 266.56 277.868 268.44 278.338 270.33C278.838 272.21 279.198 274.09 279.328 275.98C279.518 277.86 279.718 279.74 279.638 281.63C279.548 283.51 279.318 285.39 278.948 287.28C278.538 289.16 278.078 291.04 277.218 292.93C277.158 293.07 276.988 293.13 276.858 293.07C276.798 293.04 276.748 292.99 276.718 292.93C275.858 291.05 275.398 289.17 274.988 287.28C274.608 285.4 274.378 283.52 274.298 281.63C274.218 279.75 274.418 277.87 274.608 275.98C274.738 274.1 275.108 272.22 275.598 270.33C276.068 268.45 276.338 266.57 276.158 264.68C276.008 262.8 275.198 260.92 274.878 259.03C274.718 258.09 274.678 257.15 274.738 256.21C274.778 255.27 274.868 254.33 275.018 253.39C275.318 251.51 275.768 249.63 276.718 247.74C276.788 247.6 276.958 247.55 277.098 247.62C277.158 247.65 277.198 247.69 277.218 247.74Z" fill="#0E2980"/>
<path d="M308.819 251.96C309.769 253.5 310.218 255.04 310.518 256.58C310.658 257.35 310.758 258.12 310.798 258.89C310.858 259.66 310.818 260.43 310.658 261.2C310.338 262.74 309.528 264.28 309.378 265.82C309.208 267.36 309.459 268.9 309.939 270.44C310.439 271.98 310.799 273.52 310.929 275.06C311.119 276.6 311.318 278.14 311.238 279.68C311.148 281.22 310.918 282.76 310.548 284.3C310.158 285.84 309.669 287.38 308.819 288.92C308.739 289.06 308.569 289.11 308.429 289.03C308.379 289 308.339 288.96 308.319 288.92C307.479 287.38 306.978 285.84 306.588 284.3C306.208 282.76 305.978 281.22 305.898 279.68C305.818 278.14 306.018 276.6 306.208 275.06C306.338 273.52 306.708 271.98 307.198 270.44C307.678 268.9 307.928 267.36 307.758 265.82C307.608 264.28 306.798 262.74 306.478 261.2C306.318 260.43 306.278 259.66 306.338 258.89C306.378 258.12 306.468 257.35 306.618 256.58C306.918 255.04 307.369 253.5 308.319 251.96C308.399 251.82 308.588 251.78 308.718 251.86C308.758 251.88 308.789 251.92 308.819 251.96Z" fill="#0E2980"/>
</svg>
