<svg width="417" height="412" viewBox="0 0 417 412" fill="none" xmlns="http://www.w3.org/2000/svg">
<path d="M0.846801 233.5C-2.7832 139.17 75.1166 16.5499 190.687 6.45989C280.747 -1.40011 345.157 63.3 353.817 72.28C365.277 84.16 401.227 122.51 410.097 184.85C413.187 206.53 417.067 259.7 386.247 310.77C329.137 405.42 206.747 403.54 199.267 403.3C126.327 401 43.9167 361.22 13.2467 289.78C10.3667 283.07 1.9468 262.13 0.846801 233.5Z" fill="#FCDB00"/>
<path d="M0.0967141 233.53C0.0767141 230.21 -0.043364 226.89 0.016636 223.58L0.206577 218.61C0.266577 216.95 0.316597 215.29 0.476597 213.64C0.926597 207.02 1.70666 200.42 2.78666 193.87C4.91666 180.76 8.17671 167.83 12.3467 155.18C20.7367 129.9 32.8165 105.67 48.6165 83.8101C56.5565 72.9301 65.3465 62.5799 75.1365 53.1799L82.6465 46.3L90.4966 39.78C93.2066 37.72 95.9566 35.7099 98.6866 33.6799C101.477 31.7199 104.337 29.86 107.187 27.98C118.737 20.7 131.087 14.6 144.007 10.02C156.917 5.43002 170.387 2.35996 184.007 0.959961L189.116 0.439941C190.816 0.259941 192.537 0.269932 194.237 0.179932C195.947 0.119932 197.647 0.02 199.357 0L204.477 0.0400391L207.037 0.0600586C207.887 0.0800586 208.747 0.139941 209.597 0.189941L214.707 0.469971C216.407 0.559971 218.107 0.789941 219.797 0.939941C221.487 1.13994 223.186 1.25003 224.866 1.53003C238.346 3.41003 251.597 6.63004 264.267 11.29C276.957 15.88 289.147 21.6599 300.717 28.4099C306.517 31.7599 312.167 35.3401 317.657 39.1501C323.177 42.9201 328.507 46.9401 333.717 51.1001C338.927 55.2701 343.957 59.65 348.837 64.22C351.267 66.51 353.657 68.86 355.957 71.28C358.247 73.69 360.547 76.1201 362.747 78.6201C371.597 88.6201 379.607 99.3801 386.547 110.82L389.126 115.12C389.977 116.56 390.737 118.05 391.547 119.52L393.937 123.94L396.126 128.46C396.846 129.97 397.637 131.45 398.317 132.99L400.317 137.6C400.967 139.14 401.687 140.66 402.287 142.23L404.057 146.94C404.637 148.52 405.257 150.08 405.807 151.67L407.317 156.48L408.847 161.29C409.317 162.9 409.707 164.54 410.137 166.17C410.957 169.43 411.907 172.67 412.477 176L413.457 180.96C413.777 182.62 414.136 184.27 414.366 185.94C415.426 192.6 416.147 199.32 416.587 206.06L416.817 211.12C416.917 212.81 416.937 214.5 416.947 216.19L416.987 221.26L416.857 226.34L416.787 228.88L416.626 231.42L416.297 236.5C415.997 239.88 415.607 243.25 415.217 246.63L414.417 251.67C414.127 253.35 413.937 255.04 413.547 256.7L412.497 261.7C412.147 263.37 411.817 265.04 411.347 266.68C404.817 293.18 392.127 318.37 374.197 339.3C365.277 349.8 355.057 359.18 343.987 367.34C332.897 375.49 320.977 382.41 308.567 388.21C283.707 399.78 256.987 406.57 230.007 409.65C223.247 410.38 216.466 410.9 209.626 411.11C206.186 411.22 202.827 411.28 199.197 411.15C195.757 410.94 192.347 410.83 188.947 410.48C175.317 409.35 161.857 406.93 148.687 403.48C122.387 396.46 97.3767 384.8 75.3467 369.06C64.3967 361.1 54.1367 352.21 45.0367 342.26C42.7167 339.82 40.5665 337.22 38.3865 334.66C37.3065 333.37 36.2966 332.02 35.2566 330.7C34.2166 329.38 33.1766 328.06 32.2266 326.67L29.2867 322.58L26.5166 318.38L25.1365 316.28L23.8467 314.12C22.9967 312.68 22.1066 311.26 21.2766 309.8C19.7066 306.84 18.0265 303.95 16.6365 300.9C15.9265 299.38 15.1466 297.91 14.4766 296.38L12.4966 291.78C9.89662 285.63 7.79667 279.28 6.05667 272.86C2.58667 260.02 0.556695 246.81 0.0766946 233.54L0.0967141 233.53ZM1.59671 233.47C1.89671 240.04 2.56653 246.59 3.65653 253.08C4.77653 259.56 6.27657 265.97 8.19657 272.24C11.9566 284.83 17.7266 296.7 24.7566 307.69C31.9166 318.61 40.3765 328.61 49.9165 337.41C59.3665 346.31 69.8965 353.96 80.8665 360.73C91.9165 367.41 103.507 373.14 115.477 377.87C127.417 382.67 139.737 386.42 152.217 389.36C164.717 392.2 177.396 394.23 190.126 395.04C193.306 395.3 196.507 395.34 199.667 395.48C202.647 395.51 205.897 395.46 209.057 395.31C215.427 395.05 221.827 394.48 228.187 393.72C253.667 390.65 278.787 384.23 302.087 373.93C325.317 363.55 346.667 348.93 363.517 329.97C371.927 320.51 379.257 310.06 385.307 298.88C391.387 287.71 396.127 275.82 399.727 263.55C403.287 251.27 405.587 238.57 406.657 225.73L407.027 220.91L407.237 216.07C407.317 214.46 407.367 212.84 407.357 211.23L407.376 206.38C407.286 199.92 406.917 193.45 406.237 187.01C403.357 161.3 395.307 135.99 382.167 113.4C380.617 110.53 378.797 107.81 377.097 105.02C376.247 103.62 375.276 102.31 374.376 100.95C373.447 99.61 372.567 98.2299 371.577 96.9299C367.787 91.6099 363.667 86.5201 359.357 81.6101C355.027 76.7001 350.507 71.96 345.717 67.53C340.947 63.06 335.897 58.8801 330.727 54.8701C310.007 38.8901 286.507 26.4801 261.677 19.1201C236.867 11.7301 210.737 9.62011 185.517 13.3601C160.267 16.8801 136.017 25.96 114.197 39.26C92.3666 52.55 72.8065 69.7999 56.1565 89.6699C47.8265 99.6099 40.1966 110.2 33.4466 121.38C26.6866 132.55 20.7565 144.27 15.9165 156.46C11.0565 168.64 7.27666 181.29 4.78666 194.2C3.49666 200.65 2.67669 207.19 2.07669 213.74C1.87669 215.37 1.83664 217.02 1.76664 218.66L1.55668 223.59C1.48668 226.88 1.58671 230.17 1.59671 233.46V233.47Z" fill="#0E2980"/>
<path d="M79.1366 164.86C87.3366 168.15 95.7667 170.47 104.277 171.39C108.517 171.9 112.767 172.08 116.977 171.94L118.557 171.91L120.127 171.8L123.257 171.58C124.297 171.53 125.337 171.31 126.367 171.19C127.397 171.04 128.437 170.93 129.457 170.74C133.547 169.96 137.547 168.79 141.387 167.27C143.337 166.63 145.217 165.79 147.177 165.19C149.087 164.44 151.067 163.9 153.007 163.21C156.947 161.96 160.927 160.64 164.997 159.24C169.097 157.87 173.237 156.39 177.817 155.08C178.187 154.97 178.577 155.19 178.687 155.56C178.737 155.74 178.717 155.93 178.627 156.09C176.337 160.34 173.207 163.94 169.727 167.11C166.227 170.28 162.307 172.98 158.107 175.17C156.027 176.31 153.807 177.17 151.587 178C149.307 178.68 147.037 179.37 144.667 179.71C143.487 179.89 142.317 180.1 141.147 180.25L137.607 180.59L135.847 180.77C135.257 180.8 134.667 180.81 134.077 180.86L130.557 181.08C129.387 181.14 128.207 181.11 127.037 181.13C125.867 181.12 124.697 181.19 123.527 181.1L120.027 180.89L118.287 180.78L116.547 180.59C111.927 180 107.387 179.05 102.967 177.77C94.1466 175.15 85.8567 171.17 78.5167 166.01C78.2167 165.8 78.1468 165.39 78.3568 165.1C78.5368 164.85 78.8666 164.76 79.1366 164.87V164.86Z" fill="#0E2980"/>
<path d="M339.166 166C331.836 171.16 323.547 175.14 314.717 177.76C310.297 179.04 305.756 179.99 301.136 180.58L299.396 180.77L297.656 180.88L294.156 181.09C292.986 181.18 291.816 181.11 290.646 181.12C289.476 181.1 288.296 181.12 287.126 181.07L283.607 180.85C283.017 180.81 282.427 180.79 281.837 180.76L280.077 180.58L276.537 180.24C275.357 180.09 274.197 179.88 273.017 179.7C270.657 179.36 268.377 178.67 266.097 177.99C263.877 177.16 261.657 176.31 259.577 175.16C255.377 172.97 251.447 170.27 247.957 167.1C244.467 163.93 241.337 160.33 239.057 156.08C238.877 155.74 238.997 155.31 239.347 155.13C239.517 155.04 239.706 155.02 239.876 155.07C244.456 156.38 248.597 157.86 252.697 159.23C256.767 160.64 260.747 161.95 264.687 163.2C266.637 163.89 268.617 164.43 270.517 165.18C272.467 165.77 274.357 166.61 276.307 167.26C280.147 168.78 284.147 169.94 288.237 170.73C289.257 170.92 290.297 171.03 291.327 171.18C292.357 171.3 293.397 171.51 294.437 171.57L297.567 171.79L299.136 171.9L300.717 171.93C304.927 172.08 309.176 171.89 313.416 171.38C321.926 170.45 330.357 168.13 338.557 164.85C338.887 164.71 339.276 164.87 339.406 165.21C339.526 165.5 339.416 165.82 339.176 165.99L339.166 166Z" fill="#0E2980"/>
<path d="M100.697 245.12C105.407 246.72 109.906 248.46 114.386 250.15C116.626 250.99 118.837 251.87 121.077 252.68L124.386 253.96C125.506 254.35 126.607 254.77 127.717 255.18C128.827 255.58 129.927 256 131.017 256.43L134.347 257.6C136.547 258.42 138.747 259.23 140.967 259.97C145.387 261.53 149.806 263.01 154.156 264.84C162.886 268.27 171.746 272.26 181.166 274.04C183.526 274.4 185.887 274.71 188.267 274.92C189.457 275.03 190.637 275.16 191.837 275.21C193.027 275.24 194.226 275.23 195.416 275.21C197.806 275.19 200.187 275.11 202.567 274.97C204.947 274.7 207.316 274.34 209.666 274.03L213.187 273.52C214.357 273.33 215.517 273.04 216.687 272.82C219.017 272.34 221.326 271.87 223.636 271.46C225.946 271.08 228.227 270.45 230.527 270.04C232.827 269.62 235.097 269.05 237.357 268.5C246.427 266.27 255.237 263.34 264.027 260.38C272.837 257.45 281.567 254.15 290.277 250.52C299.007 246.89 307.607 242.81 316.577 238.73C316.917 238.58 317.307 238.73 317.457 239.06C317.567 239.3 317.516 239.57 317.366 239.76C314.226 243.62 310.687 247.09 306.977 250.39C305.137 252.06 303.187 253.59 301.247 255.15C299.257 256.63 297.277 258.15 295.207 259.53C286.977 265.14 278.077 269.83 268.737 273.45C259.387 277.04 249.516 279.21 239.636 280.57C237.166 280.9 234.697 281.29 232.207 281.45C230.967 281.56 229.727 281.66 228.477 281.73L226.616 281.85C225.996 281.88 225.367 281.85 224.747 281.86C222.247 281.86 219.757 281.78 217.277 281.7C216.037 281.65 214.797 281.65 213.557 281.54L209.847 281.15C207.377 280.92 204.927 280.65 202.477 280.46C200.037 280.13 197.596 279.82 195.166 279.59C193.946 279.47 192.737 279.36 191.517 279.27L187.886 278.84C185.466 278.55 183.037 278.35 180.597 278.21C170.927 277.17 160.857 277.25 151.067 275.26C146.217 274.16 141.427 272.78 136.857 270.81C135.707 270.33 134.536 269.93 133.416 269.39L130.047 267.81L126.707 266.18C125.607 265.6 124.527 265 123.447 264.38C122.367 263.77 121.277 263.18 120.217 262.54L117.077 260.54C116.047 259.85 114.997 259.2 113.987 258.47L110.987 256.26C107.057 253.23 103.277 250 99.9766 246.23C99.7266 245.95 99.7566 245.53 100.037 245.28C100.227 245.12 100.477 245.07 100.697 245.15V245.12Z" fill="#0E2980"/>
<path d="M70.4066 138.94C72.4966 137.57 74.5966 136.6 76.6766 135.68C78.7666 134.78 80.8566 134.03 82.9466 133.35C85.0366 132.68 87.1267 132.09 89.2367 131.57C91.3367 131.05 93.4566 130.65 95.6666 130.57C100.047 130.36 104.757 131.07 109.087 130.16C113.417 129.29 117.457 127.38 121.167 124.82C123.037 123.56 124.867 122.27 126.737 121.09C128.597 119.91 130.517 118.9 132.417 117.83C136.197 115.69 139.877 113.43 143.787 111.63C145.747 110.73 147.727 109.88 149.757 109.08C151.777 108.27 153.817 107.49 155.907 106.76C160.097 105.3 164.367 103.9 169.137 103.04C169.487 102.98 169.817 103.21 169.877 103.55C169.907 103.71 169.877 103.87 169.797 103.99C168.537 106.08 167.077 107.95 165.537 109.7C163.997 111.46 162.347 113.09 160.627 114.63C158.907 116.16 157.117 117.62 155.247 118.95C153.397 120.31 151.477 121.56 149.477 122.67C145.497 124.93 141.157 126.48 136.817 127.89C134.647 128.6 132.477 129.31 130.217 129.77C129.097 130.02 127.947 130.2 126.797 130.35C125.647 130.52 124.507 130.67 123.347 130.79C121.047 131.07 118.777 131.34 116.577 131.83C114.377 132.32 112.227 132.92 110.137 133.74C105.957 135.34 102.077 138.29 97.7967 140.02C95.6667 140.91 93.4466 141.43 91.1966 141.74C88.9466 142.07 86.6666 142.25 84.3766 142.28C82.0866 142.32 79.7866 142.19 77.4666 141.85C75.1566 141.5 72.8367 141.01 70.5167 140.08C70.1767 139.95 70.0166 139.57 70.1566 139.23C70.2066 139.1 70.2966 139 70.4066 138.93V138.94Z" fill="#0E2980"/>
<path d="M346.577 140.1C344.257 141.03 341.937 141.52 339.627 141.87C337.317 142.2 335.007 142.33 332.717 142.3C330.427 142.27 328.147 142.1 325.897 141.76C323.647 141.45 321.427 140.93 319.297 140.04C315.017 138.31 311.137 135.36 306.957 133.76C304.867 132.94 302.717 132.34 300.517 131.85C298.327 131.36 296.047 131.09 293.747 130.81C292.597 130.69 291.447 130.54 290.297 130.37C289.147 130.22 287.997 130.04 286.877 129.79C284.617 129.33 282.447 128.62 280.277 127.91C275.927 126.49 271.597 124.95 267.617 122.69C265.627 121.57 263.697 120.32 261.847 118.97C259.977 117.64 258.197 116.19 256.467 114.65C254.747 113.11 253.097 111.48 251.557 109.72C250.007 107.96 248.557 106.09 247.297 104.01C247.117 103.71 247.207 103.32 247.507 103.13C247.647 103.05 247.807 103.02 247.947 103.05C252.717 103.91 256.987 105.31 261.177 106.77C263.267 107.5 265.317 108.28 267.327 109.09C269.347 109.89 271.337 110.74 273.297 111.64C277.207 113.44 280.887 115.71 284.667 117.84C286.557 118.91 288.477 119.92 290.347 121.1C292.207 122.28 294.047 123.57 295.917 124.83C299.637 127.39 303.677 129.3 307.997 130.17C312.327 131.08 317.037 130.37 321.417 130.58C323.617 130.66 325.737 131.06 327.847 131.58C329.947 132.09 332.047 132.68 334.137 133.36C336.227 134.04 338.317 134.79 340.407 135.69C342.497 136.61 344.587 137.58 346.677 138.95C346.977 139.15 347.067 139.56 346.867 139.86C346.787 139.98 346.687 140.06 346.567 140.11L346.577 140.1Z" fill="#0E2980"/>
</svg>
