<svg width="405" height="416" viewBox="0 0 405 416" fill="none" xmlns="http://www.w3.org/2000/svg">
<path d="M4.79466 161.864C22.1647 84.534 102.225 5.78403 201.945 6.68403C309.505 7.66403 368.425 100.674 372.385 107.164C379.955 119.584 403.035 158.574 401.635 212.734C398.995 315.014 311.615 372.154 306.235 375.544C299.685 379.674 206.335 436.314 110.355 388.264C16.3147 341.184 3.93472 235.774 2.23472 217.824C1.05472 205.354 -0.62536 185.934 4.77464 161.854L4.79466 161.864Z" fill="#FCDB00"/>
<path d="M4.06474 161.704L5.24479 156.924L5.83476 154.534L6.53471 152.174L7.93473 147.454L9.5247 142.794C10.5147 139.664 11.7948 136.634 12.9548 133.564C13.5348 132.024 14.2447 130.544 14.8847 129.034C15.5647 127.544 16.1448 126.004 16.8748 124.524C22.4148 112.614 29.0447 101.194 36.5547 90.364C51.7447 68.844 70.4547 49.444 92.5047 34.274C114.475 19.114 139.655 7.88403 166.325 3.06402C192.925 -1.87598 220.685 -0.865963 246.785 6.26404C248.415 6.72404 250.065 7.07403 251.665 7.63403L256.475 9.20404L258.875 9.99402C259.675 10.274 260.455 10.584 261.245 10.884L265.965 12.684C267.555 13.254 269.085 13.964 270.625 14.624L275.255 16.634C278.285 18.084 281.325 19.5341 284.285 21.0941C296.135 27.3941 307.345 34.774 317.765 43.044C322.955 47.204 327.985 51.554 332.845 56.064C337.675 60.614 342.365 65.284 346.825 70.174C351.285 75.064 355.605 80.064 359.695 85.244C363.815 90.404 367.725 95.734 371.405 101.244C378.655 112.394 384.685 124.144 389.745 136.374C394.695 148.624 398.535 161.334 401.145 174.324C401.725 177.584 402.295 180.844 402.805 184.124C403.175 187.414 403.645 190.704 403.935 194.004C404.145 197.314 404.495 200.614 404.605 203.934C404.655 207.254 404.805 210.574 404.755 213.894C404.565 227.184 403.065 240.514 400.045 253.534C394.115 279.624 382.425 304.404 366.655 326.094C362.765 331.564 358.555 336.794 354.165 341.864C349.785 346.944 345.155 351.804 340.375 356.504C335.585 361.204 330.595 365.704 325.405 369.994C322.815 372.144 320.165 374.224 317.455 376.264C314.715 378.304 312.035 380.264 308.915 382.214C303.015 385.844 297.085 388.974 291.005 391.904C284.935 394.824 278.755 397.494 272.465 399.904C266.175 402.314 259.795 404.484 253.315 406.354C250.095 407.344 246.815 408.144 243.555 409.014C240.265 409.754 236.985 410.604 233.665 411.214C227.045 412.614 220.335 413.574 213.605 414.364C206.855 414.984 200.075 415.494 193.265 415.474C191.565 415.474 189.865 415.514 188.165 415.474L183.065 415.264C179.665 415.194 176.265 414.784 172.875 414.524C171.175 414.414 169.485 414.144 167.795 413.934L162.725 413.264C159.365 412.694 156.005 412.084 152.665 411.404C139.325 408.504 126.295 404.194 113.945 398.444C101.595 392.734 89.8347 385.724 79.0547 377.424L75.0347 374.284C73.6947 373.234 72.4547 372.074 71.1647 370.974L67.3247 367.624L63.6547 364.104C62.4547 362.904 61.1847 361.784 60.0447 360.524L56.5747 356.814L54.8448 354.964L53.1947 353.034L49.9147 349.164C41.3047 338.734 34.0848 327.294 27.8448 315.474C27.0348 314.014 26.3348 312.494 25.5948 310.994C24.8748 309.484 24.1047 308.004 23.4247 306.474C22.0747 303.424 20.6647 300.404 19.4447 297.304C16.8847 291.154 14.6747 284.884 12.6447 278.574C10.6047 272.264 8.8948 265.864 7.3748 259.444C5.8348 253.024 4.55478 246.544 3.48478 240.044C2.43478 233.544 1.5847 227.014 1.0247 220.444C0.514699 213.894 0.074679 207.354 0.00467903 200.774C-0.035321 194.204 0.174684 187.624 0.884684 181.084C1.54468 174.544 2.58473 168.054 4.05473 161.654L4.06474 161.704ZM5.5247 162.034C4.1347 168.384 3.14476 174.824 2.58476 181.294C2.04476 187.764 1.91475 194.274 2.20475 200.764C2.50475 207.244 3.14478 213.734 3.98478 220.174C4.81478 226.604 6.02474 232.994 7.44474 239.314C13.2047 264.594 23.0248 288.884 36.4948 310.584C43.2548 321.414 50.9148 331.614 59.4948 340.874C63.8248 345.464 68.2447 349.964 73.0147 354.064L76.5447 357.184L80.2248 360.124C81.4648 361.084 82.6447 362.114 83.9247 363.034L87.7348 365.794C108.095 380.404 131.515 390.724 155.955 395.754C168.185 398.284 180.695 399.414 193.215 399.394C199.475 399.454 205.745 399.024 212.005 398.494C218.245 397.784 224.505 397.064 230.695 395.844C233.805 395.334 236.875 394.584 239.965 393.944C243.025 393.174 246.115 392.484 249.145 391.604C255.245 389.954 261.285 388.014 267.235 385.844C273.185 383.684 279.075 381.314 284.825 378.684C290.565 376.064 296.275 373.204 301.565 370.094C304.025 368.634 306.675 366.804 309.205 364.994C311.755 363.154 314.285 361.264 316.765 359.284C321.735 355.354 326.545 351.194 331.215 346.884C340.565 338.254 349.155 328.824 357.045 318.844C359.065 316.374 360.875 313.764 362.795 311.234L365.505 307.314L366.865 305.354L368.155 303.344L370.745 299.334L373.195 295.244C374.875 292.534 376.325 289.704 377.875 286.924C383.855 275.684 388.595 263.784 392.095 251.504C399.095 226.954 400.565 200.644 396.145 175.234L395.235 170.484C394.925 168.904 394.655 167.314 394.255 165.744C393.495 162.614 392.785 159.464 391.835 156.374C390.145 150.144 387.915 144.074 385.555 138.064C383.135 132.074 380.385 126.224 377.365 120.514C376.605 119.084 375.855 117.664 375.045 116.264C374.265 114.854 373.445 113.454 372.605 112.074C371.785 110.694 370.915 109.294 370.075 107.944C369.225 106.614 368.325 105.274 367.405 103.944C360.025 93.374 351.525 83.524 342.395 74.424C337.805 69.884 333.005 65.564 328.105 61.394C323.185 57.234 318.055 53.354 312.815 49.644C291.775 34.954 268.325 23.974 243.695 18.364C219.125 12.624 193.505 11.974 168.645 16.124C156.215 18.184 143.955 21.464 132.075 25.894C120.205 30.324 108.635 35.7541 97.6547 42.2841L95.5848 43.494L93.5547 44.774L89.4948 47.334C86.8048 49.074 84.2047 50.944 81.5447 52.744C78.9947 54.684 76.3748 56.544 73.8648 58.554L70.1148 61.5941L68.2448 63.124L66.4347 64.7141C56.7047 73.1441 47.6548 82.454 39.5948 92.604C31.5748 102.774 24.5347 113.764 18.6947 125.384C12.8847 137.014 8.46469 149.344 5.51469 162.004L5.5247 162.034Z" fill="#0E2980"/>
<path d="M95.7846 140.734C97.5946 136.744 102.045 126.964 112.495 123.594C122.445 120.384 134.545 124.034 141.205 133.024C150.155 145.084 143.935 159.504 142.915 161.734C142.035 163.674 136.285 176.614 123.205 178.874C109.075 181.314 95.1346 169.784 92.7746 157.444C91.4146 150.324 94.1646 144.274 95.7746 140.734H95.7846Z" fill="#0E2980"/>
<path d="M119.375 179.704C106.235 179.704 94.4147 168.614 92.2947 157.544C90.9047 150.274 93.6747 144.174 95.3347 140.534C97.2347 136.354 101.685 126.564 112.355 123.124C122.705 119.784 135.015 123.824 141.625 132.734C150.285 144.394 145.165 158.044 143.395 161.954C141.305 166.554 135.235 177.324 123.315 179.384C122.005 179.614 120.685 179.714 119.395 179.724L119.375 179.704ZM119.905 122.944C117.445 122.944 114.995 123.304 112.655 124.064C102.405 127.364 98.0847 136.874 96.2447 140.934C94.6347 144.474 91.9547 150.384 93.2847 157.344C95.3247 168.014 106.715 178.694 119.365 178.694C120.615 178.694 121.875 178.594 123.145 178.374C134.595 176.394 140.465 165.974 142.455 161.584C144.205 157.744 149.155 144.534 140.825 133.314C135.965 126.764 127.895 122.944 119.915 122.944H119.905Z" fill="#0E2980"/>
<path d="M260.145 140.734C261.955 136.744 266.405 126.964 276.855 123.594C286.805 120.384 298.905 124.034 305.565 133.024C314.515 145.084 308.295 159.504 307.275 161.734C306.395 163.674 300.645 176.614 287.565 178.874C273.435 181.314 259.495 169.784 257.135 157.444C255.775 150.324 258.525 144.274 260.135 140.734H260.145Z" fill="#0E2980"/>
<path d="M283.725 179.704C270.585 179.704 258.765 168.614 256.645 157.544C255.255 150.274 258.025 144.174 259.685 140.534C261.585 136.354 266.035 126.564 276.705 123.124C287.055 119.784 299.365 123.824 305.975 132.734C314.635 144.394 309.515 158.044 307.745 161.954C305.655 166.554 299.585 177.324 287.655 179.384C286.345 179.614 285.025 179.724 283.735 179.724L283.725 179.704ZM284.255 122.944C281.795 122.944 279.345 123.304 277.005 124.064C266.755 127.364 262.435 136.874 260.595 140.934C258.985 144.474 256.305 150.384 257.635 157.344C259.675 168.014 271.065 178.694 283.715 178.694C284.965 178.694 286.225 178.594 287.495 178.374C298.945 176.394 304.815 165.974 306.815 161.584C308.565 157.744 313.515 144.534 305.185 133.314C300.325 126.764 292.255 122.944 284.275 122.944H284.255Z" fill="#0E2980"/>
<path d="M316.175 207.774C318.235 267.904 273.485 320.074 214.285 327.194C154.245 334.424 97.7846 293.114 86.5046 233.134C113.235 238.914 152.605 244.274 199.755 239.544C250.535 234.454 290.435 219.654 316.175 207.764V207.774Z" fill="#0E2980"/>
<path d="M316.515 207.224C316.795 208.914 317.245 211.014 317.425 213.174C317.555 215.064 317.625 216.854 317.705 218.704C317.735 220.544 317.705 222.384 317.705 224.234C317.645 226.074 317.485 227.914 317.375 229.764C316.765 237.144 315.395 244.504 313.235 251.654C308.965 265.984 301.705 279.534 292.075 291.184C287.255 297.004 281.885 302.404 276.005 307.184C270.135 311.974 263.795 316.234 257.045 319.694C250.305 323.174 243.195 325.944 235.875 327.844C232.215 328.804 228.525 329.594 224.805 330.184C221.085 330.754 217.345 331.134 213.605 331.354C206.125 331.784 198.645 331.454 191.285 330.544C183.935 329.574 176.685 328.054 169.645 325.924C155.535 321.744 142.175 315.254 130.125 306.774C118.065 298.314 107.295 287.784 98.7247 275.484C90.1247 263.214 83.9447 249.074 80.8247 234.224C80.1747 231.144 82.1547 228.114 85.2347 227.464C85.9847 227.304 86.7347 227.304 87.4547 227.434L87.7347 227.494C106.675 231.124 125.865 233.314 145.075 234.004C149.875 234.194 154.685 234.324 159.485 234.344C161.885 234.344 164.285 234.394 166.695 234.364L173.905 234.254L181.105 234.034C183.505 233.954 185.905 233.784 188.305 233.674C190.705 233.594 193.105 233.384 195.505 233.234L199.105 232.984L202.695 232.644C205.085 232.404 207.495 232.274 209.885 231.984L217.065 231.184C221.835 230.554 226.615 229.904 231.375 229.124L234.955 228.574L238.525 227.954C240.905 227.544 243.285 227.134 245.655 226.644C248.025 226.154 250.405 225.734 252.755 225.194C255.115 224.684 257.495 224.224 259.855 223.664C262.215 223.104 264.575 222.574 266.925 221.994L273.975 220.194L281.015 218.304C283.345 217.624 285.695 216.974 288.025 216.264C292.705 214.894 297.355 213.434 301.995 211.904C304.325 211.164 306.635 210.374 308.955 209.574L310.695 208.994C311.365 208.754 312.055 208.514 312.725 208.304C314.085 207.874 315.375 207.554 316.525 207.214L316.515 207.224ZM315.835 208.334C314.755 209.004 313.815 209.694 312.935 210.274C312.495 210.564 312.065 210.834 311.615 211.104L309.985 211.984C307.815 213.154 305.625 214.294 303.415 215.404C299.015 217.654 294.525 219.704 290.015 221.744C287.755 222.744 285.465 223.674 283.185 224.644L276.285 227.404C273.975 228.304 271.635 229.114 269.305 229.974C266.965 230.804 264.615 231.574 262.265 232.374C259.915 233.174 257.535 233.884 255.165 234.634C252.795 235.384 250.385 235.994 247.995 236.684C245.605 237.374 243.195 237.974 240.785 238.584L237.165 239.504L233.525 240.344C223.815 242.534 213.995 244.304 204.105 245.624L200.395 246.114L196.675 246.514C194.195 246.764 191.715 247.074 189.225 247.254C186.735 247.434 184.245 247.654 181.755 247.794L174.275 248.174L166.785 248.324C164.285 248.354 161.795 248.324 159.295 248.324C154.305 248.224 149.315 248.064 144.335 247.744C134.375 247.064 124.445 246.024 114.585 244.534C104.735 243.024 94.9446 241.114 85.2546 238.814L92.1647 232.084C94.4047 245.634 98.9347 258.874 105.735 271.064C112.545 283.234 121.735 294.264 132.855 303.064C143.965 311.854 156.985 318.344 170.735 321.854C184.505 325.354 198.925 325.664 212.675 323.294C216.115 322.704 219.515 321.974 222.875 321.064C226.225 320.174 229.545 319.174 232.785 317.994C239.275 315.634 245.555 312.814 251.565 309.504C257.565 306.174 263.335 302.444 268.745 298.204C274.135 293.944 279.195 289.254 283.805 284.134C293.045 273.894 300.555 262.024 305.925 249.114C308.595 242.654 310.775 235.944 312.365 229.034L313.435 223.824C313.725 222.074 314.055 220.314 314.325 218.554L315.005 213.254C315.145 211.804 315.565 210.284 315.805 208.374L315.835 208.334Z" fill="#0E2980"/>
<path d="M191.695 293.044C177.095 298.044 164.865 304.804 154.905 311.714C174.805 321.044 197.445 324.844 220.485 321.334C244.505 317.684 265.745 306.584 282.275 290.744C259.815 284.754 227.135 280.884 191.695 293.034V293.044Z" fill="#FF55AB"/>
</svg>
