<svg width="400" height="415" viewBox="0 0 400 415" fill="none" xmlns="http://www.w3.org/2000/svg">
<path d="M15.9007 132.581C21.8807 116.531 40.5006 68.6609 90.9406 35.9109C160.111 -8.99907 234.561 9.96093 249.931 14.2909C331.031 37.1109 367.461 102.571 373.311 113.501C379.741 125.531 412.881 190.391 388.571 267.401C366.191 338.301 303.551 392.821 228.311 404.771C221.531 405.851 118.451 420.411 48.9706 342.441C-27.9294 256.151 12.4307 141.881 15.9007 132.571V132.581Z" fill="#FCDB00"/>
<path d="M15.2004 132.321C19.7104 120.031 25.2405 108.101 31.7305 96.6909C38.3005 85.3309 45.8704 74.5209 54.4704 64.5109C71.6704 44.5309 93.0805 27.7509 117.5 16.5509C129.7 10.9709 142.55 6.71092 155.75 3.98092C168.94 1.23092 182.43 -0.0390846 195.89 0.000915427C209.36 0.0809154 222.8 1.43092 236 4.09092C242.59 5.43092 249.2 7.03092 255.6 9.16092C262.05 11.1209 268.34 13.5909 274.54 16.2209C286.87 21.6709 298.641 28.3109 309.551 36.1009C320.471 43.8809 330.55 52.7309 339.74 62.3709C348.91 72.0209 357.251 82.4009 364.551 93.4609C368.211 98.9809 371.66 104.651 374.76 110.521C377.89 116.371 380.61 122.421 383.11 128.521C393.05 152.981 398.87 179.081 399.87 205.531C400.3 218.751 399.5 232.031 397.38 245.141C396.28 251.681 394.93 258.201 393.18 264.621C391.52 271.071 389.4 277.391 387.07 283.641C377.64 308.591 363.14 331.771 344.56 351.201C326.02 370.681 303.53 386.471 278.82 397.421C266.45 402.841 253.57 407.221 240.33 410.131C237.03 410.921 233.69 411.491 230.36 412.111C226.85 412.741 223.45 413.101 220.07 413.421C213.3 414.051 206.56 414.321 199.81 414.331C193.06 414.331 186.32 414.081 179.6 413.511C172.87 412.951 166.18 412.041 159.51 410.931L154.52 410.031C152.86 409.711 151.21 409.321 149.56 408.971C146.24 408.301 142.98 407.381 139.69 406.581L134.81 405.181L132.37 404.471L129.95 403.691L125.12 402.101C123.52 401.541 121.94 400.921 120.35 400.331C117.15 399.191 114.051 397.811 110.911 396.501C109.331 395.871 107.82 395.101 106.27 394.391L101.661 392.211L97.1405 389.841C95.6305 389.051 94.1205 388.281 92.6705 387.391C89.7505 385.651 86.7704 384.001 83.9504 382.081C72.5104 374.711 61.8604 366.121 52.3404 356.451C42.8304 346.781 34.4304 336.051 27.3304 324.541C20.2204 313.031 14.5505 300.701 10.2505 287.991C5.97047 275.271 3.1205 262.151 1.5305 248.971C-0.0194979 235.771 -0.309488 222.521 0.290512 209.361C0.990512 196.211 2.55052 183.141 5.05052 170.271C6.30052 163.841 7.7005 157.431 9.4005 151.101C11.0805 144.771 12.9204 138.481 15.2104 132.321H15.2004ZM16.6105 132.841C12.2705 145.081 9.26043 157.821 7.21043 170.651C6.68043 173.861 6.29046 177.081 5.86046 180.301C5.52046 183.531 5.15043 186.761 4.96043 190.001C4.42043 196.471 4.30042 202.961 4.32042 209.441C4.49042 222.391 5.80051 235.291 8.29051 247.891C10.7905 260.491 14.6004 272.771 19.5604 284.461C29.4504 307.901 44.3705 328.761 62.5205 346.081C80.6905 363.371 102.331 376.801 125.921 385.321C131.781 387.531 137.8 389.341 143.85 391.031C149.93 392.601 156.07 393.991 162.27 395.081C174.67 397.291 187.281 398.451 199.9 398.671C206.21 398.761 212.52 398.611 218.76 398.141C221.88 397.901 224.991 397.611 227.911 397.141C231.001 396.611 234.11 396.141 237.18 395.461C249.5 393.001 261.56 389.211 273.2 384.401C296.46 374.681 317.81 360.381 335.99 342.731C340.58 338.351 344.86 333.671 349 328.851C353.17 324.061 357.01 318.981 360.71 313.811C364.35 308.591 367.75 303.201 370.91 297.661C371.701 296.271 372.43 294.861 373.19 293.461L374.32 291.351L375.38 289.211L377.49 284.911L379.45 280.541C389.69 257.131 395.19 231.441 394.76 205.651C394.47 179.871 388.81 154.111 378.63 130.391C376.09 124.461 373.221 118.681 370.051 113.101C366.831 107.551 363.31 102.151 359.49 96.9709C351.85 86.6209 343.31 76.9309 333.9 68.2409C324.51 59.5309 314.39 51.6609 303.61 44.9109C298.25 41.5009 292.7 38.4009 287.06 35.5109C281.42 32.6209 275.59 30.1409 269.73 27.7609C263.82 25.5109 257.871 23.3909 251.791 21.6909C245.741 19.8709 239.621 18.4609 233.411 17.2709C220.991 14.9109 208.35 13.5709 195.71 13.2909C170.45 12.7909 144.99 16.3609 121.18 25.3609L118.94 26.1909L116.74 27.1009L112.32 28.9209L107.98 30.9209L105.81 31.9209L103.68 33.0109L99.4105 35.1909L95.2405 37.5509L93.1505 38.7309C92.4605 39.1309 91.8005 39.5809 91.1205 40.0109L87.0704 42.6009C85.7304 43.4809 84.3305 44.2809 83.0405 45.2309L79.1405 48.0609L75.2405 50.9009L71.5105 53.9609L67.7805 57.0409C66.5605 58.1009 65.4104 59.2209 64.2204 60.3109L60.6705 63.6009C59.5005 64.7209 58.4205 65.9109 57.2905 67.0709C48.2805 76.3409 40.3305 86.6809 33.4905 97.7309C30.1505 103.301 27.0004 108.991 24.1904 114.861C21.4004 120.731 18.9105 126.751 16.6205 132.851L16.6105 132.841Z" fill="#0E2980"/>
<path d="M113.101 151.421C114.911 147.431 119.36 137.651 129.81 134.281C139.76 131.071 151.861 134.721 158.521 143.711C167.471 155.771 161.251 170.191 160.231 172.421C159.351 174.361 153.601 187.301 140.521 189.561C126.391 192.001 112.45 180.471 110.09 168.131C108.73 161.011 111.48 154.961 113.09 151.421H113.101Z" fill="#0E2980"/>
<path d="M136.691 190.391C123.551 190.391 111.721 179.301 109.611 168.231C108.221 160.961 110.991 154.861 112.651 151.221L113.111 151.431L112.661 151.221C114.561 147.041 119.011 137.251 129.681 133.811C140.031 130.471 152.341 134.511 158.951 143.421C167.611 155.081 162.491 168.731 160.721 172.641C158.631 177.241 152.561 188.011 140.641 190.071C139.331 190.301 138.011 190.411 136.721 190.411L136.691 190.391ZM113.101 151.421L113.561 151.631C111.951 155.161 109.271 161.081 110.601 168.041C112.641 178.711 124.031 189.391 136.681 189.391C137.931 189.391 139.191 189.291 140.451 189.071C151.901 187.091 157.771 176.671 159.771 172.281C161.521 168.441 166.471 155.231 158.141 144.011C151.781 135.441 139.941 131.551 129.981 134.761C119.731 138.061 115.411 147.571 113.571 151.631L113.111 151.421H113.101Z" fill="#0E2980"/>
<path d="M239.671 139.121C241.481 133.861 245.931 120.951 256.381 116.501C266.331 112.271 278.431 117.091 285.09 128.941C294.041 144.861 287.821 163.881 286.801 166.831C285.921 169.381 280.17 186.471 267.09 189.451C252.96 192.671 239.021 177.461 236.661 161.171C235.301 151.781 238.051 143.791 239.661 139.111L239.671 139.121Z" fill="#0E2980"/>
<path d="M263.231 190.461C259.171 190.461 255.051 189.091 251.141 186.401C243.451 181.121 237.551 171.251 236.101 161.251C234.721 151.721 237.481 143.711 239.121 138.931C241.021 133.421 245.461 120.521 256.151 115.971C266.571 111.531 278.961 116.871 285.591 128.661C294.201 143.971 289.111 161.891 287.351 167.021C285.261 173.081 279.191 187.291 267.221 190.011C265.901 190.311 264.561 190.461 263.221 190.461H263.231ZM240.211 139.311C238.601 144.001 235.901 151.841 237.241 161.101C238.641 170.801 244.361 180.361 251.791 185.471C256.721 188.851 261.971 190.041 266.971 188.901C278.381 186.301 284.251 172.531 286.241 166.741C287.991 161.641 292.981 144.131 284.601 129.231C278.261 117.961 266.491 112.831 256.611 117.031C246.391 121.381 242.061 133.951 240.211 139.311Z" fill="#0E2980"/>
<path d="M95.0905 128.261C95.7105 126.171 96.7105 124.351 97.8805 122.681C98.4605 121.831 99.1105 121.071 99.7605 120.291C100.451 119.561 101.141 118.821 101.891 118.141C102.631 117.461 103.42 116.831 104.21 116.221C105.02 115.631 105.85 115.071 106.7 114.531C107.57 114.031 108.45 113.541 109.36 113.131C110.29 112.741 111.25 112.431 112.24 112.191C113.21 111.911 114.251 111.821 115.271 111.701L116.801 111.561L118.34 111.511C119.37 111.511 120.36 111.411 121.36 111.381C122.35 111.341 123.331 111.271 124.281 111.111C125.231 110.971 126.19 110.861 127.12 110.631C127.59 110.531 128.061 110.431 128.521 110.301L129.93 109.981C130.87 109.751 131.811 109.471 132.75 109.151C133.701 108.881 134.65 108.571 135.62 108.281C136.58 107.971 137.561 107.641 138.551 107.441C139.541 107.201 140.541 106.971 141.551 106.811C143.561 106.571 145.601 106.481 147.631 106.591C151.691 106.701 155.831 107.151 159.661 108.601C163.491 110.031 167.05 112.121 170.19 114.691C171.76 115.981 173.221 117.411 174.531 118.971C175.841 120.531 177.011 122.241 177.911 124.151C178.051 124.461 177.92 124.831 177.61 124.971C177.49 125.031 177.35 125.041 177.23 125.021C173.16 124.231 169.631 123.251 166.141 122.381L161.031 121.071C159.351 120.641 157.69 120.241 156.06 119.791C152.79 118.901 149.611 117.761 146.271 116.901C144.611 116.421 142.91 116.191 141.2 115.661C139.48 115.301 137.73 114.651 135.93 114.311C132.33 113.351 128.57 113.451 125.11 114.571C121.62 115.741 118.8 118.601 115.93 120.601C115.22 121.131 114.47 121.581 113.72 121.991C112.98 122.431 112.191 122.801 111.411 123.151C109.851 123.911 108.26 124.611 106.62 125.301C103.33 126.681 99.9905 128.051 95.8705 129.061C95.5305 129.141 95.1905 128.941 95.1005 128.601C95.0705 128.491 95.0805 128.371 95.1005 128.271L95.0905 128.261Z" fill="#0E2980"/>
<path d="M228.031 95.651C228.281 92.831 229.011 90.111 230.171 87.571C231.291 85.011 232.81 82.601 234.68 80.421C236.53 78.241 238.74 76.291 241.23 74.711C242.47 73.911 243.84 73.291 245.25 72.791C246.68 72.331 248.17 71.981 249.69 71.841C252.84 71.461 255.82 71.881 258.57 72.491C261.33 73.081 263.91 73.851 266.48 74.541C269.05 75.241 271.581 76.001 274.161 76.741C276.731 77.491 279.341 78.231 281.921 79.141C284.501 80.041 287.041 81.101 289.421 82.431C291.811 83.751 294.05 85.311 296.26 86.901C300.671 90.101 304.811 93.781 308.151 98.131C311.481 102.481 314.211 107.311 316.151 112.441C317.121 115.001 317.891 117.641 318.401 120.331C318.911 123.021 319.19 125.741 319.06 128.491C319.04 128.811 318.77 129.061 318.45 129.051C318.27 129.051 318.11 128.951 318.01 128.821C314.76 124.501 311.84 120.461 308.71 116.631C305.62 112.801 302.43 109.171 299.18 105.641C295.93 102.111 292.8 98.461 289.38 95.021C287.67 93.301 285.861 91.681 284.051 90.041C282.231 88.411 280.45 86.691 278.56 85.051C276.68 83.401 274.691 81.851 272.531 80.581C270.371 79.311 268.051 78.361 265.651 77.751C263.251 77.171 260.74 77.041 258.36 77.411C255.98 77.801 253.77 78.641 251.98 79.691C250.08 80.841 248.31 82.031 246.43 83.161C244.55 84.271 242.69 85.521 240.83 86.881C237.04 89.561 233.49 92.851 229.01 96.181C228.74 96.381 228.371 96.331 228.171 96.061C228.081 95.941 228.041 95.791 228.051 95.651H228.031Z" fill="#0E2980"/>
<path d="M96.8103 271.351C100.9 269.261 105.06 267.731 109.24 266.341C113.42 264.971 117.63 263.831 121.85 262.871C126.08 261.901 130.32 261.081 134.59 260.431C138.85 259.751 143.14 259.311 147.49 259.341C156.18 259.341 165.05 260.871 173.67 260.321C177.99 260.091 182.25 259.471 186.5 258.661C190.75 257.861 194.95 256.661 199.14 255.441C203.33 254.201 207.52 252.901 211.74 251.851C215.95 250.781 220.21 250.011 224.45 249.191C232.94 247.561 241.43 245.891 250.02 245.121C254.32 244.721 258.63 244.471 262.96 244.341C267.28 244.181 271.63 244.161 275.98 244.241C280.33 244.321 284.7 244.521 289.09 244.891C293.48 245.271 297.88 245.761 302.33 246.631C302.79 246.721 303.08 247.161 302.99 247.621C302.94 247.891 302.75 248.111 302.52 248.221C298.41 250.121 294.25 251.651 290.07 253.061C285.89 254.461 281.7 255.691 277.49 256.801C273.28 257.911 269.06 258.921 264.82 259.791C260.59 260.691 256.34 261.471 252.07 262.101C243.54 263.391 234.9 263.781 226.26 264.211C221.94 264.421 217.63 264.681 213.28 264.641C208.93 264.621 204.56 264.351 200.19 264.141C195.82 263.951 191.46 263.781 187.14 264.011C182.82 264.231 178.53 264.641 174.28 265.441C165.77 266.951 157.52 270.541 149.08 272.601C144.86 273.661 140.59 274.251 136.29 274.601C131.99 274.981 127.67 275.191 123.34 275.251C119 275.311 114.65 275.211 110.26 274.871C105.87 274.511 101.47 274.021 97.0003 272.951C96.5403 272.841 96.2603 272.381 96.3703 271.921C96.4303 271.671 96.6003 271.471 96.8103 271.361V271.351Z" fill="#0E2980"/>
</svg>
