<svg width="418" height="419" viewBox="0 0 418 419" fill="none" xmlns="http://www.w3.org/2000/svg">
<path d="M8.10517 165.775C29.7552 86.035 108.365 3.95499 214.155 6.78499C302.575 9.14499 377.125 69.935 403.675 147.975C406.795 157.155 437.055 251.355 376.965 332.405C307.885 425.585 187.175 409.985 178.545 408.725C172.175 407.795 55.6353 388.735 14.4653 286.615C-7.22473 232.825 3.21517 183.785 8.10517 165.785V165.775Z" fill="#FCDB00"/>
<path d="M7.38535 165.575C9.22535 159.125 11.1953 152.695 13.6353 146.445C14.7553 143.275 16.0853 140.195 17.3653 137.095C17.9853 135.535 18.7154 134.025 19.4154 132.495L21.5052 127.915C27.3352 115.815 34.1353 104.165 41.7953 93.065C57.1653 70.925 76.1953 51.0151 98.5653 35.2151C109.795 27.4151 121.785 20.5651 134.465 15.1551C136.055 14.4851 137.605 13.7351 139.235 13.1551L144.085 11.3451C147.295 10.0751 150.615 9.12502 153.895 8.04502C154.725 7.79502 155.535 7.51501 156.375 7.28501L158.885 6.62504L163.905 5.31504C165.565 4.83504 167.275 4.55502 168.965 4.17502L174.045 3.12504C187.645 0.575036 201.545 -0.364964 215.355 0.125036L220.535 0.405034C221.395 0.455034 222.265 0.485028 223.125 0.555028L225.705 0.795049L230.865 1.30503C232.575 1.51503 234.285 1.77505 235.995 2.01505C239.425 2.44505 242.815 3.11503 246.205 3.74503C247.905 4.03503 249.575 4.46507 251.265 4.84507C252.945 5.24507 254.625 5.60506 256.305 6.02506L261.295 7.39506L263.785 8.09507L266.245 8.88505L271.155 10.485C272.785 11.035 274.385 11.665 276.005 12.255C282.465 14.615 288.775 17.375 294.935 20.385C307.195 26.545 318.905 33.725 329.715 42.065C340.495 50.405 350.635 59.555 359.675 69.685C364.275 74.675 368.515 79.965 372.665 85.315C376.705 90.745 380.625 96.275 384.175 102.035C386.025 104.865 387.675 107.825 389.385 110.735C390.255 112.185 390.995 113.705 391.815 115.185C392.605 116.685 393.465 118.135 394.185 119.665C395.675 122.695 397.215 125.705 398.545 128.815C399.215 130.365 399.955 131.885 400.595 133.445L402.515 138.135C403.175 139.695 403.735 141.285 404.315 142.875L406.045 147.645C407.145 150.885 408.095 154.125 408.975 157.395C410.705 163.935 412.185 170.535 413.385 177.185C414.585 183.835 415.485 190.545 416.115 197.285C416.775 204.015 417.205 210.785 417.255 217.565C417.325 224.345 417.165 231.145 416.625 237.925C416.425 241.325 415.995 244.695 415.635 248.085C415.435 249.775 415.155 251.455 414.925 253.145C414.675 254.835 414.455 256.525 414.115 258.195C409.495 285.085 399.115 311.295 383.295 333.945C375.445 345.295 366.245 355.755 356.015 365.105C345.785 374.465 334.435 382.615 322.395 389.505C310.365 396.415 297.555 401.905 284.435 406.255C277.885 408.475 271.195 410.215 264.485 411.865C257.745 413.345 250.985 414.745 244.155 415.695C230.515 417.765 216.735 418.595 202.945 418.465C196.045 418.395 189.155 417.985 182.195 417.265C180.445 417.075 178.715 416.875 176.835 416.585C175.005 416.285 173.295 415.975 171.575 415.625C168.145 414.945 164.775 414.165 161.425 413.305C154.725 411.595 148.125 409.615 141.615 407.395C138.355 406.305 135.125 405.105 131.905 403.895C128.715 402.615 125.505 401.355 122.355 399.965C109.695 394.565 97.4954 388.035 85.8954 380.555C80.1554 376.725 74.5154 372.735 69.1454 368.375L65.1353 365.095L61.2552 361.665C58.6252 359.425 56.1854 356.965 53.7054 354.565C43.8654 344.855 35.2354 333.955 27.9354 322.295C13.3554 298.915 4.51535 272.435 1.38535 245.595C-0.184651 232.165 -0.38468 218.635 0.60532 205.225C1.69532 191.825 3.8954 178.525 7.4354 165.575H7.38535ZM8.8353 165.965C7.1353 172.405 5.7652 178.925 4.7352 185.505C3.7252 192.085 3.10522 198.725 2.75522 205.365C2.20522 218.655 3.00531 231.985 5.34531 245.005C5.48531 245.815 5.60522 246.635 5.75522 247.445L6.28525 249.865L7.35532 254.705C7.67532 256.325 8.14531 257.905 8.59531 259.495L9.9354 264.255C10.3454 265.845 10.9254 267.395 11.4554 268.955L13.0653 273.615C13.3453 274.385 13.5754 275.175 13.8954 275.935L14.8353 278.215L16.7154 282.765C21.8854 294.825 28.4554 306.215 36.1454 316.695C37.0554 318.045 38.0753 319.305 39.0853 320.575L42.1053 324.395C42.5953 325.035 43.1154 325.665 43.6654 326.265L45.2752 328.095L48.4852 331.745C50.7352 334.085 52.9852 336.415 55.2552 338.705L58.7853 342.045C59.9552 343.155 61.1153 344.285 62.3653 345.315C64.8353 347.405 67.2052 349.605 69.7752 351.565L73.5653 354.585L77.4752 357.455C82.6452 361.335 88.1053 364.825 93.5953 368.245C115.745 381.625 140.125 391.535 165.255 397.735C168.395 398.495 171.545 399.205 174.665 399.825C176.225 400.135 177.805 400.425 179.275 400.655C180.695 400.875 182.295 401.065 183.865 401.225C190.205 401.885 196.685 402.195 203.155 402.335C209.625 402.455 216.115 402.315 222.585 401.935C225.825 401.765 229.055 401.485 232.285 401.225C233.895 401.075 235.505 400.885 237.115 400.725L239.535 400.465L241.945 400.135C248.385 399.355 254.745 398.145 261.085 396.855C267.385 395.415 273.675 393.895 279.825 391.915C292.145 388.085 304.175 383.255 315.465 377.075C360.785 352.655 394.695 307.775 406.025 256.555C406.425 254.965 406.725 253.355 407.035 251.745C407.335 250.135 407.685 248.535 407.955 246.915C408.455 243.675 409.035 240.435 409.385 237.165C409.825 233.905 410.105 230.625 410.385 227.345C410.525 225.705 410.575 224.055 410.665 222.415C410.765 220.775 410.835 219.125 410.855 217.475C411.055 210.885 410.915 204.275 410.505 197.685C410.055 191.095 409.335 184.515 408.325 177.975C407.325 171.435 406.035 164.945 404.395 158.535C403.565 155.345 402.685 152.155 401.665 149.045L399.995 144.385C399.435 142.825 398.895 141.265 398.255 139.745C393.405 127.445 387.355 115.605 380.065 104.575C376.515 98.995 372.485 93.745 368.415 88.555L365.225 84.7651L363.625 82.875L361.965 81.045L358.645 77.385C357.505 76.195 356.335 75.025 355.185 73.855C345.915 64.475 335.715 56.075 324.855 48.725C323.525 47.775 322.125 46.9151 320.745 46.0251C319.355 45.1551 317.995 44.2451 316.595 43.3951L312.355 40.915L310.235 39.675L308.075 38.515L303.755 36.195L299.355 34.035C296.455 32.545 293.425 31.315 290.455 29.975C278.475 24.855 266.035 20.935 253.385 18.135C228.065 12.695 201.805 11.8451 176.345 16.1551C150.895 20.4651 126.215 29.675 103.795 43.165C92.5853 49.905 81.9753 57.7451 72.0953 66.4651C62.2253 75.2051 52.9953 84.7751 44.8553 95.2651C36.6753 105.715 29.4553 116.945 23.3253 128.765C20.3353 134.715 17.5353 140.765 15.1353 146.975C12.6453 153.155 10.6953 159.535 8.8353 165.925V165.965Z" fill="#0E2980"/>
<path d="M57.6652 172.245C57.9252 170.545 58.295 168.865 58.735 167.185C59.255 165.555 59.885 163.955 60.525 162.345C61.265 160.795 62.0652 159.265 62.8952 157.745C63.8152 156.295 64.7851 154.845 65.7851 153.425C66.8551 152.055 67.9951 150.745 69.1251 149.415C70.3651 148.195 71.5852 146.955 72.8852 145.785C74.2252 144.675 75.585 143.575 77.015 142.575C78.495 141.655 79.9951 140.755 81.5651 139.995C83.1751 139.295 84.7852 138.625 86.4352 138.085C88.1252 137.615 89.7752 137.105 91.4552 136.705C93.1652 136.375 94.815 135.965 96.475 135.625C97.315 135.475 98.1352 135.305 98.9652 135.145C99.7852 134.965 100.595 134.745 101.415 134.615C107.935 133.235 114.395 131.815 121.205 130.795C122.905 130.615 124.625 130.355 126.355 130.255C128.085 130.205 129.835 130.115 131.575 130.185C133.305 130.325 135.055 130.445 136.785 130.715C138.495 131.045 140.225 131.365 141.935 131.755C148.755 133.385 155.455 136.035 161.275 140.085C167.075 144.135 172.085 149.275 175.925 155.095C179.755 160.915 182.495 167.415 183.425 174.195C183.475 174.525 183.235 174.835 182.905 174.875C182.695 174.905 182.495 174.815 182.365 174.675C177.895 169.645 173.585 165.105 168.955 161.075C164.345 157.045 159.505 153.535 154.455 150.455C149.425 147.375 144.275 144.435 138.685 142.245C137.285 141.715 135.855 141.275 134.435 140.745C132.995 140.315 131.545 139.905 130.095 139.405C128.635 138.995 127.145 138.605 125.655 138.155C124.155 137.785 122.635 137.475 121.085 137.125C114.925 135.905 108.375 136.135 102.385 138.195C100.885 138.695 99.4551 139.405 98.0351 140.085C96.6351 140.815 95.305 141.715 93.995 142.565C92.705 143.465 91.465 144.455 90.225 145.365C89.015 146.345 87.8451 147.345 86.6251 148.245C85.4551 149.215 84.2851 150.175 83.0551 151.035C81.8851 151.975 80.6952 152.885 79.4652 153.745C78.3152 154.705 77.1252 155.635 75.9352 156.565C74.7952 157.555 73.6652 158.555 72.4652 159.515C71.3752 160.565 70.2151 161.585 69.0551 162.615C67.9651 163.705 66.8252 164.775 65.6652 165.855C64.5752 166.985 63.445 168.115 62.255 169.235C61.155 170.415 59.9952 171.585 58.7052 172.745L58.6752 172.775C58.4252 173.005 58.0451 172.985 57.8151 172.735C57.6851 172.595 57.6352 172.405 57.6652 172.235V172.245Z" fill="#0E2980"/>
<path d="M231.885 172.245C233.015 165.495 235.955 159.085 239.965 153.375C243.985 147.665 249.155 142.685 255.075 138.825C261.015 134.965 267.805 132.525 274.665 131.105C276.395 130.815 278.105 130.425 279.845 130.225C280.715 130.135 281.585 130.045 282.455 129.985C283.325 129.925 284.185 129.825 285.065 129.855C286.815 129.885 288.555 129.895 290.285 130.085C292.015 130.295 293.725 130.475 295.415 130.775C302.195 131.995 308.605 133.625 315.085 135.205C316.685 135.655 318.335 136.005 319.985 136.375C321.605 136.825 323.285 137.185 324.965 137.615C326.605 138.115 328.285 138.595 329.935 139.155C331.545 139.785 333.185 140.435 334.745 141.225C335.505 141.645 336.265 142.075 337.015 142.535C337.765 142.985 338.515 143.435 339.215 143.955C340.595 145.015 341.965 146.115 343.235 147.295C344.485 148.515 345.705 149.755 346.875 151.045C347.965 152.415 349.095 153.725 350.095 155.155C351.055 156.605 351.995 158.065 352.855 159.565C353.635 161.115 354.415 162.655 355.085 164.235C355.675 165.865 356.265 167.485 356.725 169.125C357.115 170.815 357.435 172.505 357.635 174.215C357.675 174.545 357.435 174.855 357.105 174.895C356.915 174.915 356.735 174.855 356.615 174.735L356.585 174.705C355.335 173.505 354.205 172.295 353.145 171.085C351.995 169.925 350.885 168.765 349.835 167.595C348.715 166.475 347.595 165.375 346.545 164.255C345.435 163.175 344.285 162.145 343.225 161.055C342.085 160.035 340.955 159.025 339.845 158.005C338.715 157.005 337.515 156.085 336.405 155.075C335.225 154.135 334.025 153.245 332.895 152.245C331.725 151.305 330.535 150.385 329.415 149.345C328.245 148.375 327.055 147.415 325.905 146.355C324.715 145.365 323.465 144.425 322.225 143.435C320.955 142.515 319.615 141.665 318.255 140.835C316.875 140.075 315.425 139.425 313.965 138.805C308.045 136.555 301.505 136.125 295.305 137.165C293.755 137.395 292.225 137.785 290.715 138.055C289.955 138.175 289.215 138.435 288.465 138.615C287.715 138.795 286.975 138.995 286.235 139.165C284.755 139.525 283.315 140.025 281.855 140.365C280.405 140.765 278.985 141.285 277.565 141.725C271.915 143.745 266.675 146.525 261.545 149.435C256.405 152.355 251.455 155.705 246.725 159.595C241.975 163.475 237.525 167.895 232.905 172.785C232.675 173.035 232.295 173.045 232.045 172.815C231.895 172.675 231.835 172.465 231.865 172.275L231.885 172.245Z" fill="#0E2980"/>
<path d="M114.105 226.265C116.005 228.355 117.695 230.475 119.385 232.555C121.215 234.555 122.825 236.645 124.585 238.605L127.225 241.515C128.095 242.485 128.905 243.485 129.855 244.385C130.765 245.305 131.645 246.255 132.535 247.175C132.975 247.635 133.425 248.105 133.845 248.575L135.235 249.905C137.125 251.635 138.815 253.545 140.785 255.155L143.595 257.715C144.515 258.585 145.535 259.335 146.495 260.155C147.465 260.965 148.445 261.755 149.395 262.585C150.375 263.375 151.405 264.105 152.365 264.925C153.345 265.715 154.315 266.535 155.275 267.355C156.285 268.105 157.275 268.895 158.265 269.695C159.275 270.455 160.185 271.395 161.235 272.115C162.245 272.895 163.275 273.655 164.285 274.475C166.275 276.165 168.465 277.525 170.615 279.045L172.245 280.165L173.945 281.135C175.085 281.785 176.235 282.415 177.395 283.035C179.725 284.275 182.205 285.135 184.675 286.075C187.175 286.905 189.755 287.455 192.325 288.015C193.625 288.235 194.935 288.375 196.245 288.515C197.555 288.665 198.855 288.795 200.165 288.885C202.795 288.885 205.425 288.875 208.035 288.685C209.335 288.545 210.635 288.395 211.925 288.215L215.775 287.525C220.865 286.455 225.775 284.915 230.535 283.215C235.295 281.495 239.965 279.685 244.455 277.465C253.455 273.015 261.645 267.215 269.715 261.125C277.815 255.045 285.595 248.285 293.235 241.085C297.055 237.485 300.835 233.765 304.635 229.975C308.445 226.195 312.235 222.305 316.235 218.455C316.565 218.135 317.085 218.145 317.405 218.475C317.625 218.695 317.685 219.015 317.605 219.295C315.965 224.635 313.795 229.765 311.335 234.755C308.865 239.745 306.045 244.575 302.915 249.225C296.665 258.525 289.155 267.145 280.365 274.505C271.545 281.835 261.225 287.495 250.315 291.405C244.865 293.365 239.255 294.945 233.525 295.745C227.795 296.565 221.995 296.635 216.325 296.275L212.085 295.935C210.675 295.755 209.285 295.595 207.885 295.445C206.495 295.275 205.115 295.015 203.735 294.815C202.355 294.635 200.985 294.405 199.605 294.255C196.875 293.725 194.155 293.235 191.435 292.785C190.095 292.465 188.745 292.165 187.385 291.885C186.045 291.575 184.655 291.435 183.315 291.065C181.975 290.715 180.615 290.445 179.265 290.125C177.905 289.835 176.515 289.595 175.175 289.205C173.825 288.855 172.465 288.505 171.085 288.185L169.015 287.695L166.985 287.095C164.285 286.255 161.485 285.525 158.845 284.425C157.505 283.925 156.185 283.355 154.845 282.815C154.175 282.545 153.535 282.225 152.905 281.895C152.265 281.575 151.625 281.235 150.995 280.895C149.725 280.215 148.465 279.525 147.225 278.785C146.005 278.025 144.855 277.165 143.685 276.335C142.515 275.495 141.355 274.655 140.245 273.735C139.165 272.785 138.125 271.795 137.065 270.835L135.485 269.375C134.945 268.895 134.435 268.395 133.965 267.855L131.065 264.685C130.105 263.625 129.155 262.555 128.305 261.405C127.425 260.275 126.565 259.135 125.735 257.975L124.475 256.255C124.085 255.655 123.715 255.045 123.335 254.435C122.595 253.215 121.835 252.005 121.115 250.785C119.655 248.345 118.525 245.715 117.315 243.175C117.015 242.535 116.745 241.885 116.505 241.215C116.255 240.555 116.015 239.885 115.785 239.215C115.305 237.885 114.855 236.545 114.425 235.215C113.665 232.495 113.105 229.705 112.645 226.945C112.575 226.495 112.875 226.075 113.325 225.995C113.605 225.945 113.885 226.055 114.065 226.245L114.115 226.295L114.105 226.265Z" fill="#0E2980"/>
</svg>
