<svg width="415" height="427" viewBox="0 0 415 427" fill="none" xmlns="http://www.w3.org/2000/svg">
<path d="M7.39799 162.012C9.39799 153.812 36.1881 51.1815 132.368 17.0115C192.968 -4.51847 246.898 13.2816 265.918 19.8716C288.438 27.6716 339.088 49.3716 374.668 102.862C381.718 113.462 435.448 197.362 397.568 292.702C364.088 376.942 284.988 404.932 272.598 409.082C267.568 410.772 158.088 445.322 71.318 369.972C8.20803 315.172 -9.46201 231.262 7.39799 162.012Z" fill="#FCDB00"/>
<path d="M6.66808 161.842C8.30808 155.262 10.4181 148.852 12.7181 142.512C14.9881 136.152 17.5681 129.912 20.3181 123.742C25.8281 111.402 32.2581 99.4616 39.5981 88.0516C40.4881 86.6116 41.4581 85.2216 42.4181 83.8116C43.3781 82.4116 44.2981 80.9817 45.2981 79.6117C47.2981 76.8617 49.2681 74.0817 51.3981 71.4317C55.5181 66.0017 60.0381 60.8817 64.6981 55.8517C74.1581 45.9617 84.6382 36.9218 96.1181 29.2118C97.5282 28.2118 99.0382 27.3617 100.498 26.4317C101.968 25.5217 103.428 24.5918 104.918 23.7018L109.468 21.1918C110.998 20.3718 112.478 19.4618 114.058 18.7418C120.258 15.6218 126.628 12.8118 133.178 10.4918L138.118 8.80162L140.588 7.96177C141.408 7.67177 142.238 7.40175 143.088 7.19175L153.188 4.4918L163.448 2.48179C164.298 2.30179 165.168 2.17163 166.028 2.07164L168.618 1.72178L173.808 1.05162C187.668 -0.438385 201.688 -0.318199 215.488 1.2418C218.928 1.7418 222.378 2.12177 225.798 2.71177C229.208 3.32177 232.628 3.91176 236.008 4.70176C242.788 6.13176 249.458 8.00165 256.028 10.0917C269.078 14.3017 281.978 19.5118 294.128 25.9818C306.328 32.3818 317.848 39.9918 328.598 48.5018C339.328 57.0518 349.308 66.5017 358.218 76.8517C362.728 81.9817 366.888 87.4017 370.898 92.9017L376.688 101.322C378.548 104.192 380.288 107.132 381.988 110.082C395.378 133.762 405.018 159.472 410.218 186.212C410.788 189.572 411.458 192.912 411.878 196.292C412.108 197.982 412.378 199.662 412.558 201.362L413.078 206.452C413.278 208.142 413.388 209.852 413.508 211.552C413.618 213.252 413.768 214.952 413.858 216.662L414.018 221.782L414.098 224.342L414.068 226.902C413.978 240.572 412.688 254.302 409.768 267.752C406.848 281.192 402.528 294.352 396.878 306.952C395.528 310.132 393.928 313.202 392.398 316.302C391.658 317.872 390.768 319.352 389.948 320.882C389.098 322.392 388.308 323.932 387.408 325.412C385.588 328.352 383.848 331.362 381.868 334.212C380.898 335.642 379.968 337.112 378.948 338.522L375.898 342.732C371.738 348.282 367.368 353.692 362.598 358.742C357.878 363.832 352.928 368.712 347.708 373.292C337.328 382.512 326.008 390.642 314.098 397.752C302.158 404.852 289.688 410.972 276.438 415.722C272.948 416.972 269.538 417.912 266.158 418.802C262.768 419.692 259.378 420.472 255.968 421.182C249.158 422.602 242.308 423.732 235.428 424.592C221.658 426.322 207.728 426.832 193.828 426.202C190.358 425.992 186.878 425.832 183.408 425.442C181.678 425.262 179.938 425.122 178.208 424.912L173.028 424.222L170.438 423.872L167.858 423.432L162.698 422.542C159.278 421.842 155.858 421.152 152.458 420.322C125.318 413.712 99.3781 401.482 77.3981 384.252C55.3381 367.162 37.2981 345.172 24.4881 320.742C18.1381 308.492 12.9781 295.692 9.16808 282.552C8.15808 279.282 7.35816 275.962 6.49816 272.652C6.09816 270.992 5.74815 269.322 5.36815 267.662L4.8181 265.162L4.34813 262.652C2.97813 255.972 2.0781 249.222 1.3181 242.472C-1.5219 215.462 0.218161 188.102 6.62816 161.862L6.66808 161.842ZM8.12816 162.192C1.81816 188.262 1.00815 215.602 5.36815 241.902C9.71815 268.222 19.3381 293.472 33.1881 315.772C61.0381 360.282 105.688 393.242 156.208 404.712C168.798 407.702 181.698 409.372 194.658 410.102C201.148 410.402 207.648 410.562 214.158 410.312C220.658 410.092 227.168 409.742 233.648 409.012C240.128 408.312 246.578 407.362 252.968 406.132C256.158 405.522 259.338 404.842 262.468 404.072C265.608 403.302 268.708 402.492 271.558 401.522C283.728 397.412 295.658 391.912 306.978 385.482C329.658 372.632 350.018 355.652 366.378 335.352C374.518 325.172 381.718 314.202 387.638 302.522C393.588 290.852 398.348 278.532 401.778 265.822C408.548 240.382 409.658 213.322 405.188 187.102C400.778 160.882 391.328 135.412 377.798 112.512C376.108 109.652 374.328 106.852 372.448 104.132L366.578 96.0816C362.468 90.8716 358.268 85.7318 353.648 80.9718C344.498 71.3818 334.458 62.6817 323.638 55.1217C322.278 54.1817 320.968 53.1816 319.568 52.3016L315.408 49.6217C312.668 47.7817 309.768 46.2016 306.948 44.5116C305.548 43.6516 304.078 42.9017 302.628 42.1217L298.278 39.7916L293.848 37.6117L291.638 36.5216L289.388 35.5018C283.428 32.7318 277.338 30.2616 271.188 28.0316C265.058 25.8116 258.688 23.8716 252.388 22.0716C239.768 18.5116 226.928 16.0116 213.988 14.5816C201.048 13.2616 188.008 13.0916 175.098 14.2716C162.188 15.4116 149.378 17.8916 136.988 21.8316C124.578 25.6716 112.468 30.7416 101.138 37.3216C89.7882 43.8516 79.0881 51.6516 69.2781 60.5316C59.5281 69.4716 50.5681 79.4018 42.7181 90.2018C34.8381 100.972 27.9581 112.522 22.1481 124.602C16.3581 136.672 11.4682 149.262 8.11815 162.212L8.12816 162.192Z" fill="#0E2980"/>
<path d="M91.3682 276.842C95.4582 273.452 99.8582 270.552 104.378 267.872C106.648 266.542 108.958 265.302 111.288 264.092C113.648 262.952 115.988 261.752 118.398 260.732C123.198 258.622 128.098 256.712 133.088 255.122C135.578 254.312 138.078 253.492 140.638 252.912C143.188 252.282 145.748 251.712 148.348 251.332C158.748 249.672 169.358 249.712 179.638 248.612C182.208 248.322 184.798 248.102 187.358 247.732C188.648 247.582 189.918 247.362 191.208 247.192C192.498 247.052 193.778 246.852 195.068 246.682C200.198 245.882 205.348 245.092 210.528 244.212C215.658 243.412 220.788 242.632 225.938 242.052C231.088 241.462 236.248 241.142 241.418 240.802C251.748 240.122 262.128 239.572 272.548 240.012C282.958 240.492 293.398 241.552 303.758 243.642C308.928 244.692 314.078 245.972 319.118 247.702C321.638 248.542 324.118 249.572 326.558 250.632C328.978 251.762 331.348 252.992 333.578 254.442C333.888 254.642 333.968 255.052 333.768 255.362C333.618 255.582 333.368 255.692 333.118 255.652C327.958 254.912 322.918 254.462 317.848 254.222C312.788 253.952 307.728 253.862 302.678 253.802C292.568 253.722 282.428 253.832 272.268 253.872C262.108 253.892 251.898 253.442 241.658 253.132C236.538 252.972 231.408 252.912 226.268 252.622C221.128 252.352 215.978 251.912 210.828 251.512C208.278 251.362 205.718 251.192 203.158 251.082C200.598 250.922 198.038 251.042 195.488 251.082C194.208 251.142 192.928 251.172 191.658 251.252C190.388 251.352 189.108 251.472 187.838 251.612C186.568 251.752 185.298 251.892 184.028 252.062L182.128 252.322L180.238 252.682C170.138 254.392 160.528 258.472 150.958 261.762C148.548 262.522 146.168 263.402 143.738 264.092C141.318 264.812 138.898 265.522 136.458 266.172L121.848 270.262L114.498 272.292L110.808 273.312C109.568 273.642 108.328 273.952 107.098 274.302C102.128 275.602 97.1481 276.942 91.9481 277.982C91.5881 278.062 91.2281 277.822 91.1581 277.462C91.1081 277.212 91.2082 276.962 91.3882 276.812L91.3682 276.842Z" fill="#0E2980"/>
<path d="M248.678 141.792C250.948 135.192 256.528 119.002 269.648 113.412C282.128 108.102 297.308 114.152 305.668 129.022C316.898 148.992 309.088 172.862 307.818 176.552C306.718 179.752 299.498 201.192 283.088 204.932C265.358 208.972 247.878 189.882 244.918 169.462C243.208 157.682 246.658 147.662 248.678 141.792Z" fill="white"/>
<path d="M248.388 141.702C250.098 136.692 251.938 131.712 254.378 126.922C255.628 124.542 257.038 122.232 258.678 120.022C260.328 117.822 262.288 115.812 264.518 114.062C268.998 110.592 274.918 108.562 280.768 108.952C283.688 109.092 286.578 109.712 289.258 110.812C291.948 111.872 294.458 113.332 296.688 115.092C301.228 118.562 304.558 123.232 307.038 128.112C309.438 133.062 310.968 138.332 311.758 143.652C312.578 148.972 312.748 154.352 312.368 159.702C311.968 165.052 311.208 170.372 309.848 175.622C308.458 180.842 306.568 186.002 303.858 190.812C301.168 195.612 297.618 200.142 292.888 203.592C290.508 205.272 287.858 206.702 284.968 207.542C282.088 208.382 279.038 208.742 276.038 208.512C273.028 208.292 270.108 207.512 267.398 206.362C264.688 205.202 262.198 203.652 259.938 201.882C255.418 198.312 251.778 193.882 249.008 189.022C247.628 186.582 246.488 184.022 245.598 181.392C244.668 178.772 244.048 176.052 243.618 173.322C243.208 170.592 243.068 167.822 243.138 165.102C243.228 162.372 243.538 159.682 244.008 157.032C244.978 151.742 246.628 146.672 248.398 141.692L248.388 141.702ZM248.958 141.902C247.218 146.882 245.908 152.022 245.628 157.242C245.288 162.452 245.998 167.632 247.498 172.462C248.988 177.312 251.248 181.852 253.968 186.012C256.688 190.172 259.998 193.912 263.848 196.822C267.668 199.752 272.068 201.762 276.588 202.272C281.118 202.762 285.718 201.542 289.668 198.932C293.628 196.302 296.958 192.502 299.748 188.312C302.538 184.092 304.908 179.492 306.708 174.642C308.488 169.802 309.768 164.702 310.338 159.532C310.938 154.362 310.848 149.092 309.858 143.992C309.568 142.732 309.308 141.452 308.928 140.222C308.508 139.002 308.188 137.752 307.678 136.562C307.138 135.392 306.658 134.202 306.078 133.062C305.448 131.952 304.818 130.842 304.168 129.752C302.718 127.662 301.228 125.612 299.438 123.872C298.598 122.942 297.628 122.162 296.728 121.322C295.738 120.582 294.798 119.782 293.768 119.142C291.778 117.722 289.568 116.692 287.348 115.842C285.118 114.972 282.778 114.462 280.438 114.272C278.098 114.072 275.708 114.162 273.388 114.692C272.798 114.772 272.228 114.962 271.658 115.132C271.088 115.312 270.498 115.432 269.948 115.692L268.268 116.372L266.648 117.232C262.348 119.632 258.628 123.382 255.718 127.702C252.778 132.022 250.648 136.892 248.968 141.892L248.958 141.902Z" fill="#0E2980"/>
<path d="M98.8583 141.792C101.128 135.192 106.708 119.002 119.828 113.412C132.308 108.102 147.488 114.152 155.848 129.022C167.078 148.992 159.268 172.862 157.998 176.552C156.898 179.752 149.678 201.192 133.268 204.932C115.538 208.972 98.0583 189.882 95.0983 169.462C93.3883 157.682 96.8383 147.662 98.8583 141.792Z" fill="white"/>
<path d="M98.5783 141.702C100.288 136.692 102.128 131.712 104.568 126.922C105.818 124.542 107.228 122.232 108.868 120.022C110.518 117.822 112.478 115.812 114.708 114.062C119.188 110.592 125.108 108.562 130.958 108.952C133.878 109.092 136.768 109.712 139.448 110.812C142.138 111.872 144.648 113.332 146.878 115.092C151.418 118.562 154.748 123.232 157.228 128.112C159.628 133.062 161.158 138.332 161.948 143.652C162.768 148.972 162.938 154.352 162.558 159.702C162.158 165.052 161.398 170.372 160.038 175.622C158.648 180.842 156.758 186.002 154.048 190.812C151.358 195.612 147.808 200.142 143.078 203.592C140.698 205.272 138.048 206.702 135.158 207.542C132.278 208.382 129.228 208.742 126.228 208.512C123.218 208.292 120.298 207.512 117.588 206.362C114.878 205.202 112.388 203.652 110.128 201.882C105.608 198.312 101.968 193.882 99.1983 189.022C97.8183 186.582 96.6782 184.022 95.7882 181.392C94.8582 178.772 94.2382 176.052 93.8082 173.322C93.3982 170.592 93.2583 167.822 93.3283 165.102C93.4183 162.372 93.7283 159.682 94.1983 157.032C95.1683 151.742 96.8183 146.672 98.5883 141.692L98.5783 141.702ZM99.1482 141.902C97.4082 146.882 96.0983 152.022 95.8183 157.242C95.4783 162.452 96.1883 167.632 97.6883 172.462C99.1783 177.312 101.438 181.852 104.158 186.012C106.878 190.172 110.188 193.912 114.038 196.822C117.858 199.752 122.258 201.762 126.778 202.272C131.308 202.762 135.908 201.542 139.858 198.932C143.818 196.302 147.148 192.502 149.938 188.312C152.728 184.092 155.098 179.492 156.898 174.642C158.678 169.802 159.948 164.702 160.528 159.532C161.128 154.362 161.038 149.092 160.048 143.992C159.758 142.732 159.498 141.452 159.118 140.222C158.698 139.002 158.378 137.752 157.868 136.562C157.328 135.392 156.848 134.202 156.268 133.062C155.638 131.952 155.008 130.842 154.358 129.752C152.908 127.662 151.418 125.612 149.628 123.872C148.788 122.942 147.818 122.162 146.918 121.322C145.928 120.582 144.988 119.782 143.958 119.142C141.968 117.722 139.758 116.692 137.538 115.842C135.308 114.972 132.968 114.462 130.628 114.272C128.288 114.072 125.898 114.162 123.578 114.692C122.988 114.772 122.418 114.962 121.848 115.132C121.278 115.312 120.688 115.432 120.138 115.692L118.458 116.372L116.838 117.232C112.538 119.632 108.818 123.382 105.908 127.702C102.968 132.022 100.838 136.892 99.1582 141.892L99.1482 141.902Z" fill="#0E2980"/>
<path d="M101.898 132.972C102.898 130.762 105.368 125.342 111.158 123.482C116.668 121.702 123.368 123.732 127.058 128.702C132.018 135.382 128.568 143.362 128.008 144.602C127.518 145.672 124.338 152.842 117.088 154.092C109.258 155.442 101.548 149.062 100.238 142.222C99.4882 138.282 101.008 134.932 101.898 132.962V132.972Z" fill="#0E2980"/>
<path d="M252.248 132.972C253.248 130.762 255.718 125.342 261.508 123.482C267.018 121.702 273.718 123.732 277.408 128.702C282.368 135.382 278.918 143.362 278.358 144.602C277.868 145.672 274.688 152.842 267.438 154.092C259.608 155.442 251.898 149.062 250.588 142.222C249.838 138.282 251.358 134.932 252.248 132.962V132.972Z" fill="#0E2980"/>
</svg>
