<svg width="418" height="426" viewBox="0 0 418 426" fill="none" xmlns="http://www.w3.org/2000/svg">
<path d="M1.78771 189.569C12.0877 87.5786 102.068 17.2886 190.038 7.67862C284.418 -2.63138 350.158 59.7587 354.118 63.6487C413.028 121.439 413.968 195.429 413.898 215.009C413.848 230.349 413.528 319.259 342.668 376.549C276.928 429.699 186.258 426.689 121.348 394.359C51.2678 359.449 -7.45229 281.029 1.78771 189.579V189.569Z" fill="#FCDB00"/>
<path d="M1.04778 189.489C3.81778 162.499 12.0777 136.119 25.1277 112.149C38.1477 88.1587 56.0378 66.6887 77.2378 49.0087C87.9178 40.2687 99.3678 32.3986 111.528 25.7286C117.578 22.3386 123.878 19.3986 130.218 16.5686C133.438 15.2786 136.648 13.9286 139.908 12.7186L144.818 10.9587C145.638 10.6687 146.448 10.3586 147.278 10.0986L149.778 9.32866C163.058 5.17866 176.758 2.18865 190.678 0.878647C204.588 -0.461353 218.648 -0.261365 232.478 1.42864C239.388 2.35863 246.258 3.52865 253.008 5.18864C256.408 5.91864 259.738 6.91864 263.088 7.80864C264.758 8.28864 266.408 8.82861 268.058 9.33861L270.538 10.1186L272.988 10.9786C286.068 15.5286 298.668 21.2986 310.608 28.1186C322.548 34.9386 333.938 42.6586 344.528 51.3786C347.158 53.5786 349.778 55.7886 352.318 58.1186C353.598 59.2786 354.838 60.4586 356.088 61.7186L359.618 65.4487L361.388 67.3086L363.088 69.2386L366.478 73.0886L369.718 77.0686C370.818 78.3786 371.858 79.7386 372.888 81.0986C381.228 91.9486 388.418 103.639 394.428 115.919C400.478 128.179 405.178 141.059 408.878 154.209C410.698 160.799 412.218 167.469 413.438 174.199C414.688 180.919 415.658 187.699 416.338 194.519C416.998 201.329 417.368 208.199 417.508 215.029C417.658 221.859 417.538 228.759 417.108 235.609C416.258 249.329 414.268 262.989 411.118 276.449C407.948 289.889 403.578 303.129 397.758 315.769C392.078 328.489 384.748 340.489 376.358 351.699C367.848 362.829 358.028 372.989 347.248 381.979C341.778 386.369 336.198 390.659 330.258 394.429C327.358 396.409 324.288 398.139 321.278 399.959C319.768 400.859 318.198 401.649 316.658 402.499C315.108 403.329 313.578 404.199 311.978 404.939L307.228 407.239C305.648 407.999 304.018 408.659 302.408 409.379C299.208 410.839 295.898 412.029 292.628 413.319C286.008 415.669 279.318 417.879 272.488 419.529C245.228 426.439 216.678 427.489 189.028 423.459C182.118 422.429 175.238 421.159 168.448 419.509C165.038 418.749 161.678 417.789 158.308 416.879C154.968 415.839 151.608 414.899 148.318 413.719C135.078 409.269 122.228 403.579 110.088 396.649L105.568 393.999C104.058 393.119 102.618 392.139 101.138 391.219C98.1677 389.389 95.3378 387.359 92.4578 385.399C86.8278 381.299 81.2878 377.099 76.0678 372.499C65.5178 363.469 55.9978 353.309 47.3378 342.559C38.7178 331.759 31.2078 320.139 24.7078 308.049L22.3777 303.459L21.2178 301.169L20.1377 298.839L17.9878 294.169C17.2978 292.599 16.6677 291.009 15.9977 289.429C14.6277 286.299 13.4878 283.059 12.2778 279.869C11.6578 278.279 11.1777 276.629 10.6277 275.019C10.1077 273.389 9.49778 271.799 9.04778 270.149C5.11778 257.079 2.28784 243.699 0.987845 230.169C0.737845 226.779 0.337733 223.409 0.247733 220.009L0.0177521 214.919V209.829C-0.0622479 206.439 0.147742 203.049 0.257742 199.659C0.287742 197.959 0.47784 196.279 0.60784 194.589L1.02776 189.519L1.04778 189.489ZM2.53777 189.639L2.16778 194.669C2.05778 196.349 1.87785 198.019 1.86785 199.699C1.79785 203.059 1.58784 206.419 1.73784 209.779L1.84783 214.819L2.1878 219.849C2.3478 223.209 2.8078 226.539 3.1878 229.869C3.3478 231.539 3.6878 233.189 3.9378 234.849C4.2178 236.499 4.44775 238.169 4.76775 239.809L5.79778 244.729L6.32781 247.189L6.95782 249.629L8.20782 254.499C8.66782 256.109 9.16777 257.709 9.65777 259.309C10.5878 262.529 11.7877 265.659 12.8877 268.809C17.5277 281.359 23.6378 293.299 30.6678 304.579C37.8078 315.799 45.9478 326.339 54.9278 336.039C63.9178 345.729 73.6877 354.649 84.1277 362.629C94.5177 370.669 105.588 377.769 117.118 383.889C140.158 396.109 165.458 404.039 191.278 407.569C217.098 411.169 243.518 410.169 268.778 404.269C294.058 398.419 317.928 386.969 338.328 370.919C348.478 362.829 357.698 353.599 365.888 343.489C373.988 333.309 381.018 322.239 386.898 310.539C387.648 309.079 388.388 307.619 389.058 306.119C389.738 304.629 390.448 303.149 391.118 301.649C392.408 298.629 393.718 295.619 394.868 292.529C397.248 286.399 399.418 280.159 401.218 273.809C404.868 261.119 407.448 248.059 408.938 234.859C411.768 208.459 410.598 181.369 403.968 155.469C397.518 129.569 385.768 104.889 369.088 84.0386C367.078 81.3786 364.808 78.9186 362.658 76.3786L359.248 72.7186L357.548 70.8887L355.778 69.1286L352.218 65.6286C351.048 64.5387 349.798 63.4386 348.538 62.3686C346.008 60.2286 343.408 58.1586 340.738 56.1686C330.048 48.2386 318.658 41.2286 306.738 35.3786C282.938 23.5986 257.198 16.1487 231.148 13.8287C218.118 12.7287 205.018 12.8387 192.048 14.2087C190.418 14.3187 188.808 14.6186 187.198 14.8186C185.578 15.0386 183.958 15.2186 182.348 15.4686L177.518 16.3086L175.108 16.7286C174.308 16.8786 173.508 17.0686 172.708 17.2386C169.518 17.9286 166.308 18.5686 163.148 19.4186C161.568 19.8286 159.968 20.1886 158.398 20.6286L153.688 22.0087C141.118 25.6987 128.868 30.5287 117.058 36.3287C105.258 42.1387 93.8278 48.8086 83.0878 56.5386C72.3578 64.2686 62.2378 72.9386 53.0278 82.5486C43.8178 92.1486 35.4278 102.629 28.4078 114.029C21.3378 125.389 15.5178 137.579 11.1578 150.279C8.92777 156.619 7.22783 163.129 5.71783 169.689L5.42779 170.919L5.19781 172.159L4.74773 174.639L3.85784 179.609C3.36784 182.939 2.98777 186.279 2.53777 189.609V189.639Z" fill="#0E2980"/>
<path d="M98.4779 118.129C101.878 118.979 104.988 120.209 108.038 121.529C111.078 122.869 113.998 124.369 116.828 125.979C119.658 127.599 122.438 129.299 125.098 131.149C127.808 132.929 130.328 134.979 132.678 137.269C135.018 139.569 137.178 142.109 139.398 144.559C141.608 147.039 143.938 149.339 146.458 151.389C151.498 155.489 157.238 158.619 163.258 161.379C164.938 162.149 165.668 164.129 164.898 165.809C164.638 166.369 164.248 166.829 163.778 167.149L162.558 167.999C159.948 169.809 157.338 171.609 154.648 173.239C151.958 174.869 149.178 176.289 146.438 177.799C140.938 180.779 135.438 183.749 129.638 186.049C123.828 188.329 117.898 190.339 111.798 191.979C105.698 193.599 99.4878 194.999 92.9078 195.549C92.5278 195.579 92.1978 195.299 92.1678 194.919C92.1478 194.699 92.2378 194.499 92.3778 194.359C97.1878 189.839 102.378 186.149 107.658 182.699C112.948 179.259 118.408 176.189 123.998 173.399C129.588 170.619 135.478 168.509 141.368 166.419C144.318 165.389 147.238 164.269 150.248 163.359C153.258 162.449 156.338 161.709 159.428 160.979L158.728 167.599C154.258 162.719 149.518 158.209 144.068 154.669C141.348 152.899 138.438 151.379 135.408 150.039C132.388 148.679 129.308 147.399 126.408 145.879C123.518 144.349 120.788 142.579 118.258 140.539C115.688 138.569 113.218 136.449 110.808 134.249C108.398 132.049 106.078 129.729 103.878 127.239C101.688 124.739 99.5579 122.159 97.7079 119.189C97.5079 118.859 97.6078 118.429 97.9378 118.219C98.1078 118.119 98.2979 118.089 98.4779 118.139V118.129Z" fill="#0E2980"/>
<path d="M317.018 119.179C313.098 124.809 308.618 129.679 303.968 134.309C299.298 138.909 294.418 143.229 289.288 147.199C284.128 151.139 278.568 154.509 273.028 157.919C270.268 159.639 267.498 161.339 264.568 162.819C261.648 164.319 258.638 165.699 255.678 167.139L255.078 161.469C260.298 165.069 265.778 168.089 271.718 170.089C277.628 172.149 284.178 172.769 290.158 174.669C293.168 175.589 296.018 176.829 298.798 178.249C301.598 179.629 304.348 181.109 307.038 182.739C309.728 184.349 312.378 186.089 314.938 187.989C317.498 189.909 320.018 191.919 322.348 194.349C322.618 194.629 322.608 195.069 322.328 195.339C322.188 195.479 321.998 195.539 321.818 195.539C318.458 195.429 315.278 194.899 312.138 194.279C309.008 193.639 305.958 192.839 302.958 191.909C299.948 190.999 297.008 189.939 294.108 188.779C291.198 187.659 288.358 186.369 285.668 184.749C280.258 181.569 275.418 177.119 269.938 174.099C264.478 171.029 258.568 168.969 252.408 167.489C250.858 167.119 249.898 165.559 250.268 163.999C250.388 163.489 250.648 163.039 250.988 162.679L251.818 161.819C254.098 159.439 256.328 156.999 258.658 154.679C260.968 152.349 263.438 150.229 265.918 148.129C270.858 143.899 275.778 139.639 281.108 135.939C286.458 132.269 292.068 128.949 297.878 125.919C303.708 122.909 309.718 120.139 316.278 118.139C316.638 118.029 317.028 118.229 317.138 118.599C317.198 118.809 317.158 119.029 317.048 119.189L317.018 119.179Z" fill="#0E2980"/>
<path d="M322.168 220.509C324.228 280.639 279.478 332.809 220.278 339.929C160.238 347.159 103.778 305.849 92.4976 245.869C119.228 251.649 158.598 257.009 205.748 252.279C256.528 247.189 296.428 232.389 322.168 220.499V220.509Z" fill="white"/>
<path d="M322.508 219.959C322.788 221.649 323.238 223.749 323.418 225.909C323.548 227.799 323.618 229.589 323.698 231.439C323.728 233.279 323.698 235.119 323.698 236.969C323.638 238.809 323.478 240.649 323.368 242.499C322.758 249.879 321.388 257.239 319.228 264.389C314.958 278.719 307.698 292.269 298.068 303.919C293.248 309.739 287.878 315.139 281.998 319.919C276.128 324.709 269.788 328.969 263.038 332.429C256.298 335.909 249.188 338.679 241.868 340.579C238.208 341.539 234.518 342.329 230.798 342.919C227.078 343.489 223.338 343.869 219.598 344.089C212.118 344.519 204.638 344.189 197.278 343.279C189.928 342.309 182.678 340.789 175.638 338.659C161.528 334.479 148.168 327.989 136.118 319.509C124.058 311.049 113.288 300.519 104.718 288.219C96.1179 275.949 89.9379 261.809 86.8179 246.959C86.1679 243.879 88.1479 240.849 91.2279 240.199C91.9779 240.039 92.7279 240.039 93.4479 240.169L93.7279 240.229C112.668 243.859 131.858 246.049 151.068 246.739C155.868 246.929 160.678 247.059 165.478 247.079C167.878 247.079 170.278 247.129 172.688 247.099L179.898 246.989L187.098 246.769C189.498 246.689 191.898 246.519 194.298 246.409C196.698 246.329 199.098 246.119 201.498 245.969L205.098 245.719L208.688 245.379C211.078 245.139 213.488 245.009 215.878 244.719L223.058 243.919C227.828 243.289 232.608 242.639 237.368 241.859L240.948 241.309L244.518 240.689C246.898 240.279 249.278 239.869 251.648 239.379C254.018 238.889 256.398 238.469 258.748 237.929C261.108 237.419 263.488 236.949 265.848 236.399C268.208 235.839 270.568 235.309 272.918 234.729L279.968 232.929L287.008 231.039C289.338 230.359 291.688 229.709 294.018 228.999C298.698 227.629 303.348 226.169 307.988 224.639C310.318 223.899 312.628 223.109 314.948 222.309L316.688 221.729C317.358 221.489 318.048 221.249 318.718 221.039C320.078 220.609 321.368 220.289 322.518 219.949L322.508 219.959ZM321.828 221.069C320.748 221.739 319.808 222.429 318.928 223.009C318.488 223.299 318.058 223.569 317.608 223.839L315.978 224.719C313.808 225.889 311.618 227.029 309.408 228.139C305.008 230.389 300.518 232.439 296.008 234.479C293.748 235.479 291.458 236.409 289.178 237.379L282.278 240.139C279.968 241.039 277.628 241.849 275.298 242.709C272.958 243.539 270.608 244.309 268.258 245.109C265.908 245.909 263.528 246.619 261.158 247.369C258.788 248.119 256.378 248.729 253.988 249.419C251.598 250.109 249.188 250.709 246.778 251.319L243.158 252.239L239.518 253.079C229.808 255.269 219.988 257.039 210.098 258.359L206.388 258.849L202.668 259.249C200.188 259.499 197.708 259.809 195.218 259.989C192.728 260.169 190.238 260.389 187.748 260.529L180.268 260.909L172.778 261.059C170.278 261.089 167.788 261.059 165.288 261.059C160.298 260.959 155.308 260.799 150.328 260.479C140.368 259.799 130.438 258.759 120.578 257.269C110.728 255.759 100.938 253.849 91.2478 251.549L98.1578 244.819C100.398 258.369 104.928 271.609 111.728 283.799C118.538 295.969 127.728 306.999 138.848 315.799C149.958 324.589 162.978 331.079 176.728 334.589C190.498 338.089 204.918 338.399 218.668 336.029C222.108 335.439 225.508 334.709 228.868 333.799C232.218 332.909 235.538 331.909 238.778 330.729C245.268 328.369 251.548 325.549 257.558 322.239C263.558 318.909 269.328 315.179 274.738 310.939C280.128 306.679 285.188 301.989 289.798 296.869C299.038 286.629 306.548 274.759 311.918 261.849C314.588 255.389 316.768 248.679 318.358 241.769L319.428 236.559C319.718 234.809 320.048 233.049 320.318 231.289L320.998 225.989C321.138 224.539 321.558 223.019 321.798 221.109L321.828 221.069Z" fill="#0E2980"/>
<path d="M139.048 252.789C140.568 255.559 141.278 258.329 141.768 261.099C141.998 262.479 142.148 263.869 142.208 265.249C142.318 266.629 142.248 268.019 141.988 269.399C141.468 272.169 140.178 274.939 139.938 277.709C139.668 280.479 140.068 283.249 140.838 286.019C141.208 287.399 141.598 288.789 141.868 290.169C142.148 291.549 142.278 292.939 142.428 294.319C142.738 297.089 143.048 299.859 142.918 302.629C142.768 305.399 142.408 308.169 141.808 310.939C141.188 313.709 140.408 316.479 139.048 319.249C138.938 319.469 138.668 319.559 138.448 319.449C138.358 319.399 138.288 319.329 138.248 319.249C136.888 316.479 136.098 313.709 135.488 310.939C134.888 308.169 134.518 305.399 134.378 302.629C134.258 299.859 134.568 297.089 134.868 294.319C135.018 292.939 135.148 291.549 135.428 290.169C135.698 288.789 136.088 287.399 136.458 286.019C137.228 283.249 137.628 280.479 137.358 277.709C137.128 274.939 135.828 272.169 135.308 269.399C135.048 268.019 134.978 266.629 135.088 265.249C135.148 263.869 135.298 262.479 135.528 261.099C136.008 258.329 136.718 255.559 138.248 252.789C138.368 252.569 138.648 252.489 138.868 252.609C138.948 252.649 139.008 252.719 139.048 252.789Z" fill="#0E2980"/>
<path d="M178.478 252.789C179.998 256.319 180.708 259.849 181.198 263.389C181.428 265.159 181.578 266.919 181.638 268.689C181.738 270.459 181.668 272.219 181.418 273.989C180.898 277.519 179.608 281.049 179.368 284.589C179.098 288.119 179.498 291.649 180.268 295.189C180.638 296.959 181.028 298.719 181.298 300.489C181.578 302.259 181.708 304.019 181.858 305.789C182.168 309.319 182.478 312.849 182.348 316.389C182.208 319.919 181.838 323.449 181.238 326.989C180.618 330.519 179.838 334.049 178.478 337.589C178.398 337.809 178.148 337.919 177.928 337.839C177.808 337.789 177.728 337.699 177.678 337.589C176.318 334.059 175.528 330.529 174.918 326.989C174.318 323.459 173.948 319.929 173.808 316.389C173.678 312.859 173.998 309.329 174.298 305.789C174.448 304.019 174.578 302.259 174.858 300.489C175.128 298.719 175.518 296.959 175.888 295.189C176.658 291.659 177.058 288.129 176.788 284.589C176.558 281.059 175.258 277.529 174.738 273.989C174.478 272.219 174.418 270.459 174.518 268.689C174.578 266.919 174.728 265.159 174.958 263.389C175.438 259.859 176.148 256.329 177.678 252.789C177.778 252.569 178.028 252.469 178.248 252.559C178.358 252.609 178.428 252.689 178.478 252.789Z" fill="#0E2980"/>
<path d="M220.368 252.789C221.888 256.419 222.598 260.049 223.088 263.679C223.318 265.499 223.468 267.309 223.528 269.129C223.628 270.949 223.568 272.759 223.308 274.579C222.788 278.209 221.498 281.839 221.258 285.469C220.988 289.099 221.388 292.729 222.158 296.359C222.528 298.179 222.918 299.989 223.188 301.809C223.468 303.629 223.598 305.439 223.748 307.259C224.058 310.889 224.368 314.519 224.238 318.149C224.098 321.779 223.728 325.409 223.128 329.039C222.508 332.669 221.728 336.299 220.368 339.929C220.288 340.149 220.038 340.259 219.818 340.179C219.698 340.139 219.608 340.039 219.568 339.929C218.208 336.299 217.418 332.669 216.808 329.039C216.208 325.409 215.838 321.779 215.698 318.149C215.568 314.519 215.888 310.889 216.188 307.259C216.338 305.439 216.468 303.629 216.748 301.809C217.018 299.989 217.408 298.179 217.778 296.359C218.548 292.729 218.948 289.099 218.678 285.469C218.448 281.839 217.148 278.209 216.628 274.579C216.368 272.759 216.308 270.949 216.408 269.129C216.468 267.309 216.618 265.499 216.848 263.679C217.328 260.049 218.038 256.419 219.568 252.789C219.658 252.569 219.918 252.469 220.138 252.559C220.248 252.609 220.328 252.689 220.368 252.789Z" fill="#0E2980"/>
<path d="M259.808 242.799C261.328 246.339 262.038 249.879 262.528 253.429C262.758 255.199 262.908 256.969 262.968 258.739C263.068 260.509 263.008 262.279 262.748 264.049C262.228 267.589 260.938 271.129 260.698 274.679C260.428 278.219 260.828 281.759 261.598 285.309C261.968 287.079 262.358 288.849 262.628 290.619C262.908 292.389 263.038 294.159 263.188 295.929C263.498 299.469 263.808 303.009 263.678 306.559C263.538 310.099 263.168 313.639 262.568 317.189C261.948 320.729 261.168 324.269 259.808 327.819C259.728 328.039 259.478 328.149 259.258 328.069C259.138 328.019 259.058 327.929 259.008 327.819C257.648 324.279 256.858 320.739 256.248 317.189C255.648 313.649 255.278 310.109 255.138 306.559C255.008 303.019 255.328 299.479 255.628 295.929C255.778 294.159 255.908 292.389 256.188 290.619C256.458 288.849 256.848 287.079 257.218 285.309C257.988 281.769 258.388 278.229 258.118 274.679C257.888 271.139 256.588 267.599 256.068 264.049C255.808 262.279 255.748 260.509 255.848 258.739C255.908 256.969 256.058 255.199 256.288 253.429C256.768 249.889 257.478 246.349 258.998 242.799C259.098 242.579 259.348 242.479 259.568 242.569C259.678 242.619 259.758 242.699 259.798 242.799H259.808Z" fill="#0E2980"/>
<path d="M296.128 232.539C297.648 235.309 298.358 238.079 298.848 240.849C299.078 242.229 299.228 243.619 299.288 244.999C299.398 246.379 299.328 247.769 299.068 249.149C298.548 251.919 297.258 254.689 297.018 257.459C296.748 260.229 297.148 262.999 297.918 265.769C298.288 267.149 298.678 268.539 298.948 269.919C299.228 271.299 299.358 272.689 299.508 274.069C299.818 276.839 300.128 279.609 299.998 282.379C299.848 285.149 299.488 287.919 298.888 290.689C298.268 293.459 297.488 296.229 296.128 298.999C296.018 299.219 295.748 299.309 295.528 299.199C295.438 299.149 295.368 299.079 295.328 298.999C293.968 296.229 293.178 293.459 292.568 290.689C291.968 287.919 291.598 285.149 291.458 282.379C291.338 279.609 291.648 276.839 291.948 274.069C292.098 272.689 292.228 271.299 292.508 269.919C292.778 268.539 293.168 267.149 293.538 265.769C294.308 262.999 294.708 260.229 294.438 257.459C294.208 254.689 292.908 251.919 292.388 249.149C292.128 247.769 292.058 246.379 292.168 244.999C292.228 243.619 292.378 242.229 292.608 240.849C293.088 238.079 293.798 235.309 295.328 232.539C295.448 232.319 295.728 232.239 295.948 232.359C296.028 232.399 296.088 232.469 296.128 232.539Z" fill="#0E2980"/>
</svg>
