<svg width="427" height="420" viewBox="0 0 427 420" fill="none" xmlns="http://www.w3.org/2000/svg">
<path d="M0.767678 214.872C-2.09232 109.882 86.7977 33.3018 169.618 12.6318C235.738 -3.86822 321.938 9.29186 373.768 67.9619C411.948 111.192 417.118 162.872 419.558 187.202C421.968 211.322 428.608 277.672 388.078 334.112C338.858 402.642 242.708 425.062 164.848 404.702C86.0077 384.082 3.45768 313.712 0.767678 214.862V214.872Z" fill="#FCDB00"/>
<path d="M0.0177778 214.892C0.0177778 211.472 -0.0222222 208.062 0.0177778 204.642C0.217778 201.232 0.327795 197.812 0.597795 194.412L1.1078 189.312C1.2778 187.612 1.40778 185.902 1.70778 184.222L2.48781 179.152L2.87782 176.612L3.38777 174.092C5.96777 160.652 10.0178 147.482 15.3678 134.812C26.0378 109.432 42.1878 86.3519 61.7578 66.6619C71.5978 56.8619 82.3278 47.912 93.7878 39.972C95.2278 38.992 96.6278 37.942 98.1078 37.022L102.518 34.212L104.728 32.8021L106.978 31.472L111.488 28.8121C114.538 27.1121 117.618 25.4719 120.708 23.8519L125.408 21.542L127.758 20.3819L130.148 19.3121C142.898 13.5921 156.158 8.85194 169.848 5.68194C176.678 4.04194 183.588 2.82192 190.528 1.91192C193.998 1.42192 197.478 1.09202 200.958 0.76202C204.448 0.53202 207.928 0.251922 211.428 0.161922C218.408 -0.138078 225.398 0.00190297 232.358 0.391903C239.318 0.761903 246.268 1.432 253.148 2.492C260.038 3.492 266.868 4.86201 273.618 6.50201C280.378 8.10201 287.038 10.1319 293.598 12.3819C319.818 21.4519 344.278 35.692 364.278 54.772C369.228 59.572 374.058 64.5219 378.358 69.9219L381.648 73.9219C382.208 74.5719 382.718 75.272 383.218 75.982L384.728 78.0818L387.768 82.272C388.288 82.962 388.768 83.6819 389.218 84.4119L390.608 86.5919L393.388 90.952C394.328 92.402 395.098 93.9419 395.968 95.4319L398.508 99.9319C399.318 101.452 400.048 103.012 400.828 104.552C401.588 106.102 402.378 107.632 403.108 109.192L405.168 113.932C406.618 117.062 407.798 120.302 409.038 123.512C409.338 124.322 409.668 125.122 409.958 125.932L410.778 128.382L412.418 133.282C412.948 134.922 413.388 136.582 413.888 138.242C414.348 139.902 414.888 141.542 415.278 143.222C417.058 149.882 418.548 156.612 419.798 163.382C420.998 170.162 421.978 176.982 422.838 183.762C423.698 190.512 424.528 197.352 425.088 204.222C426.228 217.972 426.438 231.872 425.358 245.752C424.818 252.692 423.978 259.622 422.768 266.512C421.538 273.392 419.958 280.232 417.998 286.982C416.028 293.732 413.678 300.382 410.898 306.862C408.108 313.342 405.008 319.712 401.428 325.812C394.308 338.042 385.658 349.432 375.718 359.522C370.818 364.652 365.468 369.312 360.018 373.832C357.208 375.982 354.478 378.252 351.558 380.242C350.118 381.262 348.678 382.302 347.228 383.302L342.778 386.192C342.038 386.672 341.298 387.162 340.548 387.622L338.268 388.972L333.698 391.662L329.038 394.182L326.708 395.432L324.328 396.602L319.568 398.932L314.728 401.082L312.308 402.152L309.858 403.142L304.948 405.112C278.558 415.112 250.368 420.002 222.238 419.892C215.198 419.922 208.178 419.482 201.168 418.902C197.668 418.502 194.158 418.232 190.688 417.672C188.948 417.412 187.198 417.182 185.468 416.892L180.268 415.962C166.418 413.422 152.818 409.402 139.768 404.272C126.748 399.022 114.208 392.692 102.378 385.262C90.5578 377.812 79.4478 369.322 69.1278 360.002C58.8678 350.602 49.4778 340.322 41.0878 329.322C40.0178 327.962 39.0478 326.522 38.0278 325.132C37.0278 323.722 35.9778 322.352 35.0278 320.902L32.1778 316.582L30.7578 314.422L29.4278 312.202L26.7478 307.782C25.8678 306.302 25.0678 304.772 24.2278 303.262C23.4178 301.742 22.5278 300.262 21.7778 298.712L19.4778 294.092C7.3678 269.372 0.787788 242.192 0.0277875 214.882L0.0177778 214.892ZM1.51778 214.852C2.33778 241.942 9.79782 268.782 23.0578 292.232C29.6578 303.972 37.5178 314.952 46.3878 324.992C55.2678 335.022 65.1078 344.142 75.5578 352.402C86.0478 360.632 97.2378 367.882 108.818 374.332C110.258 375.152 111.748 375.882 113.208 376.672C114.678 377.432 116.118 378.252 117.618 378.962C120.598 380.392 123.548 381.912 126.588 383.212L131.108 385.252L135.688 387.142L137.978 388.092L140.298 388.962L144.928 390.712C151.148 392.892 157.408 394.942 163.758 396.582C166.918 397.492 170.128 398.152 173.318 398.922C174.918 399.272 176.538 399.562 178.148 399.882C179.758 400.202 181.368 400.522 182.988 400.762L187.848 401.542C189.468 401.782 191.108 401.962 192.738 402.172C195.988 402.632 199.268 402.872 202.538 403.202C209.088 403.672 215.658 404.012 222.238 403.912C248.528 403.852 274.798 399.272 299.488 390.452L304.078 388.702L306.378 387.822L308.638 386.862L313.158 384.942L317.598 382.852L319.818 381.812L321.998 380.682L326.358 378.422L330.618 376.002L332.748 374.792C333.448 374.372 334.138 373.932 334.828 373.502L338.988 370.912C340.348 370.012 341.688 369.082 343.048 368.162C345.788 366.382 348.338 364.332 350.978 362.412C356.078 358.352 361.098 354.162 365.698 349.542C375.058 340.452 383.158 330.132 390.048 319.032C396.928 307.912 402.298 295.882 406.538 283.422C408.618 277.172 410.348 270.802 411.778 264.332C413.228 257.872 414.368 251.332 415.208 244.732C416.908 231.532 417.378 218.132 416.928 204.722C416.698 198.012 416.218 191.302 415.678 184.522C415.168 177.772 414.478 171.082 413.548 164.412C413.038 161.092 412.568 157.762 411.918 154.462C411.358 151.142 410.618 147.872 409.888 144.592C409.548 142.942 409.058 141.342 408.648 139.712C408.208 138.092 407.818 136.452 407.338 134.852L405.858 130.042L405.118 127.632C404.858 126.832 404.558 126.052 404.278 125.262C399.908 112.572 394.098 100.352 386.828 89.0721L385.478 86.942C385.038 86.222 384.578 85.5219 384.078 84.8519L381.118 80.782L379.638 78.752C379.148 78.072 378.658 77.392 378.098 76.762L374.878 72.8919C373.798 71.6119 372.758 70.2921 371.638 69.0421L368.198 65.3719C367.078 64.1219 365.838 62.9921 364.648 61.8121C363.438 60.6521 362.278 59.4319 361.008 58.3419L357.258 54.992C355.998 53.892 354.658 52.8721 353.368 51.8021L351.418 50.222L349.408 48.712L345.368 45.722C339.858 41.912 334.168 38.362 328.278 35.192C322.348 32.092 316.308 29.202 310.098 26.742C303.888 24.292 297.588 22.062 291.148 20.292C284.728 18.502 278.238 16.922 271.678 15.762C265.128 14.562 258.528 13.6221 251.908 13.0521C250.258 12.8921 248.598 12.7319 246.938 12.6519L241.968 12.3121C238.648 12.1821 235.328 12.012 232.008 12.022C228.688 11.942 225.368 12.0719 222.058 12.1219C218.748 12.2919 215.438 12.4019 212.128 12.6619C205.518 13.1219 198.938 13.8619 192.418 14.8819C185.898 15.9219 179.398 17.132 173.018 18.742C171.408 19.102 169.828 19.562 168.238 20.002L163.468 21.3021L158.748 22.772L156.388 23.502L154.048 24.3121L149.378 25.952C147.818 26.492 146.288 27.122 144.748 27.702C143.208 28.312 141.648 28.852 140.138 29.512L135.578 31.462C134.048 32.092 132.548 32.782 131.048 33.482L126.538 35.5621C123.568 37.0321 120.598 38.502 117.668 40.042C111.818 43.1521 106.028 46.412 100.428 49.972C89.1978 57.042 78.3378 64.8319 68.3178 73.6419C58.2778 82.4119 48.9078 92.022 40.5478 102.502L38.9678 104.452C38.4478 105.112 37.9678 105.792 37.4578 106.462L34.4578 110.502C33.4278 111.832 32.5378 113.252 31.5878 114.632L28.7678 118.812C27.8678 120.232 27.0178 121.682 26.1478 123.112C25.2978 124.562 24.3678 125.972 23.5678 127.452L21.1578 131.892C20.3478 133.372 19.5478 134.852 18.8578 136.382C12.8978 148.462 8.3478 161.282 5.4178 174.492L4.83779 176.962L4.39778 179.462L3.5378 184.462C3.2078 186.122 3.05779 187.812 2.84779 189.492L2.25777 194.532C2.13777 195.372 2.08781 196.212 2.04781 197.062L1.90779 199.602L1.62782 204.672C1.57782 208.062 1.59779 211.442 1.58779 214.832L1.51778 214.852Z" fill="#0E2980"/>
<path d="M241.828 138.692C245.278 131.112 253.728 112.502 273.618 106.082C292.538 99.9817 315.558 106.932 328.238 124.022C345.268 146.972 333.428 174.392 331.498 178.642C329.828 182.322 318.888 206.952 293.998 211.252C267.108 215.892 240.598 193.962 236.118 170.492C233.528 156.952 238.758 145.442 241.828 138.702V138.692Z" fill="white"/>
<path d="M241.518 138.552C244.278 132.302 247.408 126.142 251.518 120.522C253.558 117.712 255.868 115.052 258.458 112.642C259.718 111.392 261.148 110.332 262.528 109.192C264.018 108.212 265.448 107.092 267.048 106.272C273.318 102.662 280.588 100.742 287.888 100.532C291.538 100.502 295.208 100.722 298.788 101.472C300.598 101.752 302.348 102.292 304.118 102.762C304.998 103.022 305.848 103.352 306.718 103.652C307.578 103.952 308.448 104.252 309.278 104.632L311.788 105.742C312.618 106.142 313.408 106.602 314.218 107.022C315.858 107.842 317.368 108.902 318.908 109.892C321.868 112.052 324.748 114.372 327.188 117.132C332.198 122.492 336.018 129.012 338.148 136.042C340.278 143.062 340.778 150.462 339.898 157.552C339.478 161.102 338.728 164.592 337.718 167.982C336.708 171.372 335.458 174.672 333.958 177.862C330.948 184.222 327.038 190.062 322.508 195.342C321.928 195.992 321.318 196.612 320.728 197.252L319.838 198.212L318.898 199.122C318.268 199.722 317.648 200.332 317.008 200.922L314.998 202.592C314.658 202.872 314.328 203.152 313.988 203.422L312.918 204.182L310.798 205.712L308.558 207.072C307.808 207.522 307.078 208.012 306.278 208.362C304.698 209.112 303.158 209.982 301.488 210.532L299.018 211.482C298.178 211.732 297.318 211.942 296.468 212.182C293.078 213.222 289.528 213.652 285.968 213.812C278.828 214.082 271.598 212.632 264.978 209.782C258.368 206.912 252.378 202.662 247.438 197.422C242.488 192.202 238.648 185.912 236.388 179.092C235.268 175.682 234.538 172.152 234.298 168.602C234.068 165.052 234.268 161.512 234.858 158.072C235.478 154.632 236.398 151.292 237.558 148.052C238.728 144.812 240.108 141.672 241.538 138.562L241.518 138.552ZM242.158 138.842C240.738 141.942 239.418 145.082 238.438 148.332C237.478 151.582 236.808 154.912 236.618 158.262C236.128 164.972 237.658 171.582 240.498 177.412C243.318 183.292 247.298 188.512 251.858 193.072C256.438 197.632 261.688 201.512 267.438 204.462C273.168 207.432 279.468 209.432 285.998 209.912C289.258 210.142 292.578 210.022 295.808 209.352C296.618 209.202 297.438 209.062 298.248 208.882L300.618 208.152C302.228 207.722 303.718 206.992 305.248 206.322C306.028 206.012 306.728 205.572 307.458 205.162C308.178 204.752 308.908 204.342 309.618 203.902L311.658 202.452L312.678 201.722C313.008 201.462 313.318 201.182 313.638 200.912L315.538 199.282C316.148 198.712 316.728 198.102 317.328 197.522L318.218 196.642L319.048 195.702C319.588 195.062 320.148 194.442 320.678 193.792C324.878 188.562 328.118 182.602 330.408 176.362C332.668 170.132 333.938 163.542 334.288 157.042C334.628 150.542 333.908 144.052 331.838 138.062C329.748 132.082 326.318 126.642 321.868 122.142C319.698 119.842 317.198 117.892 314.638 116.052C313.288 115.232 312.018 114.282 310.588 113.582C309.888 113.212 309.208 112.812 308.498 112.462L306.338 111.482C305.628 111.122 304.878 110.862 304.138 110.582C303.388 110.312 302.658 110.002 301.908 109.762C300.378 109.352 298.878 108.802 297.318 108.512C294.228 107.742 291.058 107.452 287.878 107.282C286.288 107.282 284.698 107.202 283.108 107.362C281.508 107.382 279.938 107.642 278.348 107.852C275.228 108.452 272.058 109.142 269.088 110.432C267.548 110.962 266.138 111.772 264.658 112.472C263.268 113.322 261.798 114.092 260.488 115.102C259.108 116.022 257.858 117.112 256.558 118.172C255.348 119.312 254.118 120.462 252.998 121.722C248.418 126.672 244.948 132.622 242.158 138.832V138.842Z" fill="#0E2980"/>
<path d="M90.6179 144.592C93.0079 139.332 98.8679 126.442 112.648 121.992C125.758 117.762 141.708 122.582 150.498 134.422C162.298 150.322 154.098 169.322 152.758 172.272C151.598 174.822 144.018 191.892 126.768 194.872C108.138 198.092 89.7679 182.892 86.6579 166.622C84.8679 157.242 88.4879 149.262 90.6079 144.592H90.6179Z" fill="white"/>
<path d="M90.2978 144.442C92.2478 140.122 94.3577 135.822 97.1477 131.852C98.5277 129.862 100.078 127.942 101.858 126.202C102.718 125.302 103.708 124.522 104.668 123.702C105.698 122.982 106.688 122.162 107.818 121.562C109.998 120.232 112.398 119.242 114.878 118.502C117.368 117.812 119.948 117.442 122.528 117.382C125.108 117.382 127.698 117.562 130.208 118.172C132.728 118.702 135.168 119.572 137.478 120.672C138.058 120.952 138.618 121.242 139.188 121.542C139.748 121.852 140.278 122.202 140.828 122.532C141.928 123.172 142.938 123.962 143.958 124.712C145.908 126.342 147.768 128.062 149.328 130.042C152.538 133.902 154.818 138.412 156.248 143.092C157.658 147.802 158.048 152.712 157.808 157.572C157.508 162.432 156.588 167.252 154.998 171.942C153.368 176.592 151.108 181.082 148.048 185.102C147.248 186.082 146.498 187.112 145.588 188.002L144.258 189.382L142.828 190.672C142.358 191.112 141.858 191.522 141.338 191.902L139.778 193.072L138.118 194.112C137.558 194.452 137.018 194.822 136.418 195.092C135.238 195.672 134.078 196.312 132.818 196.732L130.958 197.422C130.328 197.612 129.678 197.762 129.038 197.922C128.398 198.072 127.758 198.272 127.098 198.372L125.128 198.632C124.468 198.702 123.818 198.842 123.148 198.852L121.158 198.882C115.848 198.932 110.618 197.592 105.928 195.342C101.238 193.072 97.0478 189.912 93.6078 186.102C90.1578 182.302 87.5678 177.722 86.1278 172.822C85.8178 171.582 85.4178 170.382 85.2778 169.102L84.9978 167.222C84.9078 166.602 84.8978 165.962 84.8578 165.332C84.7578 162.812 84.9877 160.332 85.4577 157.932C86.3877 153.122 88.2878 148.692 90.3078 144.412L90.2978 144.442ZM90.9378 144.732C89.9678 146.892 89.0778 149.072 88.4378 151.322C87.8078 153.572 87.4078 155.882 87.3178 158.182C87.2178 160.482 87.4777 162.762 88.0077 164.932C88.1677 165.472 88.2678 166.012 88.4678 166.542L89.0478 168.112C89.3678 169.162 89.9678 170.132 90.4278 171.122C92.4778 175.022 95.2977 178.442 98.4577 181.402C101.618 184.372 105.218 186.842 109.098 188.592C112.968 190.362 117.108 191.402 121.258 191.582C125.418 191.742 129.598 190.942 133.418 189.192C137.268 187.472 140.658 184.662 143.718 181.492C146.708 178.232 149.408 174.542 151.438 170.462C152.438 168.432 153.318 166.302 153.978 164.102C154.338 163.012 154.598 161.892 154.868 160.772C155.058 159.642 155.308 158.512 155.408 157.372C155.938 152.812 155.598 148.112 154.068 143.792C152.528 139.492 149.838 135.662 146.488 132.702C143.168 129.702 139.238 127.522 135.158 126.042C134.658 125.832 134.138 125.672 133.618 125.522C133.098 125.362 132.588 125.172 132.068 125.032C131.008 124.802 129.978 124.462 128.908 124.302C126.798 123.852 124.648 123.682 122.498 123.582C118.208 123.512 113.868 124.012 109.748 125.562C108.698 125.902 107.718 126.412 106.688 126.862C105.718 127.412 104.708 127.912 103.778 128.572C102.808 129.172 101.928 129.892 101.018 130.592C100.158 131.352 99.2878 132.112 98.4978 132.962C95.2678 136.312 92.8078 140.402 90.9178 144.722L90.9378 144.732Z" fill="#0E2980"/>
<path d="M254.768 254.402C252.748 254.802 263.938 306.882 265.748 312.982C270.198 328.002 286.228 337.382 300.738 329.392C300.738 329.392 340.878 307.292 340.898 307.282C350.428 302.032 355.298 290.672 352.518 280.152C350.808 273.692 345.808 268.862 341.638 263.842C335.358 256.282 328.768 249.002 322.348 241.572C322.348 241.572 254.788 254.412 254.778 254.412L254.768 254.402Z" fill="#FF55AB"/>
<path d="M254.848 254.792C254.908 254.802 254.988 254.732 254.998 254.712L254.968 254.842C254.958 254.972 254.938 255.092 254.938 255.242C254.928 255.522 254.938 255.812 254.958 256.112C254.988 256.702 255.048 257.292 255.118 257.882C255.248 259.072 255.458 260.252 255.658 261.432C256.068 263.792 256.558 266.152 257.118 268.492C258.208 273.182 259.518 277.822 260.878 282.452L264.968 296.322C266.308 300.932 267.528 305.612 268.718 310.172C268.868 310.732 269.018 311.302 269.168 311.792L269.688 313.272C269.988 314.292 270.488 315.212 270.918 316.182C271.108 316.672 271.408 317.112 271.668 317.572C271.938 318.022 272.178 318.492 272.468 318.932C273.098 319.772 273.618 320.712 274.348 321.472L275.368 322.692L276.498 323.802L277.058 324.362L277.668 324.862L278.898 325.872L280.218 326.742L280.888 327.182L281.598 327.542C282.068 327.782 282.528 328.052 283.008 328.282L284.488 328.862C284.978 329.082 285.488 329.222 286.008 329.342C286.528 329.472 287.038 329.632 287.568 329.732C288.628 329.842 289.698 330.102 290.778 330.042C292.958 330.192 295.128 329.682 297.278 329.092C297.808 328.912 298.318 328.682 298.838 328.472C299.368 328.252 299.878 328.092 300.418 327.792L303.648 326.182C305.798 325.102 307.928 323.982 310.058 322.862C318.538 318.312 326.858 313.452 335.048 308.352L338.118 306.432L339.648 305.472C340.148 305.152 340.558 304.842 341.018 304.532C342.768 303.242 344.298 301.692 345.558 299.962C348.078 296.502 349.558 292.372 349.788 288.242C349.928 286.182 349.738 284.112 349.268 282.142C349.038 281.132 348.758 280.222 348.358 279.312C347.958 278.402 347.498 277.512 346.938 276.632C344.728 273.102 341.378 269.812 338.108 266.022C331.638 258.912 325.338 251.682 319.178 244.302L323.128 245.682C317.478 246.632 311.828 247.612 306.138 248.372C300.458 249.152 294.728 249.742 289.008 250.322C283.278 250.882 277.548 251.452 271.848 252.152C266.148 252.852 260.478 253.742 254.848 254.792ZM254.698 254.002C260.328 252.912 265.918 251.662 271.478 250.222C277.038 248.782 282.578 247.212 288.108 245.632C293.648 244.072 299.188 242.512 304.758 241.162C310.328 239.782 315.948 238.632 321.558 237.432C323.018 237.122 324.458 237.642 325.398 238.682L325.518 238.812C331.968 246.002 338.268 253.322 344.408 260.762C347.278 264.372 350.748 268.002 353.458 272.792C354.128 273.982 354.718 275.262 355.228 276.582C355.728 277.912 356.098 279.332 356.328 280.682C356.818 283.422 356.868 286.212 356.518 288.942C355.808 294.402 353.348 299.522 349.688 303.432C347.868 305.402 345.758 307.072 343.458 308.392C342.878 308.702 342.278 309.042 341.728 309.312L340.098 310.092L336.838 311.662C328.158 315.852 319.608 320.282 311.218 325.022C309.128 326.222 307.048 327.422 304.978 328.662L301.888 330.532C300.828 331.142 299.668 331.772 298.528 332.352L296.718 333.062L295.808 333.412C295.498 333.512 295.178 333.582 294.858 333.662L292.948 334.152C292.298 334.282 291.638 334.332 290.988 334.432C289.668 334.672 288.338 334.562 286.998 334.582C286.328 334.552 285.668 334.442 284.998 334.362C284.328 334.292 283.658 334.202 283.008 334.012C280.338 333.512 277.868 332.372 275.478 331.092C273.198 329.672 270.968 328.062 269.168 326.032C268.188 325.082 267.438 323.952 266.588 322.902C266.188 322.352 265.868 321.762 265.498 321.192C265.148 320.612 264.768 320.052 264.488 319.432C263.898 318.212 263.298 317.002 262.888 315.702C262.668 315.062 262.428 314.442 262.238 313.772C262.058 313.102 261.918 312.512 261.778 311.902C259.578 302.372 258.388 292.822 257.298 283.182C256.748 278.372 256.228 273.562 255.608 268.772L254.688 261.582C254.528 260.382 254.408 259.182 254.278 257.972C254.218 257.372 254.168 256.762 254.138 256.152C254.128 255.842 254.118 255.532 254.138 255.212C254.138 255.052 254.158 254.882 254.188 254.712C254.218 254.612 254.228 254.532 254.268 254.412C254.298 254.342 254.338 254.282 254.378 254.222C254.428 254.142 254.588 254.042 254.708 254.012L254.698 254.002Z" fill="#0E2980"/>
<path d="M285.808 248.452C287.298 249.472 288.338 250.692 289.238 251.982C289.678 252.622 290.078 253.292 290.428 253.982C290.798 254.662 291.078 255.382 291.238 256.152C291.568 257.692 291.458 259.422 291.948 260.892C292.418 262.372 293.278 263.672 294.338 264.882C295.418 266.082 296.378 267.342 297.128 268.692C297.928 270.022 298.738 271.342 299.288 272.782C299.838 274.222 300.248 275.722 300.528 277.282C300.798 278.842 300.978 280.452 300.828 282.202C300.818 282.362 300.678 282.472 300.518 282.462C300.458 282.462 300.408 282.432 300.368 282.402C298.968 281.342 297.898 280.132 296.918 278.882C295.948 277.632 295.108 276.312 294.408 274.942C293.708 273.572 293.258 272.082 292.808 270.602C292.308 269.142 292.008 267.582 291.838 265.982C291.648 264.382 291.258 262.872 290.478 261.532C289.718 260.182 288.348 259.112 287.428 257.832C286.968 257.192 286.618 256.502 286.358 255.782C286.078 255.062 285.858 254.322 285.668 253.562C285.318 252.032 285.098 250.442 285.338 248.652C285.358 248.492 285.508 248.382 285.668 248.402C285.718 248.402 285.758 248.422 285.798 248.452H285.808Z" fill="#0E2980"/>
<path d="M108.548 152.322C109.548 150.122 111.998 144.722 117.778 142.852C123.268 141.082 129.948 143.102 133.628 148.062C138.568 154.722 135.138 162.682 134.578 163.912C134.088 164.982 130.918 172.132 123.688 173.382C115.888 174.732 108.188 168.362 106.888 161.552C106.138 157.622 107.658 154.282 108.548 152.322Z" fill="#0E2980"/>
<path d="M266.708 149.412C268.228 146.062 271.968 137.842 280.748 135.012C289.108 132.322 299.268 135.382 304.868 142.932C312.388 153.062 307.158 165.172 306.308 167.052C305.568 168.682 300.738 179.552 289.748 181.452C277.878 183.502 266.168 173.822 264.188 163.452C263.048 157.472 265.358 152.392 266.708 149.412Z" fill="#0E2980"/>
<path d="M76.0378 229.472C82.0978 230.792 87.9977 232.372 93.8977 233.842L111.498 238.332C114.438 239.032 117.358 239.762 120.278 240.492C123.208 241.202 126.138 241.852 129.058 242.602C131.988 243.272 134.928 243.912 137.838 244.662C140.748 245.402 143.688 246.062 146.588 246.872C158.228 249.932 169.958 253.522 182.038 255.012C188.078 255.632 194.138 256.122 200.218 256.022C206.288 256.112 212.358 255.502 218.398 255.002C230.468 253.532 242.398 251.942 254.278 250.112C266.148 248.182 277.858 245.612 289.558 243.042C301.268 240.482 312.928 237.612 324.588 234.452C330.428 232.912 336.228 231.172 342.098 229.542C347.928 227.802 353.778 226.042 359.718 224.362C360.028 224.272 360.358 224.452 360.448 224.762C360.518 225.012 360.418 225.272 360.218 225.412C350.008 232.422 339.018 238.222 327.648 243.152C316.268 248.082 304.478 252.122 292.428 255.172C280.368 258.222 268.018 259.972 255.658 261.062C249.478 261.572 243.288 262.072 237.088 262.032C235.538 262.032 233.988 262.072 232.438 262.052L227.788 261.862C224.688 261.722 221.598 261.612 218.518 261.392L200.088 259.952C193.958 259.602 187.858 258.992 181.718 258.772C169.488 257.962 157.028 258.092 144.718 256.432C143.188 256.212 141.648 255.982 140.128 255.722C138.598 255.482 137.068 255.212 135.558 254.872C132.538 254.202 129.518 253.492 126.528 252.682C123.548 251.852 120.578 250.962 117.618 250.062C114.688 249.062 111.738 248.102 108.838 247.032C105.948 245.922 103.058 244.812 100.208 243.602C97.3777 242.342 94.5277 241.142 91.7677 239.742C86.2077 237.032 80.7878 234.012 75.6078 230.572C75.3378 230.392 75.2578 230.022 75.4378 229.752C75.5778 229.542 75.8278 229.452 76.0578 229.502L76.0378 229.472Z" fill="#0E2980"/>
</svg>
