<svg width="405" height="420" viewBox="0 0 405 420" fill="none" xmlns="http://www.w3.org/2000/svg">
<path d="M3.7441 248.391C-13.2159 152.221 47.7641 63.6114 122.034 27.0714C135.254 20.5714 210.614 -14.6385 285.164 20.3915C334.864 43.7515 358.414 86.2013 370.064 107.201C380.214 125.501 404.724 171.161 398.684 233.121C396.544 255.031 387.564 310.021 343.354 354.271C286.694 410.991 191.924 430.301 113.454 392.431C107.534 389.571 20.9641 345.981 3.7441 248.381V248.391Z" fill="#FCDB00"/>
<path d="M3.00417 248.521C-1.52583 222.482 -0.895813 195.592 4.64419 169.592C10.3442 143.652 20.6642 118.481 35.4342 96.0015C42.8342 84.7915 51.1042 74.0716 60.4542 64.3216L64.0042 60.7014L65.7942 58.9016L67.6342 57.1614L71.3242 53.6814C72.5642 52.5414 73.8542 51.4416 75.1242 50.3216C80.2142 45.8616 85.5842 41.7215 91.0642 37.7215C102.144 29.9015 113.974 23.0816 126.464 17.6016C132.704 14.9016 139.034 12.4814 145.474 10.4214C151.904 8.32141 158.434 6.53154 165.034 5.05154C178.234 2.08154 191.724 0.371526 205.244 0.0415257C218.764 -0.238474 232.324 0.891594 245.544 3.61159C272.054 8.92159 296.834 21.0415 317.644 37.7315C318.294 38.2515 318.974 38.7415 319.604 39.2915L321.494 40.9314L325.274 44.2114C326.554 45.2915 327.694 46.5116 328.914 47.6316L332.524 51.0916C337.154 55.8816 341.674 60.7815 345.834 65.9815C346.874 67.2815 347.944 68.5516 348.954 69.8816L351.944 73.8716C352.964 75.1916 353.904 76.5514 354.864 77.9114C355.814 79.2814 356.804 80.6115 357.714 82.0015C361.424 87.5115 364.924 93.1616 368.294 98.8616C371.624 104.572 374.914 110.281 378.024 116.181C381.154 122.051 384.104 128.031 386.724 134.171C389.424 140.281 391.724 146.562 393.934 152.872C394.914 156.072 395.994 159.241 396.884 162.471L398.184 167.332L398.834 169.761C399.034 170.571 399.204 171.401 399.384 172.211C405.494 198.331 406.554 225.922 401.924 252.602C399.764 265.962 396.114 279.072 391.374 291.802C386.614 304.532 380.534 316.802 373.234 328.342C365.934 339.882 357.354 350.651 347.754 360.441C338.044 370.111 327.394 378.841 315.894 386.251C314.454 387.172 313.024 388.122 311.574 389.022L307.164 391.642L304.954 392.941L302.704 394.161L298.184 396.592C292.054 399.622 285.874 402.572 279.494 405.022C266.794 410.092 253.564 413.782 240.144 416.282C213.274 421.202 185.444 420.931 158.774 415.191C145.434 412.321 132.454 407.942 120.064 402.352C118.504 401.692 116.984 400.921 115.464 400.171L110.904 397.921C107.724 396.261 104.874 394.511 101.974 392.701C96.2441 389.071 90.7242 385.192 85.4042 381.082C74.7442 372.872 64.9143 363.692 55.8443 353.872C46.8543 343.972 38.6743 333.382 31.5943 322.122C28.0043 316.522 24.7942 310.702 21.7442 304.812L19.5742 300.332L18.4942 298.092L17.4942 295.812L15.4942 291.262C14.8442 289.742 14.2842 288.182 13.6742 286.642C13.0942 285.092 12.4442 283.572 11.9142 282.001L10.3042 277.312L9.50417 274.961C9.24417 274.171 9.03421 273.372 8.79421 272.582L7.4042 267.822C6.9142 266.242 6.55419 264.632 6.14419 263.032L4.95425 258.221C4.25425 254.991 3.66418 251.741 3.01418 248.501L3.00417 248.521ZM4.48415 248.261C9.10415 274.072 19.6342 298.762 34.9442 319.862C50.1442 341.072 69.7042 358.791 91.2042 372.971C96.5742 376.531 102.104 379.832 107.724 382.852C110.524 384.342 113.424 385.802 116.154 387.032L120.564 388.882C122.034 389.492 123.494 390.131 124.994 390.661C127.984 391.761 130.934 392.932 133.984 393.872C135.494 394.362 136.994 394.892 138.514 395.352L143.094 396.661L145.384 397.332L147.694 397.911L152.314 399.062C153.854 399.432 155.424 399.712 156.974 400.042C158.534 400.342 160.074 400.731 161.634 400.971C164.764 401.491 167.874 402.101 171.024 402.451L175.734 403.062L180.464 403.512L182.824 403.741L185.194 403.882L189.934 404.152C191.514 404.222 193.104 404.221 194.684 404.262C196.264 404.281 197.854 404.362 199.434 404.302C202.604 404.242 205.764 404.232 208.924 404.001C210.504 403.901 212.084 403.851 213.664 403.721L218.394 403.302C219.974 403.182 221.544 402.992 223.114 402.782L227.824 402.191L232.514 401.421C234.074 401.171 235.634 400.912 237.184 400.582L241.834 399.642C243.384 399.322 244.914 398.932 246.454 398.572C249.544 397.902 252.584 397.001 255.634 396.171C257.164 395.781 258.654 395.242 260.174 394.792C261.674 394.302 263.204 393.872 264.694 393.342C267.664 392.262 270.674 391.282 273.604 390.082C279.524 387.862 285.254 385.161 290.944 382.411C296.534 379.471 302.134 376.532 307.444 373.092C318.184 366.422 328.124 358.542 337.214 349.792C346.214 340.952 354.354 331.221 361.344 320.671C375.344 299.571 384.884 275.451 390.114 250.411C391.424 244.151 392.504 237.831 393.164 231.471L394.074 221.911C394.244 218.711 394.334 215.512 394.464 212.312C394.684 199.492 393.644 186.621 391.364 173.921C391.224 173.131 391.104 172.332 390.954 171.542L390.444 169.181L389.424 164.451C388.724 161.301 387.824 158.192 387.034 155.052L385.634 150.402C385.154 148.852 384.734 147.292 384.164 145.771C383.094 142.712 382.064 139.642 380.844 136.632C378.534 130.572 375.904 124.622 373.044 118.772C370.164 112.952 367.034 107.171 363.874 101.431C357.574 89.9814 350.524 78.9816 342.314 68.8816C340.324 66.3116 338.154 63.8914 336.004 61.4414C334.954 60.2014 333.804 59.0516 332.674 57.8816L329.294 54.3716L325.754 51.0215C324.564 49.9215 323.424 48.7615 322.164 47.7415L318.434 44.6116L316.574 43.0515C315.954 42.5315 315.284 42.0716 314.644 41.5716C294.124 25.7016 269.544 15.3415 244.114 11.8015C231.404 9.98154 218.524 9.67143 205.774 10.6914C199.394 11.2414 193.044 11.9916 186.734 13.0916C180.424 14.1816 174.194 15.6415 168.004 17.2415C155.644 20.5215 143.514 24.7514 131.874 29.9314C120.314 35.1514 109.214 41.4716 98.6742 48.6516C93.4642 52.3316 88.2641 56.0516 83.3541 60.1516C82.1142 61.1616 80.8542 62.1514 79.6342 63.1814L76.0142 66.3316C73.5542 68.3916 71.3042 70.6715 68.9242 72.8115C59.6442 81.6516 51.0142 91.2415 43.2442 101.522C41.2542 104.062 39.4442 106.722 37.5442 109.342C35.6742 111.972 33.9742 114.712 32.1642 117.402C30.5142 120.172 28.7642 122.901 27.1842 125.731C25.6442 128.571 23.9842 131.362 22.5842 134.292C16.6943 145.842 11.8342 157.972 8.31423 170.532C4.84423 183.102 2.72422 196.072 2.05422 209.142L1.91421 211.592L1.84426 212.822V214.052L1.83425 218.961V221.421L1.93423 223.872L2.1542 228.782C2.1842 230.422 2.40422 232.051 2.55422 233.681L3.04421 238.572C3.45421 241.822 3.99425 245.052 4.46425 248.302L4.48415 248.261Z" fill="#0E2980"/>
<path d="M105.744 160.481L57.4243 350.592L121.704 396.181L140.384 155.582L105.744 160.481Z" fill="#ADE5D8"/>
<path d="M105.974 160.741C102.604 177.291 99.0442 193.441 95.4142 209.471L92.6842 221.461L89.8841 233.382L87.0742 245.282L84.1942 257.112C80.4242 272.932 76.3541 288.532 71.9841 304.092C67.6241 319.642 62.9842 335.191 58.6742 350.911L58.1642 349.532L66.1041 355.362L74.1041 361.112C79.4241 364.972 84.8342 368.681 90.1942 372.481C95.6042 376.201 100.984 379.982 106.444 383.622L122.784 394.642L119.794 396.042L121.324 365.902C121.864 355.862 122.504 345.822 123.164 335.792L125.184 305.691C125.874 295.661 126.494 285.622 127.294 275.602L128.444 260.562L129.734 245.532L131.024 230.501L132.424 215.481C134.284 195.451 136.324 175.441 138.544 155.441L140.594 157.372C137.774 157.662 134.954 157.981 132.104 158.241L123.504 159.062L105.934 160.731L105.974 160.741ZM105.504 160.221L122.574 157.001L131.294 155.372C134.214 154.822 137.164 154.322 140.124 153.802C141.084 153.632 141.994 154.271 142.164 155.221C142.184 155.351 142.194 155.472 142.194 155.592V155.721C141.304 175.821 140.224 195.911 138.974 215.981L138.044 231.042L137.004 246.092L135.954 261.142L134.764 276.181C134.014 286.211 133.074 296.221 132.204 306.241L129.564 336.292C128.674 346.312 127.754 356.322 126.734 366.332L123.604 396.342V396.441C123.484 397.471 122.564 398.222 121.534 398.112C121.184 398.072 120.864 397.941 120.604 397.751L104.804 385.971C99.5542 382.021 94.2142 378.202 88.9142 374.322C83.5642 370.512 78.2641 366.632 72.8641 362.892L64.7942 357.241L56.6642 351.671C56.2242 351.371 56.0242 350.832 56.1442 350.332V350.282C59.9042 334.312 63.3141 318.172 67.0041 302.042C70.6941 285.912 74.6742 269.831 78.9542 253.961L82.1141 242.032L85.3442 230.161L88.5842 218.322L91.8942 206.552C96.3242 190.902 100.814 175.361 105.494 160.231L105.504 160.221Z" fill="#0E2980"/>
<path d="M304.844 160.481L353.164 350.592L288.884 396.181L270.214 155.582L304.844 160.481Z" fill="#ADE5D8"/>
<path d="M305.084 160.221C309.764 175.361 314.254 190.892 318.684 206.542L321.994 218.312L325.234 230.152L328.464 242.021L331.624 253.951C335.904 269.821 339.884 285.901 343.574 302.031C347.264 318.161 350.674 334.301 354.424 350.271V350.312C354.554 350.832 354.334 351.362 353.914 351.652L345.784 357.221L337.714 362.872C332.314 366.612 327.014 370.492 321.664 374.302C316.364 378.182 311.024 382.001 305.774 385.951L289.974 397.731C289.144 398.351 287.974 398.182 287.354 397.352C287.144 397.072 287.024 396.751 286.994 396.431V396.332L283.854 366.322C282.834 356.312 281.924 346.301 281.024 336.281L278.384 306.231C277.514 296.211 276.574 286.201 275.824 276.171L274.634 261.132L273.584 246.082L272.544 231.031L271.614 215.971C270.364 195.901 269.284 175.811 268.404 155.711V155.592C268.354 154.622 269.104 153.801 270.074 153.761C270.204 153.761 270.334 153.762 270.454 153.792C273.404 154.312 276.364 154.812 279.284 155.362L288.004 156.991L305.074 160.211L305.084 160.221ZM304.614 160.741L287.044 159.072L278.444 158.251C275.594 157.991 272.774 157.672 269.954 157.382L272.014 155.451C274.234 175.451 276.274 195.461 278.134 215.491L279.534 230.511L280.824 245.542L282.114 260.572L283.264 275.612C284.074 285.632 284.684 295.671 285.374 305.701L287.394 335.802C288.054 345.832 288.694 355.871 289.234 365.911L290.764 396.052L287.774 394.652L304.114 383.632C309.584 379.982 314.954 376.211 320.364 372.491C325.724 368.701 331.144 364.982 336.454 361.122L344.454 355.372L352.394 349.542L351.884 350.921C347.584 335.201 342.944 319.652 338.574 304.102C334.214 288.542 330.134 272.942 326.364 257.122L323.484 245.292L320.674 233.392L317.874 221.471L315.144 209.481C311.524 193.441 307.954 177.291 304.584 160.751L304.614 160.741Z" fill="#0E2980"/>
<path d="M207.094 297.501C224.635 297.501 238.854 279.902 238.854 258.191C238.854 236.481 224.635 218.882 207.094 218.882C189.554 218.882 175.334 236.481 175.334 258.191C175.334 279.902 189.554 297.501 207.094 297.501Z" fill="#0E2980"/>
<path d="M239.554 258.191C239.474 262.921 239.204 267.642 238.504 272.492C238.404 273.092 238.354 273.712 238.244 274.322L237.874 276.142L237.524 278.002L237.024 279.832L236.504 281.681C236.304 282.291 236.064 282.882 235.844 283.492L235.144 285.322C234.884 285.922 234.584 286.512 234.294 287.102C231.954 291.822 228.354 296.222 223.534 299.222C221.154 300.752 218.464 301.852 215.684 302.592C214.304 302.982 212.834 303.112 211.424 303.312C209.984 303.422 208.544 303.362 207.114 303.342C201.364 302.912 196.034 300.441 191.864 297.181C187.654 293.881 184.434 289.912 181.724 285.792C179.024 281.652 176.834 277.281 175.154 272.661C173.494 268.051 172.184 263.221 171.524 258.191C170.914 253.171 170.944 247.932 172.014 242.772C173.064 237.612 175.194 232.602 178.194 228.022C181.194 223.452 185.154 219.251 190.134 216.191C195.074 213.111 201.094 211.292 207.114 211.402C213.124 211.512 219.054 213.451 223.824 216.661C228.624 219.881 232.154 224.401 234.454 229.171C234.744 229.771 235.044 230.362 235.294 230.962L235.984 232.812C236.204 233.422 236.444 234.022 236.634 234.642L237.154 236.502L237.654 238.332L238.004 240.191L238.374 242.022C238.474 242.632 238.534 243.252 238.624 243.862C239.314 248.722 239.554 253.471 239.564 258.201L239.554 258.191ZM238.154 258.191C238.104 253.591 237.014 249.011 235.004 244.951C234.764 244.441 234.524 243.931 234.244 243.441L233.344 242.012L232.424 240.612L231.384 239.302L230.364 238.022C230.004 237.612 229.604 237.232 229.234 236.842L228.114 235.691C227.724 235.321 227.304 235.002 226.914 234.652C223.744 231.902 220.354 229.861 217.064 228.431C213.774 226.971 210.434 226.262 207.104 226.362C203.774 226.492 200.544 227.321 197.414 228.911C194.304 230.501 191.344 232.852 188.874 235.812C186.394 238.772 184.434 242.292 182.784 246.042C181.154 249.802 179.844 253.881 179.174 258.191C178.574 262.491 178.604 266.982 179.644 271.292C180.674 275.592 182.554 279.742 185.344 283.142C188.114 286.552 191.804 289.132 195.684 290.482C199.574 291.892 203.494 292.071 207.094 291.661C210.724 291.191 214.044 290.081 217.334 288.441C220.604 286.791 223.914 284.642 227.054 281.832C227.434 281.472 227.864 281.142 228.244 280.772L229.354 279.612C229.724 279.222 230.114 278.831 230.474 278.421L231.494 277.132L232.524 275.812L233.444 274.411L234.344 272.972C234.624 272.482 234.864 271.972 235.104 271.462C237.104 267.392 238.174 262.791 238.144 258.191H238.154Z" fill="#0E2980"/>
<path d="M187.174 285.921C192.364 293.221 199.734 297.781 207.904 297.781C218.104 297.781 227.054 290.681 232.074 280.021C226.884 272.721 219.514 268.161 211.344 268.161C201.144 268.161 192.194 275.261 187.174 285.921Z" fill="#FF55AB"/>
<path d="M72.1943 132.311C74.0543 130.641 75.9742 129.362 77.8942 128.132C79.8242 126.922 81.7642 125.862 83.7342 124.872C85.6942 123.892 87.6743 122.982 89.6743 122.152C91.6743 121.312 93.7042 120.601 95.8742 120.181C100.174 119.301 104.934 119.291 109.074 117.731C113.214 116.201 116.914 113.701 120.204 110.601C121.854 109.071 123.474 107.521 125.134 106.071C126.794 104.621 128.544 103.331 130.244 101.981C133.654 99.2914 136.944 96.4915 140.534 94.1115C142.334 92.9215 144.164 91.7713 146.044 90.6713C147.914 89.5613 149.814 88.4813 151.774 87.4313C155.694 85.3513 159.694 83.3114 164.284 81.7314C164.614 81.6214 164.984 81.7915 165.094 82.1215C165.144 82.2715 165.134 82.4315 165.084 82.5715C164.154 84.8315 163.004 86.9015 161.744 88.8715C160.494 90.8515 159.104 92.7114 157.644 94.5014C156.174 96.2814 154.624 97.9915 152.984 99.5915C151.364 101.211 149.654 102.742 147.854 104.152C144.274 106.992 140.214 109.181 136.144 111.251C134.104 112.281 132.074 113.321 129.904 114.111C128.834 114.531 127.724 114.881 126.614 115.211C125.504 115.551 124.394 115.881 123.274 116.171C121.044 116.801 118.834 117.411 116.744 118.231C114.654 119.051 112.614 119.971 110.674 121.101C106.784 123.321 103.404 126.831 99.4443 129.191C97.4743 130.391 95.3643 131.252 93.1843 131.902C91.0143 132.572 88.7842 133.101 86.5242 133.471C84.2642 133.851 81.9742 134.081 79.6342 134.101C77.2942 134.111 74.9342 133.981 72.4942 133.421C72.1442 133.341 71.9242 132.992 72.0042 132.642C72.0342 132.502 72.1043 132.391 72.2043 132.301L72.1943 132.311Z" fill="#0E2980"/>
<path d="M344.724 133.441C342.284 134.001 339.924 134.132 337.584 134.122C335.244 134.102 332.954 133.871 330.694 133.491C328.434 133.111 326.214 132.591 324.044 131.921C321.864 131.271 319.754 130.411 317.784 129.211C313.824 126.851 310.434 123.342 306.554 121.122C304.614 119.992 302.574 119.071 300.484 118.251C298.394 117.431 296.184 116.811 293.954 116.191C292.834 115.891 291.724 115.571 290.614 115.231C289.504 114.901 288.394 114.552 287.324 114.132C285.164 113.332 283.124 112.301 281.084 111.271C277.004 109.201 272.954 107.011 269.374 104.171C267.574 102.761 265.864 101.232 264.244 99.6115C262.604 98.0115 261.054 96.3014 259.584 94.5214C258.124 92.7314 256.734 90.8716 255.484 88.8916C254.224 86.9216 253.074 84.8515 252.144 82.5915C252.014 82.2615 252.164 81.8914 252.484 81.7614C252.634 81.7014 252.794 81.7014 252.934 81.7514C257.514 83.3314 261.524 85.3714 265.444 87.4514C267.394 88.4914 269.304 89.5714 271.174 90.6914C273.054 91.7914 274.884 92.9415 276.684 94.1315C280.274 96.5115 283.564 99.3114 286.974 102.001C288.674 103.351 290.424 104.642 292.084 106.092C293.744 107.542 295.364 109.092 297.014 110.622C300.294 113.722 303.994 116.221 308.144 117.751C312.284 119.311 317.044 119.331 321.344 120.201C323.504 120.621 325.544 121.331 327.544 122.171C329.544 123.001 331.524 123.902 333.484 124.892C335.444 125.882 337.394 126.942 339.324 128.152C341.244 129.382 343.164 130.651 345.024 132.331C345.294 132.581 345.314 132.991 345.074 133.261C344.984 133.361 344.864 133.431 344.734 133.461L344.724 133.441Z" fill="#0E2980"/>
<path d="M77.8842 153.332C86.3942 155.692 95.0343 157.062 103.594 157.042C107.864 157.082 112.104 156.791 116.274 156.181L117.834 155.972L119.384 155.681L122.474 155.112C123.504 154.942 124.504 154.622 125.524 154.382C126.534 154.112 127.544 153.892 128.544 153.592C132.524 152.362 136.374 150.762 140.014 148.822C141.884 147.962 143.654 146.922 145.534 146.122C147.344 145.172 149.254 144.402 151.114 143.512C154.894 141.832 158.704 140.082 162.594 138.232C166.514 136.412 170.464 134.491 174.874 132.681C175.234 132.531 175.644 132.702 175.794 133.062C175.864 133.242 175.864 133.432 175.794 133.592C173.994 138.072 171.274 141.992 168.164 145.532C165.044 149.072 161.444 152.182 157.504 154.832C155.564 156.202 153.454 157.302 151.334 158.362C149.144 159.292 146.964 160.232 144.654 160.832C143.504 161.142 142.364 161.482 141.214 161.762L137.724 162.492L135.994 162.862C135.414 162.952 134.824 163.032 134.244 163.142L130.764 163.742C129.604 163.932 128.434 164.031 127.274 164.181C126.104 164.301 124.954 164.502 123.784 164.542L120.284 164.712L118.544 164.792H116.794C112.134 164.722 107.514 164.282 102.984 163.502C93.9241 161.882 85.2442 158.832 77.3842 154.522C77.0642 154.352 76.9542 153.952 77.1242 153.632C77.2742 153.362 77.5942 153.242 77.8742 153.322L77.8842 153.332Z" fill="#0E2980"/>
<path d="M336.794 154.532C328.934 158.842 320.254 161.891 311.194 163.511C306.664 164.291 302.044 164.732 297.384 164.812H295.634L293.894 164.721L290.394 164.552C289.224 164.512 288.074 164.311 286.904 164.191C285.744 164.041 284.564 163.941 283.414 163.751L279.934 163.152C279.354 163.042 278.764 162.962 278.184 162.872L276.454 162.501L272.964 161.771C271.814 161.491 270.674 161.152 269.524 160.842C267.214 160.242 265.024 159.302 262.844 158.372C260.724 157.302 258.614 156.202 256.674 154.842C252.734 152.202 249.144 149.082 246.014 145.542C242.904 142.002 240.184 138.082 238.384 133.602C238.234 133.242 238.414 132.831 238.774 132.681C238.954 132.611 239.144 132.611 239.304 132.681C243.714 134.491 247.664 136.421 251.584 138.231C255.474 140.081 259.284 141.831 263.064 143.511C264.924 144.411 266.824 145.172 268.644 146.122C270.524 146.932 272.304 147.972 274.164 148.822C277.814 150.762 281.654 152.352 285.634 153.592C286.634 153.892 287.644 154.112 288.654 154.382C289.664 154.622 290.674 154.942 291.704 155.112L294.794 155.681L296.344 155.971L297.904 156.181C302.074 156.791 306.314 157.082 310.584 157.042C319.144 157.062 327.784 155.692 336.294 153.332C336.644 153.232 337.004 153.432 337.104 153.782C337.184 154.082 337.044 154.392 336.794 154.532Z" fill="#0E2980"/>
</svg>
