<svg width="414" height="414" viewBox="0 0 414 414" fill="none" xmlns="http://www.w3.org/2000/svg">
<path d="M14.58 146.98C20.51 130.13 43.82 70.8895 108.07 34.4095C126.78 23.7895 189.6 -7.97046 263.88 14.6895C328.09 34.2795 360.83 82.3295 373.27 101.18C383.77 117.1 419.59 173.27 408.88 248.73C406.49 265.55 397.71 327.45 345.28 369.56C288.73 414.98 220.1 406.29 181.2 401.36C142.28 396.43 84.42 389.1 42.56 341.58C-25 264.88 11.86 154.69 14.58 146.97V146.98Z" fill="#FCDB00"/>
<path d="M13.88 146.73C16.09 140.41 18.64 134.2 21.45 128.13C24.21 122.02 27.32 116.09 30.6 110.24C37.18 98.5596 44.76 87.4196 53.29 76.9896C57.57 71.7896 62.05 66.7396 66.8 61.9296C71.51 57.0796 76.49 52.4796 81.7 48.1296C86.9 43.7796 92.3 39.6296 97.95 35.8196L100.05 34.3696L102.2 32.9896C103.64 32.0796 105.06 31.1396 106.51 30.2396C109.42 28.4596 112.37 26.7396 115.37 25.1196C127.38 18.6396 139.98 13.1796 153.07 9.05957C159.61 6.98957 166.28 5.28957 173.01 3.87957C179.76 2.52957 186.58 1.47957 193.45 0.819569C200.32 0.169569 207.24 -0.110431 214.15 0.0395685C221.06 0.179569 227.98 0.619568 234.83 1.60957L237.4 1.94957L239.96 2.37957C241.66 2.67957 243.37 2.93957 245.07 3.26957C248.46 3.96957 251.84 4.66957 255.18 5.56957C258.54 6.36957 261.84 7.39957 265.15 8.38957C268.42 9.49957 271.65 10.7096 274.9 11.8696C287.77 16.8496 300.08 23.2196 311.48 30.8696C322.87 38.5396 333.36 47.4196 342.84 57.1996C345.19 59.6596 347.57 62.0996 349.77 64.6896L353.13 68.5196L356.36 72.4496L357.97 74.4096L359.52 76.4196L362.61 80.4496C364.58 83.1996 366.6 85.9196 368.46 88.7296C372.26 94.3296 375.89 99.9396 379.38 105.72C382.88 111.49 386.11 117.42 389.13 123.45C395.14 135.52 400.2 148.06 404.13 160.96C408.03 173.87 410.84 187.12 412.37 200.55C413.88 213.98 414.07 227.57 413.01 241.09C412.4 247.86 411.62 254.52 410.55 261.23C409.48 267.93 408.1 274.59 406.42 281.18C403.04 294.36 398.42 307.29 392.38 319.62C389.36 325.78 385.98 331.79 382.24 337.59C378.48 343.37 374.36 348.93 369.91 354.24C352.12 375.46 328.53 392.04 302.32 401.55C289.25 406.39 275.62 409.51 261.92 411.33C248.2 413.12 234.38 413.5 220.71 413.02C213.87 412.76 207.06 412.33 200.3 411.66C193.54 411 186.83 410.2 180.2 409.38C166.95 407.74 153.44 405.91 140.03 403.05C126.63 400.18 113.28 396.39 100.44 391.06C87.6 385.77 75.22 379.07 64 370.72C52.79 362.37 42.67 352.56 34.24 341.51C25.7 330.54 18.76 318.41 13.45 305.71C8.23 292.96 4.72 279.64 2.55 266.23C2.23 264.56 2.06 262.87 1.84 261.19C1.63 259.51 1.39 257.83 1.21 256.14L0.77 251.08L0.549999 248.55L0.420002 246.02L0.150002 240.96L0.0499992 235.9L0 233.37L0.0299988 230.84L0.0900002 225.79C0.26 222.43 0.309998 219.06 0.599998 215.71C0.729998 214.03 0.809999 212.36 0.959999 210.68L1.44 205.67C2.17 199 3.04 192.35 4.2 185.75C5.38 179.15 6.7 172.59 8.31 166.09C9.9 159.58 11.66 153.13 13.87 146.78L13.88 146.73ZM15.29 147.23C11.1 159.82 8.28 172.9 6.37 186.04C4.53 199.2 3.75 212.5 4.14 225.73C4.63 238.95 6.19 252.11 9.27 264.86C12.31 277.61 16.73 289.96 22.51 301.53C28.33 313.09 35.64 323.77 44.05 333.41C48.17 338.31 52.74 342.81 57.48 347.06C62.21 351.32 67.23 355.25 72.46 358.87C82.91 366.12 94.28 372.02 106.2 376.67C118.13 381.3 130.57 384.78 143.3 387.33C149.66 388.61 156.08 389.74 162.57 390.71C169.06 391.69 175.61 392.49 182.22 393.37C195.43 395.11 208.4 396.64 221.39 397.33C234.37 398.01 247.33 397.85 260.11 396.4C272.88 394.96 285.49 392.37 297.55 388.17C321.73 379.97 343.56 365.31 360.84 346.3C365.16 341.55 369.2 336.53 372.94 331.27C376.7 326.03 380.16 320.55 383.3 314.88C389.6 303.54 394.63 291.43 398.52 278.94C402.37 266.45 405.08 253.5 406.69 240.44C407.49 233.92 407.91 227.36 408.07 220.78C408.15 214.2 407.87 207.62 407.31 201.05C404.99 174.78 397.08 149.03 384.82 125.64C381.77 119.78 378.4 114.1 374.83 108.55C373.04 105.78 371.17 103.06 369.27 100.33C367.37 97.6196 365.47 94.9096 363.46 92.2996C361.5 89.6496 359.4 87.1096 357.36 84.5296L354.17 80.7696L352.57 78.8896L350.91 77.0696L347.6 73.4296C346.47 72.2396 345.3 71.0896 344.16 69.9196C341.89 67.5496 339.47 65.3396 337.08 63.1196C317.82 45.3896 295.06 31.8996 270.66 23.6196C246.27 15.1796 220.29 12.0696 194.61 14.0696C168.92 16.0996 143.44 22.8396 119.67 33.6596C95.95 44.4896 74.08 59.9596 56.17 79.4696C47.19 89.1896 39.22 99.8796 32.36 111.26C28.92 116.94 25.79 122.81 22.92 128.81C20.07 134.82 17.55 140.97 15.31 147.23H15.29Z" fill="#0E2980"/>
<path d="M89.72 287.39C90.76 280.43 92.48 273.63 94.75 266.94C97.07 260.25 99.95 253.68 104.29 247.38C104.56 246.99 104.82 246.59 105.11 246.2L106.02 245.03C106.65 244.26 107.23 243.49 107.98 242.74C108.72 242 109.35 241.23 110.22 240.52C111.06 239.81 111.83 239.07 112.85 238.43C113.34 238.1 113.82 237.78 114.32 237.46L115.99 236.6C116.28 236.46 116.54 236.32 116.85 236.19L117.79 235.85C118.44 235.64 119.03 235.38 119.73 235.26C122.41 234.53 125.52 234.67 128.21 235.41C130.92 236.15 133.24 237.41 135.13 238.8C136.99 240.2 138.54 241.7 139.88 243.23C141.19 244.76 142.41 246.29 143.42 247.84C144.49 249.38 145.42 250.92 146.32 252.46C149.89 258.55 152.51 264.75 156.1 269.72C157.87 272.18 159.92 274.27 162.27 275.26C162.57 275.37 162.86 275.53 163.17 275.6L164.1 275.82C164.71 275.88 165.46 275.99 165.89 275.94C166.93 275.84 168.34 275.24 169.69 274.43C172.44 272.79 175.2 270.69 177.86 268.58C180.48 266.48 183.03 264.28 185.34 261.88C186.54 260.72 187.61 259.43 188.72 258.2C189.77 256.91 190.82 255.62 191.8 254.27C193.83 251.58 195.43 248.77 197.78 245.68L198.22 245.1L198.74 244.5C199.1 244.1 199.41 243.7 199.88 243.29C200.69 242.48 201.74 241.68 202.92 241.02C205.37 239.7 208.07 239.15 210.86 239.41C213.65 239.67 216.16 240.75 218.15 241.97C220.15 243.23 221.79 244.62 223.24 246.05C226.11 248.9 228.35 251.79 230.44 254.58C232.53 257.35 234.48 260.05 236.47 262.4C237.46 263.6 238.46 264.66 239.46 265.66C240.46 266.61 241.46 267.46 242.41 268.13C243.36 268.77 244.27 269.24 245.08 269.53C245.9 269.77 246.62 269.89 247.36 269.91C248.1 269.88 248.78 269.75 249.53 269.52C250.3 269.21 251.14 268.91 252.07 268.25C252.3 268.12 252.53 267.95 252.77 267.77L253.5 267.26C253.99 266.83 254.49 266.5 255 266.02C256.02 265.16 257.05 264.13 258.1 263.06C260.2 260.91 262.32 258.44 264.55 255.9C266.77 253.35 269.05 250.66 271.6 248.02C274.12 245.36 276.95 242.7 280.34 240.28C281.15 239.66 282.13 239.12 283.02 238.56L284.49 237.78C284.97 237.52 285.48 237.28 286.02 237.06C288.07 236.11 290.46 235.49 292.87 235.21C295.31 234.94 297.77 235.16 300.08 235.74C300.67 235.84 301.2 236.09 301.76 236.27C302.31 236.47 302.87 236.65 303.38 236.89L304.89 237.65L305.63 238.04C305.87 238.18 306.09 238.34 306.31 238.49C309.98 240.87 312.65 243.89 314.8 246.99C319.05 253.25 321.52 259.96 323.23 266.77C323.34 267.21 323.07 267.65 322.64 267.76C322.31 267.84 321.98 267.71 321.79 267.46C317.63 261.93 313.4 256.51 308.63 252.42C306.27 250.4 303.75 248.76 301.36 247.92C298.97 247.01 296.83 247.11 294.95 247.68C291.22 248.85 287.2 253.15 283.37 258.19C281.45 260.73 279.49 263.43 277.43 266.22C275.38 269.02 273.19 271.89 270.6 274.74C267.98 277.57 265.1 280.46 261.08 282.88C259.14 284.1 256.78 285.12 254.3 285.87C251.76 286.59 249 286.82 246.32 286.63C243.64 286.39 241.01 285.7 238.65 284.63C236.32 283.54 234.32 282.18 232.55 280.74C230.81 279.28 229.35 277.74 228.01 276.2C226.72 274.65 225.52 273.09 224.45 271.55C222.29 268.46 220.47 265.43 218.71 262.54C216.95 259.68 215.31 256.9 213.64 254.61C212.8 253.49 211.99 252.47 211.21 251.73C210.43 250.96 209.78 250.49 209.17 250.22C207.76 249.76 206.63 249.58 204.2 251.65C203.08 252.59 201.87 253.83 200.65 255.02L196.89 258.72C194.35 261.19 191.71 263.56 189.02 265.82C187.69 266.98 186.31 268.05 184.96 269.17C184.29 269.74 183.59 270.25 182.89 270.78L180.83 272.4C178.07 274.46 175.46 276.64 172.49 278.77C170.96 279.78 169.36 280.95 167.02 281.55C165.78 281.86 164.79 281.87 163.7 281.93L162.08 281.83C161.54 281.78 161.02 281.66 160.48 281.57C158.37 281.13 156.38 280.3 154.61 279.29C152.87 278.26 151.21 277.11 149.75 275.87C146.78 273.39 144.29 270.68 141.9 268C139.54 265.31 137.37 262.6 135.3 260.01C133.22 257.43 131.23 254.96 129.29 252.92C128.31 251.93 127.38 251.07 126.51 250.38C125.65 249.73 124.92 249.33 124.34 249.13C123.75 248.94 123.33 248.85 122.67 248.95C122.52 248.93 122.32 249.04 122.14 249.06L121.86 249.11C121.76 249.13 121.65 249.2 121.55 249.24C121.34 249.33 121.12 249.41 120.9 249.49L120.2 249.89C119.73 250.11 119.21 250.5 118.7 250.85C118.18 251.15 117.67 251.67 117.15 252.09C116.62 252.49 116.12 253.04 115.6 253.55L114.81 254.3C114.55 254.57 114.3 254.86 114.04 255.14C109.94 259.64 106.13 265.12 102.44 270.73C98.72 276.36 95.18 282.22 91.19 287.99C90.93 288.37 90.42 288.47 90.05 288.21C89.78 288.03 89.66 287.71 89.7 287.41L89.72 287.39Z" fill="#0E2980"/>
<path d="M154.34 157.86C155.2 155.26 155.83 152.52 155.72 149.49C155.65 147.95 155.46 146.38 154.79 144.51C154.45 143.58 154.01 142.56 153.13 141.46C152.69 140.91 152.14 140.35 151.44 139.84C151.1 139.59 150.68 139.35 150.28 139.14C149.86 138.94 149.4 138.77 148.96 138.63C148.5 138.51 148.02 138.41 147.56 138.36C147.11 138.33 146.63 138.31 146.2 138.34C145.33 138.4 144.56 138.58 143.89 138.81C142.54 139.29 141.6 139.89 140.81 140.51C139.22 141.75 138.2 142.98 137.28 144.23C135.48 146.72 134.29 149.23 133.22 151.74C132.17 154.25 131.28 156.77 130.69 159.36C130.09 161.94 129.78 164.58 129.53 167.18C129.28 169.79 129.12 172.37 128.84 174.92C128.56 177.47 128.29 180 127.91 182.55C127.57 185.11 127.07 187.68 126.89 190.52C126.83 191.95 126.81 193.43 127.24 195.15C127.45 196.01 127.78 196.93 128.46 197.93C128.81 198.42 129.25 198.92 129.82 199.39C130.1 199.62 130.44 199.83 130.77 200.03C131.12 200.22 131.5 200.37 131.88 200.51C132.27 200.62 132.67 200.72 133.07 200.78C133.46 200.82 133.87 200.86 134.24 200.85C135 200.83 135.68 200.68 136.3 200.5C137.53 200.13 138.41 199.59 139.18 199.05C140.73 197.96 141.73 196.76 142.61 195.54C144.34 193.1 145.28 190.48 145.92 187.84C146.54 185.18 146.83 182.52 147.22 179.95C147.62 177.38 148.1 174.91 148.81 172.5C149.49 170.08 150.36 167.71 151.34 165.3C152.33 162.89 153.45 160.45 154.32 157.85L154.34 157.86Z" fill="#0E2980"/>
<path d="M134.09 201.37C133.73 201.37 133.35 201.33 133.02 201.3C132.64 201.24 132.24 201.15 131.75 201.01C131.38 200.87 130.94 200.7 130.54 200.49C130.21 200.29 129.82 200.05 129.51 199.79C128.96 199.34 128.49 198.84 128.06 198.24C127.44 197.32 127.03 196.39 126.76 195.29C126.31 193.47 126.34 191.93 126.4 190.52C126.53 188.53 126.81 186.69 127.08 184.9C127.2 184.09 127.32 183.3 127.43 182.5C127.77 180.15 128.03 177.78 128.29 175.49L128.36 174.88C128.53 173.36 128.65 171.83 128.78 170.29C128.87 169.25 128.95 168.2 129.05 167.15C129.29 164.63 129.6 161.94 130.22 159.26C130.75 156.9 131.56 154.46 132.77 151.56C133.81 149.13 135.02 146.53 136.88 143.95C137.77 142.73 138.83 141.43 140.51 140.13C141.21 139.59 142.2 138.9 143.73 138.36C144.55 138.08 145.35 137.92 146.18 137.86C146.64 137.82 147.16 137.85 147.61 137.88C148.06 137.93 148.53 138.02 149.1 138.16C149.68 138.35 150.14 138.52 150.52 138.71C150.93 138.93 151.38 139.18 151.76 139.45C152.42 139.93 153 140.49 153.54 141.16C154.47 142.32 154.93 143.38 155.29 144.35C156.01 146.37 156.18 148.01 156.25 149.48C156.34 152.16 155.91 154.79 154.84 158.03C154.2 159.93 153.43 161.75 152.68 163.51C152.4 164.18 152.11 164.85 151.84 165.51C150.73 168.23 149.93 170.5 149.32 172.66C148.69 174.8 148.19 177.15 147.74 180.05C147.64 180.7 147.55 181.37 147.45 182.03C147.18 183.97 146.89 185.98 146.43 187.98C145.66 191.19 144.58 193.69 143.05 195.86C142.18 197.05 141.15 198.31 139.5 199.48C138.69 200.04 137.77 200.62 136.47 201C135.71 201.23 135 201.35 134.29 201.37C134.23 201.37 134.18 201.37 134.12 201.37H134.09ZM146.68 138.83C146.53 138.83 146.38 138.83 146.24 138.85C145.49 138.9 144.78 139.05 144.05 139.3C142.66 139.8 141.75 140.43 141.11 140.92C139.53 142.15 138.52 143.39 137.67 144.54C135.87 147.04 134.68 149.58 133.67 151.95C132.48 154.79 131.69 157.18 131.17 159.48C130.56 162.1 130.25 164.76 130.02 167.24C129.92 168.29 129.84 169.33 129.75 170.37C129.62 171.92 129.5 173.46 129.33 174.99L129.26 175.6C129.01 177.9 128.74 180.28 128.4 182.64C128.3 183.44 128.17 184.24 128.05 185.05C127.78 186.81 127.51 188.64 127.38 190.57C127.32 191.9 127.3 193.36 127.71 195.05C127.95 196.04 128.31 196.85 128.86 197.67C129.23 198.18 129.64 198.63 130.12 199.02C130.38 199.24 130.73 199.45 131.01 199.62C131.33 199.79 131.73 199.94 132.03 200.06C132.45 200.18 132.8 200.26 133.12 200.31C133.45 200.34 133.86 200.38 134.2 200.37C134.82 200.35 135.45 200.24 136.13 200.04C137.29 199.7 138.13 199.17 138.87 198.66C140.4 197.58 141.37 196.39 142.19 195.27C143.65 193.21 144.67 190.82 145.41 187.74C145.87 185.79 146.14 183.8 146.42 181.88C146.51 181.21 146.61 180.54 146.71 179.89C147.17 176.94 147.68 174.55 148.32 172.37C148.94 170.19 149.75 167.88 150.87 165.12C151.14 164.45 151.43 163.78 151.71 163.11C152.45 161.37 153.21 159.57 153.84 157.71C154.87 154.59 155.29 152.06 155.2 149.51C155.13 148.12 154.98 146.57 154.3 144.68C153.97 143.79 153.56 142.82 152.72 141.77C152.23 141.17 151.71 140.67 151.13 140.24C150.81 140 150.39 139.77 150.03 139.58C149.7 139.42 149.29 139.26 148.79 139.1C148.3 138.98 147.87 138.89 147.49 138.85C147.24 138.83 146.95 138.82 146.67 138.82L146.68 138.83Z" fill="#0E2980"/>
<path d="M284.34 185.68C283.23 182.33 281.78 179.18 280.52 176.09C279.26 172.99 278.15 169.93 277.27 166.81C276.36 163.7 275.74 160.52 275.23 157.21C274.73 153.91 274.36 150.47 273.57 147.05C272.76 143.64 271.55 140.26 269.33 137.12C268.19 135.55 266.9 134.01 264.92 132.6C263.93 131.91 262.79 131.2 261.21 130.72C260.42 130.49 259.54 130.3 258.56 130.27C258.08 130.25 257.55 130.3 257.05 130.35C256.54 130.42 256.02 130.56 255.52 130.7C255.03 130.88 254.54 131.08 254.09 131.32C253.67 131.58 253.22 131.85 252.87 132.14C252.14 132.74 251.57 133.38 251.11 134.01C250.23 135.3 249.8 136.48 249.53 137.59C248.98 139.81 248.99 141.71 249.07 143.55C249.3 147.21 249.94 150.52 250.37 153.82C250.84 157.11 251.19 160.36 251.54 163.65C251.89 166.93 252.1 170.26 252.41 173.62C252.72 176.97 253.12 180.37 253.89 183.69C254.64 187.03 255.78 190.27 257.13 193.5C258.5 196.74 260.03 199.97 262.33 203.17C263.51 204.79 264.82 206.37 266.87 207.97C267.89 208.76 269.1 209.54 270.84 210.16C271.71 210.46 272.7 210.69 273.82 210.77C274.37 210.82 274.99 210.79 275.57 210.75C276.17 210.69 276.78 210.56 277.37 210.41C277.95 210.22 278.54 210.01 279.08 209.75C279.59 209.48 280.13 209.18 280.57 208.86C281.47 208.21 282.18 207.48 282.75 206.78C283.89 205.36 284.46 204.05 284.9 202.86C285.77 200.45 286.01 198.43 286.1 196.45C286.24 192.54 285.43 189.02 284.34 185.67V185.68Z" fill="#0E2980"/>
<path d="M274.45 211.31C274.22 211.31 274 211.31 273.79 211.29C272.74 211.21 271.73 211 270.69 210.65C268.74 209.95 267.47 209.07 266.58 208.38C264.43 206.71 263.08 205.04 261.94 203.48C259.55 200.17 258 196.82 256.68 193.71C255.13 189.99 254.09 186.84 253.42 183.81C252.62 180.37 252.23 176.91 251.93 173.67C251.81 172.32 251.7 170.98 251.59 169.65C251.43 167.7 251.27 165.67 251.06 163.72L250.98 162.94C250.66 159.98 250.33 156.93 249.89 153.91C249.76 152.88 249.6 151.85 249.45 150.81C249.11 148.52 248.75 146.14 248.59 143.6C248.51 141.78 248.48 139.82 249.06 137.49C249.4 136.1 249.93 134.91 250.71 133.75C251.26 132.98 251.86 132.34 252.56 131.77C252.95 131.44 253.44 131.15 253.84 130.91C254.36 130.63 254.9 130.42 255.36 130.25C256.04 130.05 256.53 129.94 256.99 129.88C257.5 129.83 258.07 129.77 258.59 129.79C259.49 129.82 260.39 129.98 261.36 130.26C263.01 130.75 264.19 131.49 265.21 132.2C267.32 133.7 268.63 135.31 269.74 136.84C271.71 139.62 273.08 142.83 274.06 146.94C274.65 149.51 275.01 152.09 275.36 154.58C275.48 155.44 275.6 156.29 275.73 157.14C276.3 160.88 276.94 163.91 277.75 166.67C278.53 169.45 279.55 172.38 280.98 175.9C281.33 176.75 281.69 177.61 282.06 178.48C283.02 180.74 284.01 183.08 284.82 185.53C286.18 189.69 286.73 193.07 286.61 196.49C286.52 198.38 286.3 200.48 285.38 203.05C284.92 204.29 284.34 205.64 283.15 207.12C282.46 207.97 281.71 208.68 280.87 209.29C280.4 209.64 279.82 209.95 279.32 210.22C278.81 210.47 278.25 210.68 277.53 210.91C276.77 211.1 276.18 211.21 275.63 211.27C275.26 211.29 274.85 211.32 274.45 211.32V211.31ZM258.36 130.78C257.95 130.78 257.51 130.82 257.11 130.86C256.72 130.92 256.26 131.02 255.66 131.19C255.27 131.33 254.77 131.53 254.33 131.77C253.99 131.98 253.53 132.26 253.19 132.54C252.56 133.06 252.01 133.64 251.52 134.32C250.8 135.38 250.34 136.43 250.02 137.72C249.48 139.92 249.5 141.81 249.58 143.54C249.73 146.03 250.09 148.38 250.43 150.65C250.59 151.7 250.74 152.73 250.88 153.76C251.32 156.79 251.65 159.86 251.97 162.82L252.05 163.6C252.26 165.57 252.42 167.6 252.58 169.56C252.69 170.89 252.79 172.23 252.92 173.57C253.22 176.77 253.6 180.19 254.39 183.58C255.06 186.56 256.08 189.65 257.6 193.31C258.9 196.37 260.42 199.65 262.75 202.88C263.84 204.38 265.14 205.98 267.19 207.58C268.02 208.22 269.2 209.04 271.02 209.7C271.96 210.02 272.9 210.21 273.87 210.29C274.4 210.33 275.01 210.3 275.55 210.27C276.03 210.22 276.58 210.11 277.26 209.94C277.9 209.73 278.42 209.53 278.87 209.32C279.32 209.08 279.86 208.78 280.28 208.47C281.05 207.91 281.73 207.26 282.37 206.48C283.47 205.12 284.01 203.86 284.44 202.7C285.32 200.26 285.52 198.25 285.61 196.44C285.73 193.15 285.19 189.88 283.87 185.84C283.07 183.44 282.09 181.11 281.14 178.87C280.77 178 280.41 177.14 280.06 176.28C278.62 172.73 277.58 169.76 276.79 166.95C275.97 164.15 275.32 161.08 274.74 157.29C274.61 156.44 274.49 155.58 274.37 154.72C274.03 152.25 273.67 149.69 273.09 147.17C272.14 143.19 270.82 140.09 268.93 137.42C267.88 135.97 266.62 134.43 264.63 133.02C263.68 132.35 262.58 131.67 261.07 131.22C260.19 130.96 259.36 130.82 258.55 130.79C258.49 130.79 258.42 130.79 258.36 130.79V130.78Z" fill="#0E2980"/>
<path d="M82.09 123.75C83.71 121.87 85.49 120.4 87.3 119.02C89.11 117.65 90.99 116.46 92.91 115.37C94.83 114.29 96.79 113.31 98.79 112.46C100.79 111.58 102.85 110.87 105.03 110.5C109.38 109.71 114.14 110 118.35 108.82C122.57 107.67 126.44 105.59 130.12 102.99C131.97 101.72 133.8 100.4 135.7 99.2596C137.59 98.0996 139.57 97.1596 141.53 96.1896C145.45 94.2396 149.36 92.2696 153.51 90.9296C155.58 90.2496 157.69 89.6796 159.83 89.1896C161.97 88.6796 164.13 88.2696 166.33 87.9296C170.73 87.2796 175.22 86.8496 180.02 87.2496C180.38 87.2796 180.66 87.5996 180.63 87.9596C180.62 88.1196 180.55 88.2596 180.44 88.3696C177.07 91.8096 173.4 94.4196 169.64 96.8096C167.76 97.9896 165.85 99.0996 163.9 100.11C161.96 101.15 159.99 102.09 157.98 102.93C153.97 104.63 149.72 105.7 145.48 106.8C143.36 107.35 141.25 107.93 139.06 108.29C136.88 108.67 134.63 108.88 132.4 109.12C127.91 109.56 123.63 110.52 119.69 112.41C115.74 114.27 112.33 117.61 108.52 119.85C106.62 121 104.6 121.81 102.52 122.45C100.44 123.11 98.32 123.66 96.16 124.1C94 124.54 91.8 124.86 89.53 125.02C87.26 125.16 84.95 125.21 82.5 124.85C82.13 124.8 81.87 124.45 81.92 124.07C81.94 123.94 82 123.82 82.08 123.72L82.09 123.75Z" fill="#0E2980"/>
<path d="M232.96 87.2596C235.42 86.8996 237.72 86.9496 239.99 87.0896C242.26 87.2396 244.46 87.5696 246.62 88.0096C248.78 88.4496 250.9 88.9896 252.98 89.6596C255.06 90.2996 257.08 91.1196 258.98 92.2596C262.79 94.5096 266.19 97.8396 270.15 99.6996C274.09 101.6 278.38 102.56 282.86 102.99C285.09 103.24 287.34 103.44 289.52 103.82C291.71 104.18 293.81 104.77 295.94 105.31C300.18 106.4 304.43 107.47 308.44 109.18C310.45 110.02 312.42 110.97 314.36 112C316.31 113.01 318.22 114.12 320.1 115.3C323.86 117.69 327.53 120.31 330.9 123.74C331.16 124 331.15 124.42 330.9 124.68C330.79 124.79 330.64 124.85 330.49 124.87C325.7 125.27 321.21 124.84 316.8 124.19C314.6 123.85 312.43 123.44 310.3 122.93C308.16 122.44 306.05 121.87 303.98 121.19C299.83 119.85 295.92 117.88 292 115.93C290.04 114.96 288.07 114.02 286.17 112.86C284.27 111.72 282.44 110.41 280.59 109.13C276.91 106.52 273.04 104.44 268.82 103.3C264.61 102.12 259.86 102.41 255.5 101.62C253.32 101.25 251.26 100.54 249.26 99.6596C247.26 98.7996 245.3 97.8296 243.38 96.7496C241.46 95.6696 239.58 94.4696 237.77 93.0996C235.96 91.7196 234.19 90.2496 232.56 88.3696C232.31 88.0796 232.34 87.6496 232.63 87.3996C232.73 87.3096 232.85 87.2596 232.98 87.2396L232.96 87.2596Z" fill="#0E2980"/>
</svg>
