<svg width="425" height="424" viewBox="0 0 425 424" fill="none" xmlns="http://www.w3.org/2000/svg">
<path d="M4.19995 258.262C-7.23005 199.772 13.72 153.822 23.28 133.612C30.37 118.632 77.15 24.112 179.73 7.69205C240.61 -2.04795 287.94 21.022 301.84 28.042C381.82 68.432 405.9 146.282 409.96 160.322C415.66 180.042 432.42 241.492 401.06 305.322C360.07 388.742 270.65 407.552 254.79 410.892C242.09 413.562 146.52 432.032 70.3599 367.642C58.0199 357.212 16.49 321.022 4.21997 258.252L4.19995 258.262Z" fill="#FCDB00"/>
<path d="M3.46997 258.402L1.80005 248.342C1.34005 244.972 1.06993 241.582 0.679932 238.202L0.540039 236.932L0.469971 235.662L0.330078 233.112L0.0600586 228.012L0 226.742V225.462L0.0100098 222.912V217.802C0.22001 204.172 2.04003 190.582 5.03003 177.242C8.01003 163.892 12.3301 150.812 17.5701 138.152C18.8701 134.982 20.1999 131.862 21.6099 128.702C23.0299 125.562 24.5301 122.462 26.0701 119.382C29.2001 113.242 32.5399 107.212 36.1499 101.332C43.3799 89.5819 51.5099 78.3319 60.6299 67.8719C69.7999 57.4619 79.8399 47.7119 90.9399 39.2019C102.02 30.7019 113.93 23.152 126.68 17.262C139.38 11.312 152.78 6.80201 166.49 3.94201L169.05 3.37195L171.64 2.932L176.82 2.08191C178.54 1.76191 180.28 1.60198 182.02 1.41198L187.23 0.861936C190.69 0.401936 194.19 0.382004 197.67 0.182004L200.28 0.0620092C201.15 0.0120092 202.02 -0.0180397 202.89 0.0119603L208.12 0.0919164C222.05 0.371916 235.88 2.16198 249.35 5.28198C251.04 5.62198 252.71 6.10199 254.38 6.54199L259.38 7.87195L264.33 9.38196C265.98 9.87195 267.63 10.3819 269.25 10.9619L274.13 12.642L278.95 14.4819C280.56 15.0719 282.15 15.752 283.73 16.422C285.32 17.082 286.9 17.7419 288.46 18.4719C294.74 21.2919 300.89 24.302 306.86 27.682C312.92 30.912 318.68 34.652 324.4 38.422C335.68 46.212 346.32 54.922 355.95 64.652C360.8 69.482 365.4 74.5619 369.77 79.8319C374.14 85.1019 378.32 90.532 382.21 96.172C386.11 101.802 389.78 107.592 393.18 113.542C396.62 119.472 399.81 125.552 402.73 131.762C405.65 137.982 408.32 144.322 410.71 150.792C411.9 154.022 413.01 157.322 414.02 160.592C415.04 163.852 416.02 167.162 416.92 170.482C420.55 183.772 423.06 197.432 424.25 211.262C424.83 218.182 425.09 225.132 424.98 232.102C424.84 239.072 424.35 246.042 423.45 252.982C422.56 259.922 421.29 266.822 419.59 273.622C417.91 280.432 415.84 287.152 413.35 293.722C412.76 295.382 412.11 297.012 411.43 298.632C410.75 300.252 410.13 301.902 409.37 303.482L407.18 308.282L404.79 312.982C401.64 319.272 397.95 325.282 394.12 331.202C390.11 336.992 385.98 342.722 381.34 348.032C379.11 350.772 376.66 353.302 374.29 355.912C373.09 357.202 371.81 358.412 370.58 359.672C369.33 360.922 368.1 362.172 366.78 363.342L362.89 366.912C361.57 368.072 360.22 369.202 358.88 370.342L356.87 372.052L354.8 373.692C353.41 374.772 352.05 375.892 350.64 376.942C345.02 381.172 339.19 385.112 333.22 388.802C309.25 403.442 282.7 413.482 255.28 418.962C248.29 420.332 241.36 421.272 234.4 421.942C227.44 422.622 220.46 422.972 213.48 423.042C206.5 423.112 199.52 422.912 192.56 422.442C185.6 421.942 178.66 421.092 171.76 420.022C168.32 419.412 164.88 418.832 161.47 418.062C159.76 417.682 158.05 417.362 156.35 416.932L151.27 415.662C144.53 413.822 137.84 411.802 131.31 409.292C124.75 406.892 118.38 404.002 112.12 400.942C105.93 397.722 99.82 394.372 94 390.562C70.61 375.452 50.7799 355.662 35.1599 333.182C27.4199 321.892 20.7599 309.902 15.4299 297.352C14.1499 294.192 12.7299 291.092 11.6699 287.852L9.96997 283.042C9.68997 282.242 9.38988 281.442 9.12988 280.632L8.42993 278.182L7 273.282C6.54 271.642 5.98992 270.032 5.66992 268.362L3.42993 258.412L3.46997 258.402ZM4.93994 258.112L7.25 267.962C7.59 269.612 8.14987 271.212 8.61987 272.832L10.0901 277.672L10.8401 280.082C11.1101 280.882 11.43 281.662 11.72 282.452L13.51 287.182C14.62 290.362 16.09 293.402 17.48 296.472C23.13 308.692 30.23 320.212 38.46 330.802C39.47 332.132 40.5699 333.412 41.6299 334.712C42.7099 335.992 43.7299 337.322 44.8699 338.552C47.1099 341.042 49.2999 343.572 51.6699 345.932C56.3199 350.742 61.2101 355.292 66.3201 359.572C68.8801 361.692 71.4599 363.842 74.1399 365.812L78.1399 368.782L80.1399 370.262L82.21 371.652C84.96 373.502 87.68 375.382 90.55 377.052L94.79 379.622L99.1299 382.012C104.89 385.232 110.9 387.982 116.93 390.602C123.05 393.032 129.17 395.422 135.47 397.302C148 401.262 160.9 403.912 173.9 405.662C180.41 406.492 186.95 407.052 193.51 407.412C200.07 407.732 206.64 407.792 213.2 407.602C226.3 407.162 239.49 405.882 252.13 403.292C277.79 398.012 302.65 388.582 325.18 375.402C347.69 362.182 367.47 344.492 382.45 323.222C386.09 317.842 389.62 312.362 392.65 306.602L394.96 302.292L397.08 297.892C397.81 296.432 398.42 294.922 399.09 293.442C399.76 291.952 400.41 290.462 400.99 288.942C405.96 276.872 409.32 264.172 411.56 251.272C412.66 244.812 413.38 238.272 413.77 231.702C414.19 225.132 414.28 218.532 414.06 211.922C413.58 198.712 411.84 185.502 408.97 172.492C408.25 169.242 407.46 166.002 406.62 162.752C405.79 159.502 404.89 156.342 403.89 153.162C401.91 146.812 399.57 140.552 396.95 134.402C394.34 128.252 391.47 122.202 388.32 116.302C385.14 110.412 381.7 104.662 378.01 99.0719C363.29 76.7019 344.12 57.1719 321.72 42.4919C316.08 38.8919 310.33 35.4619 304.35 32.4619C301.39 30.9319 298.37 29.4419 295.32 28.0919C292.27 26.7119 289.21 25.392 286.09 24.192C284.55 23.562 282.97 23.002 281.4 22.432C279.83 21.862 278.27 21.282 276.68 20.782L271.93 19.2319L267.13 17.8419C265.54 17.3519 263.93 16.942 262.31 16.552L257.47 15.3519L252.58 14.3619C250.95 14.0419 249.33 13.672 247.69 13.442C221.52 8.93201 194.67 9.882 169.25 16.182C156.55 19.332 144.21 23.792 132.44 29.432C120.64 35.042 109.51 42.0119 98.98 49.8319C77.99 65.5719 59.5399 84.952 44.1099 106.642C40.2599 112.072 36.5699 117.622 33.1199 123.332C31.4099 126.192 29.7399 129.072 28.1499 132.002C26.5699 134.912 25.03 137.932 23.53 140.932C20.54 146.932 17.7 153.002 15.22 159.232C12.78 165.462 10.48 171.782 8.69995 178.252C4.99995 191.142 2.62002 204.482 2.02002 217.942C1.95002 221.302 1.77985 224.672 1.84985 228.042L2.03003 233.092L2.11987 235.622L2.15991 236.882L2.27002 238.142C2.61002 241.492 2.89007 244.862 3.32007 248.202L4.93994 258.192V258.112Z" fill="#0E2980"/>
<path d="M101.44 146.232C103.25 142.242 107.7 132.462 118.15 129.092C128.1 125.882 140.2 129.532 146.86 138.522C155.81 150.582 149.59 165.002 148.57 167.232C147.69 169.172 141.94 182.112 128.86 184.372C114.73 186.812 100.79 175.282 98.4299 162.942C97.0699 155.822 99.8199 149.772 101.43 146.232H101.44Z" fill="#0E2980"/>
<path d="M125.03 185.202C111.89 185.202 100.07 174.112 97.9499 163.042C96.5599 155.772 99.33 149.672 100.99 146.032C102.89 141.852 107.34 132.062 118.01 128.622C128.36 125.282 140.67 129.322 147.28 138.232C155.94 149.892 150.82 163.542 149.05 167.452C146.96 172.052 140.89 182.822 128.97 184.882C127.66 185.112 126.34 185.212 125.05 185.222L125.03 185.202ZM125.56 128.442C123.1 128.442 120.65 128.802 118.31 129.562C108.06 132.862 103.74 142.372 101.9 146.432C100.29 149.972 97.6099 155.882 98.9399 162.842C100.98 173.512 112.37 184.192 125.02 184.192C126.27 184.192 127.53 184.092 128.8 183.872C140.25 181.892 146.12 171.472 148.11 167.082C149.86 163.242 154.81 150.032 146.48 138.812C141.62 132.262 133.55 128.442 125.57 128.442H125.56Z" fill="#0E2980"/>
<path d="M265.8 146.232C267.61 142.242 272.06 132.462 282.51 129.092C292.46 125.882 304.56 129.532 311.22 138.522C320.17 150.582 313.95 165.002 312.93 167.232C312.05 169.172 306.3 182.112 293.22 184.372C279.09 186.812 265.15 175.282 262.79 162.942C261.43 155.822 264.18 149.772 265.79 146.232H265.8Z" fill="#0E2980"/>
<path d="M289.38 185.202C276.24 185.202 264.42 174.112 262.3 163.042C260.91 155.772 263.68 149.672 265.34 146.032C267.24 141.852 271.69 132.062 282.36 128.622C292.71 125.282 305.02 129.322 311.63 138.232C320.29 149.892 315.17 163.542 313.4 167.452C311.31 172.052 305.24 182.822 293.31 184.882C292 185.112 290.68 185.222 289.39 185.222L289.38 185.202ZM289.91 128.442C287.45 128.442 285 128.802 282.66 129.562C272.41 132.862 268.09 142.372 266.25 146.432C264.64 149.972 261.96 155.882 263.29 162.842C265.33 173.512 276.72 184.192 289.37 184.192C290.62 184.192 291.88 184.092 293.15 183.872C304.6 181.892 310.47 171.472 312.47 167.082C314.22 163.242 319.17 150.032 310.84 138.812C305.98 132.262 297.91 128.442 289.93 128.442H289.91Z" fill="#0E2980"/>
<path d="M207.03 339.162C234.329 339.162 256.46 311.766 256.46 277.972C256.46 244.178 234.329 216.782 207.03 216.782C179.731 216.782 157.6 244.178 157.6 277.972C157.6 311.766 179.731 339.162 207.03 339.162Z" fill="#0E2980"/>
<path d="M257.16 277.972C257.09 285.292 256.47 292.622 255.02 299.962C254.28 303.622 253.37 307.302 252.12 310.922C250.86 314.532 249.31 318.112 247.38 321.532C243.52 328.352 237.99 334.592 230.9 338.872C223.87 343.182 215.35 345.462 207.03 344.992C198.68 344.582 190.76 341.382 184.33 336.832C177.86 332.252 172.71 326.442 168.47 320.222C164.24 313.982 160.91 307.222 158.48 300.112C156.07 293.012 154.41 285.582 153.76 277.952C153.14 270.342 153.52 262.492 155.34 254.842C157.13 247.182 160.41 239.802 164.94 233.122C169.46 226.452 175.35 220.422 182.6 216.072C186.2 213.882 190.15 212.162 194.28 210.992C198.41 209.832 202.73 209.252 207.03 209.292C215.64 209.402 224.16 212.052 231.18 216.552C238.25 221.052 243.7 227.402 247.53 234.282C249.45 237.732 250.98 241.322 252.24 244.942C253.49 248.572 254.4 252.262 255.13 255.932C256.57 263.292 257.17 270.632 257.16 277.952V277.972ZM255.76 277.972C255.71 270.782 254.27 263.592 251.52 257.042C250.15 253.762 248.44 250.652 246.49 247.762C244.56 244.862 242.35 242.192 240 239.772C235.3 234.912 229.98 231.052 224.43 228.332C221.65 226.972 218.8 225.902 215.88 225.212C212.96 224.562 210 224.182 207.03 224.252C201.1 224.342 195.29 225.942 189.91 228.802C184.54 231.672 179.65 235.852 175.65 240.922C171.64 245.992 168.52 251.872 166.13 258.122C163.75 264.382 162.1 271.062 161.43 277.962C160.83 284.852 161.2 291.952 162.99 298.752C164.75 305.542 167.81 312.052 172.12 317.562C176.4 323.082 182.03 327.482 188.18 330.122C194.32 332.822 200.83 333.722 207.03 333.302C213.25 332.842 219.17 331.032 224.71 328.092C230.25 325.162 235.49 321.182 240.15 316.262C242.49 313.812 244.67 311.122 246.6 308.222C248.55 305.322 250.26 302.212 251.62 298.922C254.37 292.352 255.78 285.152 255.75 277.962L255.76 277.972Z" fill="#0E2980"/>
<path d="M176.02 321.132C184.1 332.492 195.56 339.592 208.29 339.592C224.17 339.592 238.09 328.542 245.91 311.952C237.83 300.592 226.37 293.492 213.64 293.492C197.76 293.492 183.84 304.542 176.02 321.132Z" fill="#FF55AB"/>
</svg>
