<svg width="441" height="417" viewBox="0 0 441 417" fill="none" xmlns="http://www.w3.org/2000/svg">
<path d="M47.0303 156.051C51.0903 139.731 69.0503 76.5011 132.89 36.8111C195.42 -2.06885 258.54 8.6311 275.03 12.0111C285.9 14.2411 336.73 25.6111 379.97 71.1611C427.59 121.321 434.8 180.061 436.25 200.901C437.66 221.201 441.08 284.191 397.14 339.221C333.71 418.671 229.75 408.721 222.57 407.911C146.06 399.291 100.86 348.461 89.9703 335.411C83.1103 327.191 23.0303 252.651 47.0403 156.071L47.0303 156.051Z" fill="#FCDB00"/>
<path d="M46.3003 155.871C47.8703 149.511 49.7903 143.231 51.9903 137.061C54.1303 130.861 56.6503 124.811 59.3403 118.821C64.7503 106.871 71.2203 95.3811 78.7003 84.5211C86.1703 73.6511 94.7303 63.4911 104.25 54.2111C109.04 49.6011 114.08 45.2411 119.3 41.0811C121.96 39.0811 124.59 37.0011 127.35 35.1311C130.06 33.1711 132.87 31.3611 135.69 29.5611C141.39 26.0611 147.24 22.7611 153.29 19.8311C159.33 16.8911 165.56 14.3111 171.9 12.0411C178.25 9.79109 184.74 7.94104 191.3 6.37104C197.87 4.86104 204.51 3.64111 211.21 2.81111C224.6 1.15111 238.14 0.911029 251.58 1.98103C258.3 2.55103 264.99 3.4011 271.64 4.6811C278.27 5.9211 284.9 7.62108 291.31 9.66108C316.98 17.8811 340.71 31.3011 361.11 48.4211C363.64 50.5811 366.23 52.6811 368.6 55.0211L372.23 58.4411L374.05 60.1411C374.65 60.7211 375.21 61.3311 375.78 61.9311C378.07 64.3411 380.39 66.7211 382.64 69.1511L389.07 76.741C397.42 87.031 404.91 97.9911 411.33 109.531C424.16 132.641 432.67 157.981 436.95 184.041C438 190.551 438.76 197.151 439.24 203.711C439.77 210.281 440.08 216.891 440.1 223.511C440.07 236.741 439.1 250.041 436.71 263.151C434.38 276.271 430.7 289.211 425.65 301.651C423.12 307.871 420.3 313.991 417.05 319.891C413.79 325.781 410.25 331.541 406.36 337.061C390.79 359.111 369.92 377.591 346.09 390.531C322.27 403.561 295.92 411.381 269.2 414.781C255.82 416.531 242.35 417.111 228.74 416.451C227.03 416.361 225.33 416.251 223.58 416.101C221.77 415.951 220.09 415.691 218.42 415.481C216.74 415.241 215.05 415.071 213.37 414.781L208.34 413.931C206.66 413.671 205.01 413.271 203.34 412.941C201.68 412.591 200.01 412.271 198.36 411.851L193.41 410.641L188.51 409.251C162.39 401.631 138.05 388.521 117.09 371.561C106.61 363.061 96.9403 353.611 88.3303 343.221C87.2503 341.921 86.2003 340.611 85.1603 339.281C84.0903 337.921 83.0803 336.561 82.0803 335.191C80.0803 332.461 78.2303 329.651 76.4103 326.841C72.8003 321.191 69.4503 315.411 66.3503 309.501C54.0203 285.861 45.6503 260.271 42.1403 234.111C38.5303 207.971 40.0103 181.311 46.3403 155.881L46.3003 155.871ZM47.7603 156.231C41.5303 181.491 40.9903 208.081 46.0903 233.431L47.0603 238.181L48.2203 242.881C48.6003 244.451 48.9903 246.011 49.4603 247.561L50.7903 252.211C52.7603 258.351 54.8603 264.441 57.3403 270.381C62.2203 282.281 68.1803 293.701 74.9603 304.541C78.3403 309.971 81.9403 315.241 85.7403 320.331C87.6503 322.871 89.6103 325.361 91.6103 327.791C92.6103 328.991 93.6203 330.201 94.6503 331.341C95.7003 332.511 96.7603 333.691 97.8403 334.831C102.15 339.441 106.68 343.871 111.4 348.071C116.09 352.311 121 356.301 126.02 360.111C136.09 367.711 146.76 374.491 157.96 380.171C163.57 382.991 169.3 385.541 175.12 387.861C180.94 390.191 186.9 392.121 192.91 393.851C198.92 395.591 205.04 396.931 211.18 398.081L215.81 398.851C217.35 399.121 218.91 399.271 220.46 399.491C222.02 399.691 223.57 399.921 225.01 400.031C226.51 400.171 228.06 400.281 229.61 400.371C235.83 400.721 242.14 400.781 248.44 400.561C254.74 400.341 261.05 399.931 267.32 399.211C279.87 397.821 292.3 395.421 304.39 391.891L306.66 391.241L308.91 390.521L313.41 389.081L317.85 387.481L320.07 386.681L322.26 385.801L326.63 384.031C328.08 383.421 329.49 382.751 330.93 382.111C333.82 380.871 336.59 379.401 339.4 378.001C350.58 372.281 361 365.181 370.63 357.141C371.82 356.121 373.05 355.141 374.22 354.101L377.66 350.891C380.01 348.801 382.15 346.501 384.34 344.241C386.59 342.041 388.54 339.561 390.65 337.221L392.21 335.451L393.69 333.611C394.67 332.381 395.68 331.171 396.63 329.911C400.47 324.911 404 319.671 407.28 314.271C410.6 308.891 413.55 303.281 416.24 297.541C421.62 286.051 425.76 273.931 428.65 261.471C431.53 249.011 433.24 236.231 433.72 223.361C434.2 210.511 433.64 197.521 431.9 184.761C428.39 159.211 420.08 134.201 407.11 111.881C400.61 100.731 392.95 90.3011 384.39 80.7111L377.79 73.6911C375.49 71.4511 373.13 69.2711 370.81 67.0611C370.22 66.5111 369.66 65.9511 369.05 65.4211L367.21 63.871L363.53 60.7811C361.12 58.6711 358.51 56.8111 355.96 54.8811C345.69 47.2611 334.72 40.641 323.26 35.101C317.54 32.301 311.69 29.8211 305.78 27.5211C299.83 25.3011 293.8 23.3511 287.73 21.6311C281.63 19.9411 275.55 18.5911 269.32 17.5611C263.11 16.5411 256.84 15.811 250.54 15.351C237.95 14.481 225.27 14.651 212.72 15.991C206.45 16.661 200.2 17.591 194.01 18.851C187.82 20.061 181.68 21.6011 175.62 23.4011C169.57 25.2211 163.61 27.371 157.72 29.721C151.84 32.101 146.11 34.8511 140.47 37.8111C117.95 49.6811 97.6603 66.321 81.7503 86.751C73.7703 96.931 66.8703 108.001 61.1603 119.671C58.3003 125.501 55.7503 131.491 53.4903 137.581C51.2503 143.681 49.3403 149.911 47.7503 156.211L47.7603 156.231Z" fill="#0E2980"/>
<path d="M89.3403 190.091C96.9303 188.241 104.03 187.151 111.06 185.851C111.94 185.681 112.81 185.521 113.69 185.391C114.57 185.261 115.43 185.041 116.3 184.901L118.91 184.451C119.77 184.271 120.64 184.121 121.51 183.951C122.38 183.801 123.24 183.621 124.11 183.481C124.97 183.301 125.83 183.141 126.7 183.011C127.57 182.871 128.44 182.751 129.32 182.671C130.19 182.541 131.07 182.421 131.95 182.321C138.97 181.551 146.56 181.471 153.4 178.891C160.21 176.341 166.36 172.181 171.52 167.031C176.63 161.821 181.46 156.661 186.13 151.431L187.85 149.451L188.71 148.461L189.51 147.421C190.59 146.041 191.64 144.651 192.75 143.311C193.31 142.651 193.77 141.891 194.3 141.211L195.87 139.131C196.95 137.771 197.96 136.351 199 134.951C200.04 133.551 201.15 132.201 202.15 130.761C203.16 129.331 204.28 127.971 205.28 126.521C206.26 125.061 207.35 123.661 208.35 122.201L211.39 117.801C215.43 111.861 219.3 105.731 223.58 99.3112C223.8 98.9712 224.26 98.8811 224.6 99.1011C224.8 99.2311 224.92 99.4612 224.93 99.6812C225.09 103.591 224.77 107.481 224.12 111.291C223.84 113.221 223.38 115.091 222.95 116.991C222.49 118.871 221.92 120.731 221.36 122.591C220.77 124.441 220.05 126.241 219.38 128.071C218.64 129.871 217.84 131.641 217.01 133.411C216.21 135.191 215.23 136.881 214.3 138.601C213.39 140.331 212.3 141.961 211.22 143.581C210.68 144.401 210.12 145.201 209.57 146.001C209.01 146.801 208.38 147.551 207.76 148.311C206.5 149.811 205.3 151.351 203.95 152.771C202.59 154.181 201.19 155.551 199.81 156.931L198.76 157.961L197.65 158.921L195.43 160.841C192.55 163.471 189.37 165.761 186.15 167.931C184.53 169.001 182.76 169.871 181.05 170.791C179.33 171.691 177.65 172.631 175.83 173.361C172.27 174.911 168.84 176.531 165.37 178.051C164.51 178.451 163.66 178.851 162.82 179.281C162.41 179.501 161.97 179.681 161.54 179.871L160.26 180.471C158.54 181.231 156.9 182.151 155.22 183.011C153.54 183.851 151.87 184.761 150.23 185.751C148.56 186.681 146.88 187.611 145.21 188.611L143.95 189.351L142.66 190.021L140.06 191.361C139.19 191.801 138.31 192.251 137.41 192.621C136.51 192.971 135.61 193.361 134.69 193.681C132.87 194.391 131 194.921 129.11 195.341C128.16 195.561 127.21 195.751 126.26 195.921C125.3 196.061 124.33 196.161 123.37 196.281C122.41 196.381 121.45 196.531 120.48 196.591L117.58 196.741C115.65 196.831 113.71 196.831 111.77 196.741C109.84 196.721 107.9 196.461 105.98 196.281C104.06 196.011 102.15 195.721 100.25 195.281C96.4703 194.441 92.7403 193.281 89.2003 191.491C88.8303 191.311 88.6803 190.861 88.8703 190.491C88.9703 190.291 89.1603 190.151 89.3603 190.101L89.3403 190.091Z" fill="#0E2980"/>
<path d="M389.15 191.481C385.61 193.271 381.88 194.431 378.1 195.271C376.21 195.701 374.3 195.991 372.37 196.271C370.45 196.461 368.52 196.711 366.58 196.731C364.64 196.821 362.71 196.821 360.77 196.731L357.87 196.581C356.9 196.521 355.94 196.371 354.98 196.271C354.02 196.151 353.05 196.051 352.09 195.911C351.13 195.741 350.18 195.541 349.24 195.331C347.35 194.911 345.48 194.381 343.66 193.671C342.74 193.351 341.84 192.961 340.94 192.611C340.04 192.241 339.16 191.791 338.29 191.351L335.69 190.011L334.4 189.341L333.14 188.601C331.47 187.601 329.78 186.681 328.12 185.741C326.47 184.761 324.81 183.851 323.13 183.001C321.45 182.151 319.81 181.231 318.09 180.461L316.81 179.861C316.38 179.671 315.94 179.491 315.53 179.271C314.69 178.841 313.84 178.441 312.98 178.041C309.51 176.521 306.08 174.901 302.52 173.351C300.71 172.631 299.02 171.691 297.3 170.781C295.59 169.861 293.82 168.991 292.2 167.921C288.98 165.751 285.8 163.461 282.92 160.831L280.7 158.911L279.59 157.951L278.54 156.921C277.16 155.541 275.75 154.171 274.4 152.761C273.05 151.341 271.84 149.801 270.59 148.301C269.97 147.541 269.34 146.791 268.78 145.991C268.23 145.181 267.66 144.381 267.13 143.571C266.04 141.941 264.96 140.321 264.05 138.591C263.12 136.871 262.14 135.181 261.34 133.401C260.52 131.631 259.71 129.861 258.97 128.061C258.3 126.231 257.58 124.431 256.99 122.581C256.42 120.721 255.86 118.861 255.4 116.981C254.97 115.081 254.51 113.211 254.23 111.281C253.58 107.461 253.26 103.571 253.42 99.6711C253.44 99.2611 253.78 98.9512 254.19 98.9612C254.43 98.9612 254.65 99.1011 254.77 99.2911C259.06 105.701 262.93 111.841 266.96 117.781L270 122.181C271.01 123.641 272.09 125.051 273.07 126.501C274.07 127.951 275.19 129.311 276.2 130.741C277.2 132.181 278.31 133.531 279.35 134.931C280.39 136.331 281.4 137.751 282.48 139.111L284.05 141.191C284.59 141.871 285.04 142.631 285.6 143.291C286.7 144.631 287.76 146.021 288.84 147.401L289.64 148.441L290.5 149.431L292.22 151.411C296.89 156.631 301.72 161.801 306.83 167.011C311.99 172.161 318.13 176.321 324.95 178.871C331.79 181.451 339.38 181.531 346.4 182.301C347.28 182.391 348.16 182.521 349.03 182.651C349.91 182.741 350.78 182.851 351.65 182.991C352.52 183.131 353.38 183.291 354.24 183.461C355.11 183.591 355.97 183.771 356.84 183.931C357.7 184.091 358.57 184.241 359.44 184.431L362.05 184.881C362.92 185.021 363.79 185.241 364.66 185.371C365.54 185.501 366.41 185.661 367.29 185.831C374.32 187.131 381.42 188.221 389.01 190.071C389.41 190.171 389.66 190.571 389.56 190.971C389.51 191.191 389.36 191.371 389.17 191.461L389.15 191.481Z" fill="#0E2980"/>
<path d="M239.17 349.681C271.733 349.681 298.13 317.002 298.13 276.691C298.13 236.38 271.733 203.701 239.17 203.701C206.608 203.701 180.21 236.38 180.21 276.691C180.21 317.002 206.608 349.681 239.17 349.681Z" fill="#0E2980"/>
<path d="M298.97 276.691C298.89 285.431 298.14 294.161 296.41 302.921L295.71 306.201L294.9 309.481L293.99 312.751L292.94 316.001C291.44 320.311 289.59 324.571 287.29 328.661C282.69 336.801 276.09 344.231 267.63 349.351C263.43 351.911 258.8 353.881 253.98 355.141C249.15 356.401 244.12 356.921 239.17 356.651C234.22 356.381 229.33 355.341 224.77 353.631C220.21 351.931 215.95 349.641 212.09 346.921C204.37 341.461 198.22 334.531 193.17 327.111C188.12 319.671 184.15 311.601 181.26 303.131C178.39 294.661 176.41 285.791 175.63 276.701C175.26 272.161 175.18 267.551 175.49 262.941C175.78 258.331 176.43 253.701 177.52 249.141C179.66 240.011 183.57 231.201 188.97 223.231C194.37 215.271 201.39 208.081 210.03 202.891C214.33 200.281 219.03 198.231 223.96 196.831C228.89 195.451 234.04 194.751 239.17 194.801C249.44 194.931 259.6 198.091 267.98 203.461C276.41 208.831 282.92 216.401 287.48 224.611C289.77 228.721 291.6 233.011 293.1 237.331L294.15 240.591L295.05 243.871L295.85 247.151L296.54 250.441C298.26 259.211 298.97 267.971 298.97 276.711V276.691ZM297.3 276.691C297.24 268.111 295.53 259.541 292.24 251.731C291.82 250.761 291.4 249.791 290.94 248.841L289.51 246.021L287.93 243.301L286.24 240.671C283.93 237.211 281.31 234.031 278.5 231.141C272.9 225.341 266.55 220.731 259.93 217.491C256.61 215.871 253.21 214.591 249.73 213.771C246.24 212.991 242.72 212.541 239.18 212.631C232.1 212.741 225.17 214.651 218.75 218.061C212.34 221.481 206.51 226.471 201.74 232.521C196.95 238.561 193.24 245.591 190.39 253.041C188.98 256.771 187.76 260.631 186.82 264.581C185.89 268.541 185.19 272.591 184.79 276.711C184.07 284.931 184.52 293.401 186.65 301.511C188.75 309.611 192.4 317.381 197.54 323.951C202.65 330.541 209.36 335.791 216.69 338.941C224.02 342.161 231.78 343.241 239.18 342.731C246.6 342.181 253.66 340.021 260.27 336.511C266.87 333.011 273.13 328.271 278.69 322.401C281.48 319.481 284.08 316.271 286.39 312.801C288.71 309.341 290.75 305.631 292.38 301.711C295.66 293.881 297.34 285.291 297.31 276.711L297.3 276.691Z" fill="#0E2980"/>
<path d="M202.18 328.181C211.81 341.731 225.49 350.201 240.68 350.201C259.62 350.201 276.23 337.021 285.55 317.231C275.92 303.681 262.24 295.211 247.05 295.211C228.11 295.211 211.5 308.391 202.18 328.181Z" fill="#FF55AB"/>
<path d="M0.330269 17.4612C5.61027 14.8412 11.0203 12.8012 16.4503 10.8912C21.8903 9.00116 27.3703 7.34112 32.9003 5.85112C35.6703 5.12112 38.4303 4.40115 41.2203 3.75115C43.9903 3.06115 46.7903 2.49113 49.6103 1.98113C52.4303 1.51113 55.2703 1.12122 58.1303 0.821215C60.9903 0.521215 63.8703 0.331113 66.7403 0.0911126L67.6903 0.0111566C69.5503 -0.138843 71.1903 1.24112 71.3403 3.10112C71.4303 4.16112 71.0003 5.15123 70.2903 5.83122C67.5903 8.38122 64.9003 10.9411 62.3603 13.6111C59.8103 16.2811 57.3903 19.0612 55.0903 21.9312C50.4803 27.6612 46.3303 33.7712 42.4203 40.0712C38.5103 46.3712 34.5803 52.6511 30.2303 58.6011C25.8903 64.5511 21.6103 70.5512 17.1603 76.4212L10.8403 66.1812C16.3903 64.8212 21.9903 63.6512 27.6103 62.6312C33.2503 61.6512 38.9003 60.7611 44.5803 60.0011C50.2603 59.2411 55.9703 58.6112 61.7203 58.1412C67.4703 57.6812 73.2403 57.3512 79.0903 57.3812C79.4303 57.3812 79.7103 57.6611 79.7103 58.0011C79.7103 58.2511 79.5603 58.4612 79.3503 58.5612C74.0303 61.0012 68.6303 63.0712 63.2103 65.0212C57.7803 66.9612 52.3203 68.7412 46.8303 70.3912C41.3403 72.0412 35.8203 73.5511 30.2803 74.9911C24.7303 76.3811 19.1503 77.6112 13.5403 78.6612L13.1903 78.7311C9.76027 79.3711 6.46027 77.1112 5.82027 73.6812C5.46027 71.7412 6.04027 69.8212 7.22027 68.4212C11.9903 62.8212 16.9303 57.3412 21.8103 51.8212C26.6803 46.2912 31.9703 41.1012 37.2803 35.9312C42.5903 30.7612 47.6703 25.4012 52.2703 19.6512C54.5803 16.7812 56.7703 13.8312 58.8203 10.7612C60.8803 7.70116 62.8003 4.52111 64.7103 1.34111L68.2603 7.09111C65.5503 8.06111 62.8403 9.07113 60.1103 9.98113C57.3803 10.8911 54.6403 11.7012 51.8703 12.4312C49.1003 13.1212 46.3103 13.7612 43.5003 14.2712C40.7003 14.8312 37.8803 15.3112 35.0603 15.7912C29.4103 16.7212 23.7303 17.4611 18.0003 17.9811C12.2603 18.4811 6.50027 18.8512 0.600269 18.6312C0.260269 18.6212 -0.00973094 18.3311 0.000269065 17.9811C0.000269065 17.7411 0.150269 17.5412 0.350269 17.4412L0.330269 17.4612Z" fill="#0E2980"/>
<path d="M83.8203 61.2811C87.5003 59.4811 91.2503 58.0411 95.0303 56.7111C98.8103 55.3911 102.63 54.2411 106.47 53.2111C110.32 52.2011 114.17 51.2211 118.08 50.5211C120.04 50.1911 122.01 49.9211 124 49.7111C125.99 49.5011 127.99 49.3711 129.99 49.2011L130.65 49.1511C131.94 49.0411 133.08 50.0111 133.18 51.3011C133.24 52.0411 132.95 52.7311 132.45 53.2011C130.57 54.9711 128.72 56.761 126.93 58.611C125.16 60.471 123.47 62.4011 121.87 64.3911C118.66 68.3711 115.79 72.6311 113.06 77.0011L108.94 83.5311C107.52 85.6711 106.11 87.8211 104.59 89.8811C101.57 94.0211 98.6003 98.1911 95.5103 102.271L91.1103 95.1511C94.9703 94.2111 98.8603 93.3911 102.77 92.6811C106.69 92.0011 110.62 91.381 114.57 90.851C118.52 90.301 122.5 89.9111 126.48 89.5611C130.48 89.2511 134.49 89.0011 138.56 89.0311C138.8 89.0311 138.99 89.2311 138.99 89.4611C138.99 89.6311 138.89 89.781 138.74 89.851C135.04 91.551 131.29 92.981 127.52 94.341C123.74 95.661 119.95 96.9511 116.13 98.0711C112.31 99.2211 108.48 100.271 104.63 101.271C100.77 102.231 96.8903 103.091 92.9903 103.821L92.7403 103.871C90.3603 104.321 88.0603 102.741 87.6203 100.361C87.3703 99.011 87.7703 97.6811 88.5903 96.7011C91.9103 92.8011 95.3403 89.0011 98.7303 85.1611C100.42 83.2311 102.2 81.3911 103.99 79.5411L109.48 74.111C113.17 70.511 116.7 66.7911 119.9 62.7911C121.5 60.8011 123.03 58.741 124.46 56.611C125.88 54.471 127.23 52.2711 128.56 50.0611L131.03 54.0611C129.14 54.7311 127.26 55.4311 125.37 56.0711C123.47 56.7011 121.56 57.2711 119.64 57.7711C115.79 58.7511 111.87 59.441 107.95 60.101C104.02 60.741 100.07 61.2611 96.0903 61.6211C92.1003 61.9711 88.0903 62.2011 84.0003 62.0711C83.7603 62.0711 83.5703 61.8611 83.5803 61.6311C83.5803 61.4611 83.6803 61.3211 83.8203 61.2511V61.2811Z" fill="#0E2980"/>
<path d="M59.2003 130.071C61.8803 128.761 64.6203 127.711 67.3703 126.741C70.1303 125.781 72.9103 124.941 75.7103 124.191C78.5103 123.451 81.3203 122.741 84.1803 122.231C87.0303 121.731 89.9503 121.491 92.8603 121.271L93.3603 121.231C94.3003 121.161 95.1203 121.871 95.1903 122.811C95.2303 123.341 95.0103 123.841 94.6503 124.191C91.9003 126.771 89.2503 129.421 86.9403 132.351C84.6003 135.251 82.5003 138.351 80.5203 141.541C78.5203 144.721 76.5603 147.921 74.3403 150.931C72.1403 153.951 69.9703 156.991 67.7203 159.961L64.5203 154.771C70.1503 153.381 75.8603 152.411 81.6203 151.641C84.5003 151.241 87.4003 150.961 90.3103 150.701C93.2203 150.471 96.1503 150.291 99.1103 150.311C99.2803 150.311 99.4203 150.451 99.4203 150.631C99.4203 150.761 99.3403 150.861 99.2403 150.911C96.5403 152.151 93.8103 153.191 91.0603 154.181C88.3103 155.141 85.5403 156.081 82.7603 156.901C77.1903 158.571 71.5903 160.041 65.8903 161.091L65.7003 161.121C63.9603 161.441 62.2903 160.291 61.9703 158.551C61.7903 157.571 62.0903 156.601 62.6803 155.891C65.1003 153.051 67.6003 150.281 70.0703 147.481C72.5303 144.671 75.2403 142.061 77.9103 139.431C80.6003 136.811 83.1703 134.091 85.5103 131.181C87.8703 128.291 89.8903 125.141 91.8203 121.901L93.6203 124.811C90.8703 125.811 88.1203 126.801 85.3203 127.511C82.5103 128.221 79.6603 128.731 76.8003 129.211C73.9403 129.681 71.0603 130.061 68.1503 130.321C65.2403 130.571 62.3203 130.741 59.3303 130.651C59.1603 130.651 59.0203 130.501 59.0203 130.331C59.0203 130.211 59.1003 130.111 59.2003 130.061V130.071Z" fill="#0E2980"/>
</svg>
