<svg width="392" height="416" viewBox="0 0 392 416" fill="none" xmlns="http://www.w3.org/2000/svg">
<path d="M10.7188 125.288C40.8788 41.4782 131.139 16.1482 141.729 13.3582C207.679 -4.02178 290.819 11.3082 343.969 73.1382C410.199 150.188 384.749 246.988 382.129 256.298C359.459 336.858 282.419 412.058 188.789 407.658C78.9989 402.508 23.0387 291.498 8.16875 229.588C3.55875 210.378 -5.50121 170.358 10.7088 125.288H10.7188Z" fill="#FCDB00"/>
<path d="M10.0189 125.028L11.7689 120.498C12.3689 118.998 12.889 117.458 13.589 115.998C14.939 113.058 16.1788 110.058 17.7088 107.198L19.8988 102.858L22.2989 98.6382C23.8389 95.7882 25.6788 93.1182 27.3788 90.3482C34.4988 79.5082 42.8688 69.4682 52.1588 60.3482C70.7688 42.0782 92.9789 27.4782 116.969 16.7182C122.989 14.0582 129.119 11.6282 135.409 9.4982C136.989 8.9782 138.569 8.4582 140.189 7.9682L144.979 6.6382C146.579 6.1782 148.189 5.8182 149.809 5.4282C151.419 5.0482 153.029 4.6282 154.659 4.3182L159.539 3.3282L164.449 2.5082C166.089 2.2182 167.729 2.0082 169.379 1.7882C171.029 1.5882 172.669 1.3082 174.319 1.1682C180.919 0.458199 187.559 0.108199 194.209 0.00819923C220.779 -0.231801 247.459 4.7982 272.059 14.9382C284.349 20.0082 296.079 26.3982 307.019 33.8882C312.449 37.6782 317.749 41.6682 322.739 46.0082C327.799 50.2582 332.519 54.8982 337.089 59.6382C355.129 78.8382 369.269 101.508 378.289 126.018C387.359 150.518 391.579 176.608 391.639 202.658C391.639 209.168 391.389 215.688 390.879 222.188C390.399 228.688 389.669 235.178 388.649 241.638C388.139 244.868 387.559 248.088 386.879 251.308C386.539 252.918 386.189 254.528 385.799 256.138C385.409 257.778 384.939 259.318 384.509 260.908C384.059 262.488 383.659 264.078 383.169 265.648L381.669 270.338L380.919 272.688L380.079 275.008L378.399 279.638C373.739 291.928 367.919 303.778 361.179 315.108L359.929 317.238L358.599 319.328L355.939 323.498C354.119 326.248 352.219 328.948 350.329 331.658C346.389 336.958 342.329 342.188 337.949 347.148C329.279 357.148 319.629 366.338 309.199 374.598C298.749 382.828 287.459 390.048 275.539 396.108C251.729 408.298 224.959 415.158 197.959 415.628C194.589 415.618 191.209 415.588 187.839 415.488L177.729 414.758L167.679 413.378L157.719 411.388C144.519 408.328 131.709 403.528 119.729 397.278C107.759 390.998 96.5588 383.368 86.3688 374.658C76.1588 365.968 66.8689 356.318 58.5389 345.978C57.4589 344.708 56.4589 343.388 55.4689 342.058L52.4689 338.088C50.5089 335.418 48.6389 332.678 46.7289 329.978C44.9389 327.198 43.1088 324.448 41.3788 321.638L38.819 317.398C37.959 315.988 37.129 314.568 36.339 313.118C29.839 301.648 24.2588 289.718 19.3788 277.558C17.0188 271.438 14.7489 265.298 12.7989 259.058C11.7589 255.958 10.8888 252.798 9.94884 249.668C9.10884 246.508 8.18884 243.378 7.44884 240.188C6.64884 237.018 5.96892 233.818 5.28893 230.628C4.64893 227.448 4.03887 224.258 3.47887 221.048C2.33887 214.638 1.42874 208.178 0.84874 201.688C-0.30126 188.718 -0.371172 175.648 1.18883 162.758L1.77892 157.928L2.57896 153.128C3.04896 149.918 3.81891 146.768 4.51891 143.608C4.70891 142.818 4.84894 142.018 5.05894 141.238L5.69884 138.898L6.97887 134.208C7.90887 131.108 8.9989 128.058 10.0089 124.978L10.0189 125.028ZM11.4288 125.538C10.4688 128.598 9.41891 131.628 8.51891 134.708L7.29893 139.358C6.88894 140.908 6.46883 142.448 6.18883 144.038C5.57883 147.188 4.87889 150.308 4.49889 153.498L3.81895 158.248L3.38878 163.028L3.17882 165.418C3.11882 166.218 3.10895 167.018 3.06895 167.818L2.86876 172.608C2.82876 174.208 2.86876 175.808 2.86876 177.408C2.86876 179.008 2.88888 180.598 2.98888 182.198C3.17888 188.588 3.93875 194.938 4.85875 201.248C5.79875 207.558 7.15885 213.798 8.70885 219.988C9.49885 223.078 10.3489 226.168 11.2189 229.248C12.1189 232.298 13.0189 235.348 14.0389 238.358C14.5189 239.868 15.029 241.378 15.579 242.868L17.1888 247.358C18.3488 250.318 19.4388 253.308 20.6988 256.228C23.0788 262.118 25.7889 267.868 28.5089 273.598C34.0689 284.998 40.3688 296.008 47.1988 306.588C54.0388 317.168 61.5288 327.288 69.7088 336.728C77.8788 346.178 86.7089 354.998 96.2789 362.828C105.869 370.628 116.129 377.538 127.059 383.088C148.849 394.348 173.239 399.998 197.829 399.998C210.109 399.988 222.389 398.538 234.379 395.728C246.379 392.938 258.109 388.838 269.269 383.438C280.449 378.078 291.079 371.528 301.109 364.108C311.129 356.668 320.369 348.178 329.029 339.108C346.239 320.878 360.559 299.698 370.789 276.568L372.629 272.198L373.549 270.008L374.379 267.788L376.049 263.348C376.599 261.868 377.059 260.348 377.569 258.858C378.049 257.358 378.599 255.838 379.029 254.358C379.469 252.858 379.899 251.348 380.279 249.808C381.059 246.748 381.749 243.658 382.369 240.538C383.609 234.318 384.599 228.018 385.299 221.688C385.969 215.358 386.369 208.998 386.529 202.618C387.139 177.148 383.059 151.458 373.749 127.758C369.149 115.898 363.069 104.648 355.899 94.2082C348.679 83.7982 340.419 74.1382 331.229 65.5082C312.779 48.3182 290.929 35.1282 267.479 26.5882C244.059 17.9482 219.159 13.5282 194.199 13.3082C181.719 13.2182 169.209 14.0982 156.859 16.0882C155.309 16.2982 153.779 16.6182 152.239 16.8882C150.699 17.1782 149.159 17.4282 147.629 17.7882L143.039 18.7682C141.539 19.1082 140.029 19.4882 138.519 19.8782C132.479 21.4782 126.459 23.3982 120.529 25.5582C108.649 29.8482 97.0489 35.0682 85.9689 41.2882C80.4489 44.4182 75.0389 47.7682 69.7889 51.3882C68.4789 52.2882 67.2088 53.2482 65.9188 54.1782L63.9889 55.5882L62.1087 57.0582C60.8587 58.0482 59.5887 59.0082 58.3587 60.0182L54.7189 63.1182C53.4889 64.1282 52.3388 65.2482 51.1588 66.3182C49.9988 67.4182 48.7788 68.4482 47.6688 69.5982C45.4088 71.8582 43.1489 74.1082 41.0389 76.5082C38.8489 78.8382 36.8289 81.3182 34.7989 83.7882C33.7589 84.9982 32.8588 86.3282 31.8788 87.5982C30.9388 88.8882 29.9289 90.1382 29.0389 91.4682C27.2689 94.1282 25.399 96.7382 23.829 99.5282L21.3688 103.658L19.1188 107.908C17.5588 110.708 16.3489 113.688 14.9889 116.588C14.2889 118.028 13.7688 119.548 13.1588 121.038L11.3988 125.518L11.4288 125.538Z" fill="#0E2980"/>
<path d="M86.4386 94.5982C90.3886 96.0182 94.0787 97.7882 97.7187 99.6282C101.349 101.488 104.869 103.488 108.319 105.598C111.759 107.708 115.149 109.898 118.449 112.208C121.769 114.488 124.959 116.948 127.959 119.668C133.949 125.128 139.369 131.358 145.749 136.278C152.079 141.268 159.029 145.398 166.229 149.188C167.749 149.988 168.339 151.878 167.539 153.408C167.269 153.918 166.889 154.318 166.429 154.598L165.599 155.108C162.279 157.168 158.959 159.218 155.559 161.118C152.169 163.018 148.689 164.728 145.249 166.518C138.349 170.068 131.459 173.608 124.279 176.528C117.119 179.468 109.829 182.138 102.399 184.488C94.9586 186.818 87.4387 188.948 79.5687 190.328C79.2387 190.388 78.9286 190.168 78.8786 189.838C78.8386 189.618 78.9285 189.398 79.0985 189.258C85.3785 184.338 91.9986 180.158 98.6986 176.188C105.409 172.238 112.269 168.598 119.249 165.238C126.219 161.858 133.469 159.098 140.709 156.338C144.339 154.968 147.939 153.538 151.619 152.278C155.299 151.018 159.049 149.918 162.799 148.828L162.179 154.748C156.359 149.058 150.299 143.698 143.609 139.208C136.979 134.638 129.379 131.388 122.349 127.368C118.839 125.348 115.519 123.068 112.329 120.608C109.119 118.178 105.999 115.618 102.929 112.998C99.8686 110.368 96.8787 107.628 93.9987 104.748C91.1287 101.848 88.3087 98.8782 85.7487 95.5582C85.5487 95.2982 85.5885 94.9082 85.8585 94.7082C86.0285 94.5782 86.2486 94.5482 86.4286 94.6182L86.4386 94.5982Z" fill="#0E2980"/>
<path d="M304.379 95.5382C299.049 101.898 293.229 107.588 287.249 113.048C281.249 118.488 275.069 123.678 268.659 128.548C262.229 133.398 255.429 137.738 248.649 142.118C245.269 144.318 241.879 146.498 238.349 148.498C234.829 150.508 231.229 152.398 227.669 154.348L227.139 149.278C233.789 153.378 240.669 156.958 247.949 159.628C255.209 162.348 263.049 163.788 270.369 166.368C274.049 167.628 277.589 169.178 281.069 170.898C284.559 172.578 288.009 174.338 291.409 176.238C294.809 178.118 298.159 180.108 301.439 182.248C304.719 184.398 307.959 186.648 311.029 189.258C311.279 189.478 311.319 189.858 311.099 190.108C310.959 190.268 310.749 190.338 310.559 190.318C306.559 189.778 302.729 188.868 298.939 187.868C295.149 186.858 291.429 185.698 287.759 184.428C284.079 183.168 280.459 181.788 276.879 180.308C273.279 178.868 269.759 177.268 266.359 175.378C259.539 171.658 253.239 166.788 246.359 163.208C239.499 159.578 232.239 156.848 224.749 154.648C223.319 154.228 222.509 152.728 222.919 151.308C223.059 150.838 223.309 150.438 223.639 150.118L224.209 149.588C227.159 146.798 230.059 143.948 233.049 141.218C236.029 138.468 239.149 135.908 242.279 133.368C248.519 128.258 254.739 123.118 261.329 118.488C267.929 113.878 274.769 109.588 281.789 105.548C288.819 101.528 296.019 97.7282 303.709 94.6082C304.019 94.4882 304.369 94.6282 304.489 94.9382C304.579 95.1482 304.529 95.3882 304.389 95.5482L304.379 95.5382Z" fill="#0E2980"/>
<path d="M280.349 215.498H109.349C102.721 215.498 97.3486 220.871 97.3486 227.498V254.068C97.3486 260.696 102.721 266.068 109.349 266.068H280.349C286.976 266.068 292.349 260.696 292.349 254.068V227.498C292.349 220.871 286.976 215.498 280.349 215.498Z" fill="white"/>
<path d="M280.349 266.648C270.549 266.618 260.749 266.928 250.949 267.538C241.149 268.148 231.349 269.038 221.549 269.768C211.749 270.488 201.949 271.068 192.149 271.218C182.349 271.398 172.549 271.288 162.749 270.918C157.849 270.708 152.949 270.468 148.049 270.188L133.349 269.278C128.449 268.948 123.549 268.718 118.649 268.458C116.199 268.328 113.749 268.248 111.299 268.148L109.459 268.098C108.769 268.048 108.039 268.038 107.339 267.878C105.929 267.648 104.569 267.178 103.309 266.528C100.769 265.258 98.7089 263.168 97.3289 260.728C96.6589 259.488 96.1787 258.158 95.8887 256.778C95.6187 255.408 95.5987 253.918 95.6087 252.768C95.6087 247.868 95.5287 242.968 95.4087 238.068L95.1988 230.718L95.1287 228.878L95.0889 227.958L95.0689 227.498V226.948C95.0589 225.488 95.3088 224.008 95.7688 222.608C96.2088 221.198 96.8888 219.848 97.7588 218.648C98.6288 217.438 99.6387 216.308 100.849 215.408C102.049 214.498 103.389 213.738 104.829 213.208C106.279 212.698 107.809 212.398 109.359 212.318L124.059 211.538L131.409 211.148L138.759 210.838C148.559 210.438 158.359 210.228 168.159 210.008C177.959 209.768 187.759 209.588 197.559 209.428C207.359 209.228 217.159 209.228 226.959 209.298C236.759 209.398 246.559 209.558 256.359 209.878C261.259 210.048 266.159 210.288 271.059 210.588C273.509 210.748 275.959 210.888 278.409 211.088L280.249 211.228C281.019 211.308 281.889 211.358 282.679 211.558C284.299 211.878 285.859 212.468 287.269 213.268C290.109 214.848 292.319 217.328 293.669 220.128C294.329 221.548 294.769 223.048 294.989 224.558C295.189 226.068 295.099 227.698 294.989 228.798C294.589 233.698 294.199 238.598 293.899 243.498C293.749 245.948 293.599 248.398 293.489 250.848L293.299 254.558C293.229 255.878 292.899 257.188 292.419 258.398C290.519 263.308 285.519 266.738 280.339 266.648H280.349ZM280.349 265.488C281.519 265.458 282.669 265.268 283.779 264.918C284.879 264.548 285.919 264.008 286.859 263.328C287.799 262.658 288.599 261.788 289.279 260.868C289.969 259.948 290.499 258.908 290.829 257.818C291.169 256.738 291.369 255.608 291.339 254.478C291.339 253.328 291.239 252.048 291.189 250.838C291.079 248.388 290.929 245.938 290.779 243.488C290.479 238.588 290.089 233.688 289.689 228.788C289.599 227.438 289.489 226.608 289.219 225.708C288.919 224.828 288.509 224.008 287.999 223.278C286.939 221.828 285.479 220.728 283.899 220.188C283.119 219.898 282.309 219.738 281.499 219.728C281.089 219.688 280.729 219.758 280.269 219.768L278.429 219.908C275.979 220.108 273.529 220.248 271.079 220.408C266.179 220.708 261.279 220.948 256.379 221.118C246.579 221.428 236.779 221.588 226.979 221.698C217.179 221.758 207.379 221.758 197.579 221.568C187.779 221.408 177.979 221.228 168.179 220.988C158.379 220.768 148.579 220.558 138.779 220.158L131.429 219.848L124.079 219.458L109.379 218.678C108.479 218.638 107.569 218.708 106.669 218.908C105.779 219.128 104.919 219.498 104.109 219.988C102.499 220.968 101.149 222.488 100.419 224.288C100.039 225.178 99.7788 226.138 99.7188 227.128L99.6788 227.498L99.6587 227.958L99.6187 228.878L99.5489 230.718L99.3389 238.068C99.2189 242.968 99.1487 247.868 99.1387 252.768C99.1387 254.068 99.1189 255.048 99.3289 256.078C99.5589 257.098 99.9288 258.078 100.429 258.998C101.459 260.818 103.079 262.298 104.959 263.148C105.889 263.598 106.899 263.878 107.919 263.968C108.429 264.058 108.929 264.018 109.459 264.038L111.299 263.988C113.749 263.888 116.199 263.808 118.649 263.678C123.549 263.408 128.449 263.178 133.349 262.858L148.049 261.948C152.949 261.668 157.849 261.418 162.749 261.218C172.549 260.848 182.349 260.738 192.149 260.918C201.949 261.068 211.749 261.648 221.549 262.368C231.349 263.098 241.149 263.998 250.949 264.598C260.749 265.208 270.549 265.518 280.349 265.488Z" fill="#0E2980"/>
<path d="M134.449 215.498C135.779 217.608 136.399 219.708 136.829 221.818C137.029 222.868 137.159 223.928 137.219 224.978C137.309 226.028 137.249 227.088 137.029 228.138C136.579 230.248 135.449 232.348 135.239 234.458C134.999 236.568 135.349 238.668 136.029 240.778C136.349 241.828 136.689 242.888 136.929 243.938C137.179 244.988 137.289 246.048 137.419 247.098C137.689 249.208 137.959 251.308 137.849 253.418C137.719 255.528 137.399 257.628 136.879 259.738C136.609 260.788 136.309 261.848 135.899 262.898C135.519 263.948 135.069 265.008 134.459 266.058C134.349 266.248 134.099 266.318 133.909 266.208C133.849 266.168 133.799 266.118 133.759 266.058C133.149 265.008 132.699 263.948 132.319 262.898C131.909 261.848 131.609 260.788 131.339 259.738C130.809 257.628 130.489 255.528 130.359 253.418C130.249 251.308 130.519 249.208 130.789 247.098C130.919 246.048 131.039 244.988 131.279 243.938C131.519 242.888 131.859 241.828 132.179 240.778C132.849 238.668 133.209 236.568 132.969 234.458C132.759 232.348 131.629 230.248 131.179 228.138C130.949 227.088 130.889 226.028 130.989 224.978C131.039 223.928 131.179 222.868 131.379 221.818C131.799 219.708 132.419 217.608 133.759 215.498C133.879 215.308 134.139 215.248 134.329 215.368C134.379 215.398 134.429 215.448 134.459 215.498H134.449Z" fill="#0E2980"/>
<path d="M174.629 215.498C175.239 216.548 175.689 217.608 176.069 218.658C176.479 219.708 176.779 220.768 177.049 221.818C177.579 223.928 177.899 226.028 178.019 228.138C178.129 230.248 177.859 232.348 177.589 234.458C177.459 235.508 177.339 236.568 177.099 237.618C176.859 238.668 176.519 239.728 176.199 240.778C175.529 242.888 175.169 244.988 175.409 247.098C175.619 249.208 176.749 251.308 177.199 253.418C177.429 254.468 177.489 255.528 177.389 256.578C177.339 257.628 177.199 258.688 176.999 259.738C176.579 261.848 175.959 263.948 174.619 266.058C174.499 266.248 174.239 266.308 174.049 266.188C173.999 266.158 173.949 266.108 173.919 266.058C172.589 263.948 171.969 261.848 171.539 259.738C171.339 258.688 171.209 257.628 171.149 256.578C171.059 255.528 171.119 254.468 171.339 253.418C171.789 251.308 172.919 249.208 173.129 247.098C173.369 244.988 173.019 242.888 172.339 240.778C172.019 239.728 171.679 238.668 171.439 237.618C171.189 236.568 171.079 235.508 170.949 234.458C170.679 232.348 170.409 230.248 170.519 228.138C170.649 226.028 170.969 223.928 171.489 221.818C171.759 220.768 172.059 219.708 172.469 218.658C172.849 217.608 173.299 216.548 173.909 215.498C174.019 215.308 174.269 215.238 174.459 215.348C174.519 215.388 174.569 215.438 174.609 215.498H174.629Z" fill="#0E2980"/>
<path d="M213.519 215.498C214.129 216.548 214.579 217.608 214.959 218.658C215.369 219.708 215.669 220.768 215.939 221.818C216.469 223.928 216.789 226.028 216.919 228.138C217.029 230.248 216.759 232.348 216.489 234.458C216.359 235.508 216.239 236.568 215.999 237.618C215.759 238.668 215.419 239.728 215.099 240.778C214.429 242.888 214.069 244.988 214.309 247.098C214.519 249.208 215.649 251.308 216.099 253.418C216.329 254.468 216.389 255.528 216.289 256.578C216.239 257.628 216.099 258.688 215.899 259.738C215.479 261.848 214.859 263.948 213.519 266.058C213.399 266.248 213.139 266.308 212.949 266.188C212.899 266.158 212.849 266.108 212.819 266.058C211.489 263.948 210.869 261.848 210.439 259.738C210.239 258.688 210.109 257.628 210.049 256.578C209.959 255.528 210.019 254.468 210.239 253.418C210.689 251.308 211.819 249.208 212.029 247.098C212.269 244.988 211.919 242.888 211.239 240.778C210.919 239.728 210.579 238.668 210.339 237.618C210.089 236.568 209.979 235.508 209.849 234.458C209.579 232.348 209.309 230.248 209.419 228.138C209.549 226.028 209.869 223.928 210.389 221.818C210.659 220.768 210.959 219.708 211.369 218.658C211.749 217.608 212.199 216.548 212.809 215.498C212.919 215.308 213.169 215.238 213.359 215.348C213.419 215.388 213.469 215.438 213.509 215.498H213.519Z" fill="#0E2980"/>
<path d="M253.699 215.498C255.029 217.608 255.649 219.708 256.079 221.818C256.279 222.868 256.409 223.928 256.469 224.978C256.559 226.028 256.499 227.088 256.279 228.138C255.829 230.248 254.699 232.348 254.489 234.458C254.249 236.568 254.599 238.668 255.279 240.778C255.599 241.828 255.939 242.888 256.179 243.938C256.429 244.988 256.539 246.048 256.669 247.098C256.939 249.208 257.209 251.308 257.099 253.418C256.969 255.528 256.649 257.628 256.129 259.738C255.859 260.788 255.559 261.848 255.149 262.898C254.769 263.948 254.319 265.008 253.709 266.058C253.599 266.248 253.349 266.318 253.159 266.208C253.099 266.168 253.049 266.118 253.009 266.058C252.399 265.008 251.949 263.948 251.569 262.898C251.159 261.848 250.859 260.788 250.589 259.738C250.059 257.628 249.739 255.528 249.619 253.418C249.509 251.308 249.779 249.208 250.049 247.098C250.179 246.048 250.299 244.988 250.539 243.938C250.779 242.888 251.119 241.828 251.439 240.778C252.109 238.668 252.469 236.568 252.229 234.458C252.019 232.348 250.889 230.248 250.439 228.138C250.209 227.088 250.149 226.028 250.249 224.978C250.299 223.928 250.439 222.868 250.639 221.818C251.059 219.708 251.679 217.608 253.019 215.498C253.139 215.308 253.399 215.248 253.589 215.368C253.639 215.398 253.689 215.448 253.719 215.498H253.699Z" fill="#0E2980"/>
</svg>
