<svg width="417" height="438" viewBox="0 0 417 438" fill="none" xmlns="http://www.w3.org/2000/svg">
<path d="M2.12027 194.621C11.9903 104.571 79.1403 30.6908 162.38 11.4608C243.24 -7.2192 307.61 33.0008 317.56 39.4408C399.94 92.7708 410.07 185.291 411.68 206.061C413.04 223.641 418.82 298.021 367.16 358.691C311.21 424.411 208.34 450.001 121.67 409.571C39.1503 371.071 -7.53974 282.601 2.11026 194.611L2.12027 194.621Z" fill="#FCDB00"/>
<path d="M1.37018 194.541C2.19018 187.731 3.16016 180.921 4.60016 174.211C4.95016 172.531 5.2702 170.841 5.64019 169.171L6.87018 164.171L7.48016 161.671L8.18023 159.191L9.58026 154.231C13.5103 141.051 18.7002 128.251 24.8702 115.901C25.6302 114.351 26.4902 112.851 27.2902 111.321C28.1202 109.801 28.8702 108.241 29.7602 106.761C31.5002 103.771 33.1902 100.751 35.0702 97.8508C38.6602 91.9208 42.7102 86.2908 46.8502 80.7008C55.3102 69.6908 64.7603 59.3407 75.2003 50.0107C77.8703 47.7507 80.4602 45.3907 83.2402 43.2507L87.3602 39.9807L91.6002 36.8607L93.7203 35.3007L95.9002 33.8208L100.27 30.8807C101.75 29.9307 103.26 29.0308 104.75 28.1008C106.25 27.1808 107.74 26.2407 109.29 25.4007L113.9 22.8208C115.44 21.9608 117.03 21.2107 118.6 20.4007C121.72 18.7607 124.95 17.3307 128.16 15.8707C129.76 15.1207 131.42 14.5108 133.05 13.8408C134.69 13.1908 136.32 12.4907 137.98 11.9007C141.32 10.7507 144.61 9.44067 148.02 8.48067C175.02 -0.0693283 204.07 -2.05923 231.95 2.08077C259.87 6.29077 286.6 16.1708 310.59 30.4608C313.59 32.2608 316.55 34.1407 319.44 36.1207C322.26 38.1707 325.13 40.1507 327.91 42.2507C333.42 46.5207 338.81 50.9307 343.83 55.7407C345.09 56.9407 346.37 58.1108 347.61 59.3308L351.26 63.0507L353.08 64.9107L354.83 66.8408L358.32 70.7008C362.84 75.9608 367.2 81.3507 371.19 87.0107C379.29 98.2507 386.17 110.311 392.07 122.801C397.9 135.331 402.71 148.321 406.46 161.631C408.34 168.281 409.95 175.011 411.28 181.801C412.66 188.581 413.75 195.431 414.54 202.321C416.06 216.051 416.77 229.991 416.08 243.901C415.45 257.811 413.61 271.711 410.42 285.371C407.27 299.041 402.61 312.411 396.52 325.161C384.39 350.711 365.92 373.281 343.69 390.841C342.33 391.981 340.9 393.031 339.48 394.081L335.21 397.251L330.82 400.251C329.36 401.261 327.9 402.251 326.38 403.171L321.87 405.991C320.37 406.931 318.8 407.761 317.27 408.651C315.72 409.511 314.21 410.451 312.63 411.241L307.91 413.681C306.35 414.521 304.73 415.251 303.13 416.001L298.31 418.241L293.41 420.301C291.78 420.991 290.15 421.681 288.48 422.281L283.5 424.151C281.85 424.791 280.15 425.291 278.47 425.861C276.78 426.401 275.12 427.011 273.41 427.501L268.3 428.981C254.67 432.901 240.61 435.251 226.46 436.381C212.31 437.511 198.04 437.191 183.95 435.451C155.74 432.081 128.27 422.801 103.78 408.541C91.5502 401.371 80.1602 392.861 69.7402 383.361C68.4102 382.211 67.1802 380.931 65.9102 379.721C64.6502 378.481 63.3602 377.291 62.1402 376.021L58.5102 372.191L56.7103 370.261L54.9802 368.271L51.5202 364.301L48.2103 360.201C45.9603 357.501 43.9403 354.631 41.8403 351.841C33.6403 340.471 26.7202 328.271 20.8502 315.671C18.0002 309.331 15.3302 302.911 13.1002 296.351C10.7202 289.841 8.88026 283.161 7.08026 276.501C3.74026 263.091 1.55023 249.441 0.550229 235.731C0.180229 228.861 -0.159741 221.991 0.0802586 215.131C0.140259 208.261 0.700185 201.411 1.38019 194.581L1.37018 194.541ZM2.86017 194.701C2.25017 201.491 1.7302 208.291 1.7702 215.111C1.7002 221.921 2.12016 228.731 2.73016 235.511C4.15016 249.051 6.91026 262.431 10.9603 275.371C15.0903 288.291 20.4603 300.771 26.9603 312.561C33.5203 324.331 41.1103 335.471 49.7003 345.711C58.3003 355.941 67.7903 365.361 78.0703 373.751C80.6803 375.791 83.2102 377.941 85.9202 379.851L89.9202 382.791L94.0302 385.571C96.7202 387.491 99.5902 389.151 102.36 390.931C103.75 391.821 105.22 392.591 106.64 393.421C108.08 394.221 109.49 395.091 110.95 395.861C122.56 402.131 134.72 407.351 147.27 411.341C159.82 415.341 172.76 418.021 185.84 419.511C192.37 420.301 198.95 420.661 205.53 420.861C207.18 420.891 208.82 420.861 210.47 420.861C212.12 420.841 213.76 420.901 215.41 420.801C218.7 420.631 221.99 420.601 225.27 420.291L230.19 419.911L235.1 419.341C238.38 419.021 241.62 418.441 244.88 417.941C246.51 417.721 248.12 417.341 249.74 417.051C251.36 416.741 252.98 416.451 254.59 416.111L259.41 415.001L261.82 414.441C262.62 414.241 263.41 414.011 264.21 413.801C289.7 407.101 313.99 395.531 335 379.581C356.03 363.651 373.5 343.171 385.77 319.701C388.89 313.861 391.59 307.791 394.05 301.621C396.53 295.461 398.7 289.151 400.52 282.731C404.19 269.901 406.63 256.661 407.9 243.271C409.17 229.881 409.25 216.371 408.21 202.861C407.7 196.141 406.9 189.421 405.79 182.751C404.65 176.081 403.23 169.461 401.55 162.901C394.83 136.691 383.46 111.511 367.29 89.8108C363.32 84.3408 358.87 79.2407 354.35 74.2307L350.83 70.6008L349.07 68.7907L347.23 67.0507L343.56 63.5808C342.32 62.4408 341.01 61.3707 339.74 60.2707C334.66 55.8507 329.24 51.8507 323.74 48.0007C320.96 46.1207 318.11 44.3307 315.29 42.5307C312.44 40.8007 309.51 39.1807 306.55 37.6307C294.67 31.4407 282.18 26.3907 269.4 22.5207C256.63 18.6007 243.53 15.9308 230.35 14.4408C204 11.5008 177.23 13.6107 151.88 21.1607C126.51 28.5707 102.51 40.9508 81.3303 57.3208C70.7603 65.5308 60.9103 74.7408 51.9503 84.8208C43.0703 94.9608 35.0302 105.931 28.2302 117.671L25.7502 122.111C25.3402 122.851 24.9102 123.591 24.5202 124.341L23.3602 126.611L21.0702 131.161L18.9503 135.801C17.4903 138.871 16.2702 142.051 14.9902 145.201C14.3302 146.771 13.8202 148.391 13.2302 149.991C12.6702 151.601 12.0502 153.191 11.5402 154.811L10.0202 159.681L9.28021 162.121L8.63019 164.591L7.32025 169.531C6.92025 171.191 6.57025 172.851 6.20025 174.511C4.70025 181.161 3.7502 187.921 2.8902 194.681L2.86017 194.701Z" fill="#0E2980"/>
<path d="M68.7901 143.511C72.4201 135.521 81.3301 115.921 102.28 109.171C122.21 102.741 146.45 110.061 159.81 128.061C177.75 152.231 165.28 181.111 163.24 185.591C161.48 189.471 149.96 215.411 123.74 219.931C95.4301 224.821 67.5001 201.721 62.7801 177.001C60.0501 162.741 65.5601 150.611 68.7901 143.511Z" fill="white"/>
<path d="M68.4701 143.371C71.4101 136.801 74.7301 130.341 79.0601 124.441C81.2101 121.491 83.6501 118.701 86.3801 116.191C87.7001 114.881 89.2101 113.781 90.6701 112.601C92.2401 111.581 93.7401 110.411 95.4301 109.571C98.7101 107.681 102.3 106.321 105.97 105.301C109.66 104.351 113.47 103.861 117.28 103.791C121.09 103.811 124.91 104.091 128.62 104.971C130.5 105.311 132.3 105.921 134.12 106.461C135.02 106.761 135.9 107.121 136.79 107.461C137.67 107.801 138.56 108.141 139.4 108.581L141.95 109.831C142.79 110.271 143.59 110.781 144.4 111.261C146.05 112.171 147.56 113.331 149.1 114.411C152.05 116.761 154.88 119.251 157.26 122.141C162.17 127.781 165.79 134.421 167.95 141.461C170.1 148.511 170.79 155.931 170.27 163.231C169.74 170.541 168.23 177.771 165.68 184.731C163.09 191.651 159.54 198.261 154.91 204.181C154.32 204.911 153.71 205.621 153.1 206.351L152.18 207.421L151.19 208.431C150.53 209.101 149.87 209.791 149.19 210.451L147.05 212.341C146.69 212.651 146.34 212.981 145.97 213.281L144.82 214.141L142.51 215.851L140.06 217.361C139.24 217.861 138.43 218.391 137.55 218.781C135.81 219.611 134.11 220.541 132.26 221.131L129.53 222.121C128.6 222.381 127.65 222.601 126.71 222.831C122.96 223.851 119.06 224.211 115.18 224.221C107.4 224.221 99.7301 222.251 92.8201 218.951C85.9101 215.631 79.7001 211.001 74.5401 205.421C71.9701 202.631 69.68 199.581 67.74 196.321C65.77 193.081 64.2101 189.601 63.0101 186.021C61.8301 182.431 61.0701 178.711 60.8001 174.971C60.5401 171.231 60.7501 167.511 61.3701 163.881C62.0101 160.261 62.9901 156.741 64.2101 153.321C65.4501 149.911 66.9101 146.601 68.4301 143.341L68.4701 143.371ZM69.11 143.661C67.63 146.931 66.26 150.251 65.23 153.671C64.22 157.091 63.5201 160.601 63.3101 164.131C62.7801 171.191 64.3701 178.161 67.3701 184.311C68.8401 187.411 70.6801 190.311 72.6901 193.071L74.2601 195.091L75.9301 197.031C77.0601 198.311 78.2301 199.531 79.4501 200.721C84.3201 205.451 89.9401 209.401 96.0501 212.211C102.14 215.041 108.72 216.711 115.34 216.931C118.64 217.011 121.99 216.811 125.2 216.021C126.01 215.841 126.83 215.691 127.63 215.501L129.99 214.731C131.6 214.291 133.09 213.531 134.62 212.881C135.4 212.581 136.11 212.131 136.84 211.731L139.03 210.491L141.11 209.061L142.16 208.351C142.5 208.101 142.82 207.821 143.15 207.561L145.14 205.971C145.78 205.411 146.39 204.811 147.02 204.241L147.96 203.371L148.85 202.441C149.44 201.821 150.05 201.211 150.63 200.581C152.92 198.011 155.04 195.261 156.99 192.371C158.93 189.481 160.66 186.431 162.16 183.261C165.1 176.931 167.19 170.051 167.91 163.031C168.67 156.021 168.09 148.821 165.81 142.161C163.54 135.501 159.52 129.541 154.46 124.801C152 122.361 149.16 120.351 146.29 118.501C144.78 117.681 143.36 116.711 141.79 116.031C141.02 115.661 140.26 115.261 139.48 114.931C138.68 114.621 137.89 114.301 137.11 113.971C136.33 113.621 135.52 113.371 134.71 113.111C133.9 112.851 133.11 112.551 132.29 112.321C130.64 111.931 129.02 111.391 127.34 111.141C124.03 110.411 120.64 110.151 117.27 110.031C115.58 110.061 113.89 109.991 112.21 110.201C110.51 110.251 108.85 110.571 107.17 110.801C103.86 111.461 100.52 112.231 97.3801 113.621C95.7601 114.201 94.2701 115.061 92.7101 115.811C91.2401 116.721 89.7001 117.551 88.3201 118.611C86.8701 119.581 85.5501 120.741 84.1901 121.871C82.9101 123.081 81.6301 124.301 80.4501 125.631C75.6401 130.871 72 137.161 69.1 143.711L69.11 143.661Z" fill="#0E2980"/>
<path d="M250.84 143.511C254.47 135.521 263.38 115.921 284.33 109.171C304.26 102.741 328.5 110.061 341.86 128.061C359.8 152.231 347.33 181.111 345.29 185.591C343.53 189.471 332.01 215.411 305.79 219.931C277.48 224.821 249.55 201.721 244.83 177.001C242.1 162.741 247.61 150.611 250.84 143.511Z" fill="white"/>
<path d="M250.52 143.371C253.46 136.801 256.78 130.341 261.11 124.441C263.26 121.491 265.7 118.701 268.43 116.191C269.75 114.881 271.26 113.781 272.72 112.601C274.29 111.581 275.79 110.411 277.48 109.571C280.76 107.681 284.35 106.321 288.02 105.301C291.71 104.351 295.52 103.861 299.33 103.791C303.14 103.811 306.96 104.091 310.67 104.971C312.55 105.311 314.35 105.921 316.17 106.461C317.07 106.761 317.95 107.121 318.84 107.461C319.72 107.801 320.61 108.141 321.45 108.581L324 109.831C324.84 110.271 325.64 110.781 326.45 111.261C328.1 112.171 329.61 113.331 331.15 114.411C334.1 116.761 336.93 119.251 339.31 122.141C344.22 127.781 347.84 134.421 350 141.461C352.15 148.511 352.84 155.931 352.32 163.231C351.79 170.541 350.28 177.771 347.73 184.731C345.14 191.651 341.59 198.261 336.96 204.181C336.37 204.911 335.76 205.621 335.15 206.351L334.23 207.421L333.24 208.431C332.58 209.101 331.92 209.791 331.24 210.451L329.1 212.341C328.74 212.651 328.39 212.981 328.02 213.281L326.87 214.141L324.56 215.851L322.11 217.361C321.29 217.861 320.48 218.391 319.6 218.781C317.86 219.611 316.16 220.541 314.31 221.131L311.58 222.121C310.65 222.381 309.7 222.601 308.76 222.831C305.01 223.851 301.11 224.211 297.23 224.221C289.45 224.221 281.78 222.251 274.87 218.951C267.96 215.631 261.75 211.001 256.59 205.421C254.02 202.631 251.73 199.581 249.79 196.321C247.82 193.081 246.26 189.601 245.06 186.021C243.88 182.431 243.12 178.711 242.85 174.971C242.59 171.231 242.8 167.511 243.42 163.881C244.06 160.261 245.04 156.741 246.26 153.321C247.5 149.911 248.96 146.601 250.48 143.341L250.52 143.371ZM251.16 143.661C249.68 146.931 248.31 150.251 247.28 153.671C246.27 157.091 245.57 160.601 245.36 164.131C244.83 171.191 246.42 178.161 249.42 184.311C250.89 187.411 252.73 190.311 254.74 193.071L256.31 195.091L257.98 197.031C259.11 198.311 260.28 199.531 261.5 200.721C266.37 205.451 271.99 209.401 278.1 212.211C284.19 215.041 290.77 216.711 297.39 216.931C300.69 217.011 304.04 216.811 307.25 216.021C308.06 215.841 308.88 215.691 309.68 215.501L312.04 214.731C313.65 214.291 315.14 213.531 316.67 212.881C317.45 212.581 318.16 212.131 318.89 211.731L321.08 210.491L323.16 209.061L324.21 208.351C324.55 208.101 324.87 207.821 325.2 207.561L327.19 205.971C327.83 205.411 328.44 204.811 329.07 204.241L330.01 203.371L330.9 202.441C331.49 201.821 332.1 201.211 332.68 200.581C334.97 198.011 337.09 195.261 339.04 192.371C340.98 189.481 342.71 186.431 344.21 183.261C347.15 176.931 349.24 170.051 349.96 163.031C350.72 156.021 350.14 148.821 347.86 142.161C345.59 135.501 341.57 129.541 336.51 124.801C334.05 122.361 331.21 120.351 328.34 118.501C326.83 117.681 325.41 116.711 323.84 116.031C323.07 115.661 322.31 115.261 321.53 114.931C320.73 114.621 319.94 114.301 319.16 113.971C318.38 113.621 317.57 113.371 316.76 113.111C315.95 112.851 315.16 112.551 314.34 112.321C312.69 111.931 311.07 111.391 309.39 111.141C306.08 110.411 302.69 110.151 299.32 110.031C297.63 110.061 295.94 109.991 294.26 110.201C292.56 110.251 290.9 110.571 289.22 110.801C285.91 111.461 282.57 112.231 279.43 113.621C277.81 114.201 276.32 115.061 274.76 115.811C273.29 116.721 271.75 117.551 270.37 118.611C268.91 119.581 267.6 120.741 266.24 121.871C264.96 123.081 263.68 124.301 262.5 125.631C257.69 130.871 254.05 137.161 251.15 143.711L251.16 143.661Z" fill="#0E2980"/>
<path d="M94.24 139.301C96.89 133.461 103.41 119.131 118.72 114.191C133.29 109.491 151.02 114.841 160.78 128.001C173.9 145.671 164.78 166.791 163.29 170.061C162 172.901 153.58 191.861 134.41 195.171C113.71 198.741 93.2901 181.851 89.8301 163.781C87.8401 153.351 91.8701 144.491 94.2201 139.301H94.24Z" fill="#0E2980"/>
<path d="M250.34 142.521C252.99 136.681 259.51 122.351 274.83 117.411C289.4 112.711 307.13 118.061 316.89 131.221C330.01 148.891 320.89 170.011 319.4 173.281C318.11 176.121 309.69 195.081 290.52 198.391C269.82 201.971 249.4 185.071 245.94 167.001C243.95 156.571 247.98 147.711 250.33 142.521H250.34Z" fill="#0E2980"/>
<path d="M153.58 273.221C154.44 270.611 155.81 268.321 157.33 266.171C158.88 264.041 160.64 262.091 162.58 260.321C163.06 259.881 163.56 259.451 164.06 259.031C164.56 258.611 165.05 258.171 165.59 257.791C166.65 257.021 167.71 256.261 168.82 255.551C169.95 254.881 171.08 254.221 172.26 253.651C173.45 253.091 174.71 252.671 175.97 252.281C177.22 251.861 178.54 251.641 179.86 251.441C181.18 251.251 182.47 251.021 183.81 250.961C185.13 250.871 186.43 250.751 187.71 250.591C189 250.501 190.28 250.391 191.53 250.191C192.16 250.101 192.77 249.971 193.4 249.871C194.03 249.791 194.65 249.691 195.27 249.581C196.51 249.381 197.75 249.081 198.99 248.811C200.24 248.601 201.49 248.331 202.74 248.021C203.37 247.871 204 247.701 204.63 247.531L206.55 247.161C207.83 246.901 209.13 246.631 210.44 246.401C211.75 246.181 213.07 246.101 214.39 246.011C215.05 245.971 215.72 245.931 216.38 245.921C217.04 245.941 217.7 245.971 218.36 246.021C219.68 246.121 221.02 246.171 222.33 246.371C227.62 246.981 232.91 248.251 237.74 250.541C238.95 251.111 240.14 251.711 241.27 252.421C242.41 253.111 243.55 253.791 244.62 254.591C246.8 256.111 248.84 257.811 250.72 259.671C254.47 263.371 257.73 267.621 259.72 272.601C259.85 272.921 259.69 273.291 259.37 273.421C259.21 273.491 259.03 273.481 258.89 273.421H258.88C256.46 272.351 254.21 271.281 252 270.241C250.87 269.741 249.81 269.201 248.7 268.721L247.08 267.971C246.53 267.741 245.99 267.491 245.46 267.251C244.39 266.761 243.32 266.301 242.25 265.841C241.21 265.341 240.11 264.961 239.07 264.491C238.03 264.021 236.94 263.651 235.9 263.221C234.86 262.771 233.8 262.391 232.75 261.981C228.56 260.381 224.47 258.511 220.11 257.181C219.03 256.801 217.92 256.591 216.82 256.271C216.27 256.121 215.71 255.961 215.16 255.791C214.6 255.671 214.04 255.521 213.48 255.371C212.92 255.231 212.36 255.051 211.79 254.901C211.22 254.741 210.66 254.511 210.08 254.401C208.93 254.151 207.77 253.851 206.6 253.571L204.83 253.171C204.24 253.071 203.64 253.011 203.04 252.951C201.85 252.831 200.64 252.751 199.44 252.731C198.84 252.731 198.24 252.801 197.65 252.861C197.05 252.911 196.46 252.991 195.87 253.081C195.28 253.161 194.68 253.251 194.1 253.371C193.52 253.501 192.94 253.691 192.37 253.881C191.23 254.261 190.11 254.711 189.02 255.211C187.95 255.791 186.91 256.431 185.89 257.081C184.86 257.691 183.89 258.451 182.92 259.151C181.95 259.861 180.97 260.481 180.01 261.171C179.06 261.851 178.06 262.411 177.06 262.981C176.08 263.581 175.05 264.091 174.02 264.601C171.99 265.681 169.92 266.711 167.83 267.781C165.74 268.841 163.62 269.921 161.41 270.961C159.2 272.011 156.97 273.081 154.46 274.051H154.45C154.12 274.181 153.75 274.021 153.62 273.691C153.56 273.551 153.56 273.391 153.61 273.261L153.58 273.221Z" fill="#0E2980"/>
<path d="M82.5203 174.561C83.5903 172.201 86.2303 166.401 92.4203 164.401C98.3103 162.501 105.48 164.661 109.43 169.991C114.73 177.141 111.05 185.681 110.45 187.001C109.93 188.151 106.52 195.821 98.7703 197.161C90.4003 198.611 82.1403 191.781 80.7403 184.471C79.9303 180.251 81.5603 176.671 82.5203 174.571V174.561Z" fill="white"/>
<path d="M117.02 146.151C117.58 144.911 118.97 141.861 122.23 140.811C125.33 139.811 129.1 140.951 131.18 143.751C133.97 147.511 132.03 152.001 131.71 152.701C131.44 153.301 129.64 157.341 125.57 158.041C121.16 158.801 116.82 155.211 116.09 151.361C115.67 149.141 116.52 147.261 117.03 146.151H117.02Z" fill="white"/>
<path d="M328.83 174.561C327.76 172.201 325.12 166.401 318.93 164.401C313.04 162.501 305.87 164.661 301.92 169.991C296.62 177.141 300.3 185.681 300.9 187.001C301.42 188.151 304.83 195.821 312.58 197.161C320.95 198.611 329.21 191.781 330.61 184.471C331.42 180.251 329.79 176.671 328.83 174.571V174.561Z" fill="white"/>
<path d="M294.32 146.151C293.76 144.911 292.37 141.861 289.11 140.811C286.01 139.811 282.24 140.951 280.16 143.751C277.37 147.511 279.31 152.001 279.63 152.701C279.9 153.301 281.7 157.341 285.77 158.041C290.18 158.801 294.52 155.211 295.25 151.361C295.67 149.141 294.82 147.261 294.31 146.151H294.32Z" fill="white"/>
</svg>
